%TF.GenerationSoftware,KiCad,Pcbnew,(6.0.10)*%
%TF.CreationDate,2023-02-16T14:40:38+00:00*%
%TF.ProjectId,Supplytest,53757070-6c79-4746-9573-742e6b696361,rev?*%
%TF.SameCoordinates,Original*%
%TF.FileFunction,Legend,Bot*%
%TF.FilePolarity,Positive*%
%FSLAX46Y46*%
G04 Gerber Fmt 4.6, Leading zero omitted, Abs format (unit mm)*
G04 Created by KiCad (PCBNEW (6.0.10)) date 2023-02-16 14:40:38*
%MOMM*%
%LPD*%
G01*
G04 APERTURE LIST*
%ADD10C,0.150000*%
G04 APERTURE END LIST*
D10*
X218997380Y-87096666D02*
X218997380Y-87668095D01*
X219997380Y-87382380D02*
X218997380Y-87382380D01*
X219997380Y-88001428D02*
X218997380Y-88001428D01*
X219997380Y-88477619D02*
X218997380Y-88477619D01*
X218997380Y-88858571D01*
X219045000Y-88953809D01*
X219092619Y-89001428D01*
X219187857Y-89049047D01*
X219330714Y-89049047D01*
X219425952Y-89001428D01*
X219473571Y-88953809D01*
X219521190Y-88858571D01*
X219521190Y-88477619D01*
X218997380Y-89668095D02*
X218997380Y-89763333D01*
X219045000Y-89858571D01*
X219092619Y-89906190D01*
X219187857Y-89953809D01*
X219378333Y-90001428D01*
X219616428Y-90001428D01*
X219806904Y-89953809D01*
X219902142Y-89906190D01*
X219949761Y-89858571D01*
X219997380Y-89763333D01*
X219997380Y-89668095D01*
X219949761Y-89572857D01*
X219902142Y-89525238D01*
X219806904Y-89477619D01*
X219616428Y-89430000D01*
X219378333Y-89430000D01*
X219187857Y-89477619D01*
X219092619Y-89525238D01*
X219045000Y-89572857D01*
X218997380Y-89668095D01*
X218997380Y-90334761D02*
X218997380Y-90953809D01*
X219378333Y-90620476D01*
X219378333Y-90763333D01*
X219425952Y-90858571D01*
X219473571Y-90906190D01*
X219568809Y-90953809D01*
X219806904Y-90953809D01*
X219902142Y-90906190D01*
X219949761Y-90858571D01*
X219997380Y-90763333D01*
X219997380Y-90477619D01*
X219949761Y-90382380D01*
X219902142Y-90334761D01*
X218997380Y-91572857D02*
X218997380Y-91668095D01*
X219045000Y-91763333D01*
X219092619Y-91810952D01*
X219187857Y-91858571D01*
X219378333Y-91906190D01*
X219616428Y-91906190D01*
X219806904Y-91858571D01*
X219902142Y-91810952D01*
X219949761Y-91763333D01*
X219997380Y-91668095D01*
X219997380Y-91572857D01*
X219949761Y-91477619D01*
X219902142Y-91430000D01*
X219806904Y-91382380D01*
X219616428Y-91334761D01*
X219378333Y-91334761D01*
X219187857Y-91382380D01*
X219092619Y-91430000D01*
X219045000Y-91477619D01*
X218997380Y-91572857D01*
X219711666Y-93049047D02*
X219711666Y-93525238D01*
X219997380Y-92953809D02*
X218997380Y-93287142D01*
X219997380Y-93620476D01*
X219711666Y-93906190D02*
X219711666Y-94382380D01*
X219997380Y-93810952D02*
X218997380Y-94144285D01*
X219997380Y-94477619D01*
X218997380Y-95430000D02*
X218997380Y-96001428D01*
X219997380Y-95715714D02*
X218997380Y-95715714D01*
X219997380Y-96906190D02*
X219521190Y-96572857D01*
X219997380Y-96334761D02*
X218997380Y-96334761D01*
X218997380Y-96715714D01*
X219045000Y-96810952D01*
X219092619Y-96858571D01*
X219187857Y-96906190D01*
X219330714Y-96906190D01*
X219425952Y-96858571D01*
X219473571Y-96810952D01*
X219521190Y-96715714D01*
X219521190Y-96334761D01*
X219711666Y-97287142D02*
X219711666Y-97763333D01*
X219997380Y-97191904D02*
X218997380Y-97525238D01*
X219997380Y-97858571D01*
X219997380Y-98191904D02*
X218997380Y-98191904D01*
X219997380Y-98763333D01*
X218997380Y-98763333D01*
X219949761Y-99191904D02*
X219997380Y-99334761D01*
X219997380Y-99572857D01*
X219949761Y-99668095D01*
X219902142Y-99715714D01*
X219806904Y-99763333D01*
X219711666Y-99763333D01*
X219616428Y-99715714D01*
X219568809Y-99668095D01*
X219521190Y-99572857D01*
X219473571Y-99382380D01*
X219425952Y-99287142D01*
X219378333Y-99239523D01*
X219283095Y-99191904D01*
X219187857Y-99191904D01*
X219092619Y-99239523D01*
X219045000Y-99287142D01*
X218997380Y-99382380D01*
X218997380Y-99620476D01*
X219045000Y-99763333D01*
X218997380Y-100191904D02*
X219806904Y-100191904D01*
X219902142Y-100239523D01*
X219949761Y-100287142D01*
X219997380Y-100382380D01*
X219997380Y-100572857D01*
X219949761Y-100668095D01*
X219902142Y-100715714D01*
X219806904Y-100763333D01*
X218997380Y-100763333D01*
X219949761Y-101191904D02*
X219997380Y-101334761D01*
X219997380Y-101572857D01*
X219949761Y-101668095D01*
X219902142Y-101715714D01*
X219806904Y-101763333D01*
X219711666Y-101763333D01*
X219616428Y-101715714D01*
X219568809Y-101668095D01*
X219521190Y-101572857D01*
X219473571Y-101382380D01*
X219425952Y-101287142D01*
X219378333Y-101239523D01*
X219283095Y-101191904D01*
X219187857Y-101191904D01*
X219092619Y-101239523D01*
X219045000Y-101287142D01*
X218997380Y-101382380D01*
X218997380Y-101620476D01*
X219045000Y-101763333D01*
X219997380Y-102953809D02*
X218997380Y-102953809D01*
X218997380Y-103334761D01*
X219045000Y-103430000D01*
X219092619Y-103477619D01*
X219187857Y-103525238D01*
X219330714Y-103525238D01*
X219425952Y-103477619D01*
X219473571Y-103430000D01*
X219521190Y-103334761D01*
X219521190Y-102953809D01*
X218997380Y-104144285D02*
X218997380Y-104334761D01*
X219045000Y-104430000D01*
X219140238Y-104525238D01*
X219330714Y-104572857D01*
X219664047Y-104572857D01*
X219854523Y-104525238D01*
X219949761Y-104430000D01*
X219997380Y-104334761D01*
X219997380Y-104144285D01*
X219949761Y-104049047D01*
X219854523Y-103953809D01*
X219664047Y-103906190D01*
X219330714Y-103906190D01*
X219140238Y-103953809D01*
X219045000Y-104049047D01*
X218997380Y-104144285D01*
X218997380Y-104906190D02*
X219997380Y-105144285D01*
X219283095Y-105334761D01*
X219997380Y-105525238D01*
X218997380Y-105763333D01*
X219473571Y-106144285D02*
X219473571Y-106477619D01*
X219997380Y-106620476D02*
X219997380Y-106144285D01*
X218997380Y-106144285D01*
X218997380Y-106620476D01*
X219997380Y-107620476D02*
X219521190Y-107287142D01*
X219997380Y-107049047D02*
X218997380Y-107049047D01*
X218997380Y-107430000D01*
X219045000Y-107525238D01*
X219092619Y-107572857D01*
X219187857Y-107620476D01*
X219330714Y-107620476D01*
X219425952Y-107572857D01*
X219473571Y-107525238D01*
X219521190Y-107430000D01*
X219521190Y-107049047D01*
X218997380Y-108668095D02*
X218997380Y-109239523D01*
X219997380Y-108953809D02*
X218997380Y-108953809D01*
X219473571Y-109572857D02*
X219473571Y-109906190D01*
X219997380Y-110049047D02*
X219997380Y-109572857D01*
X218997380Y-109572857D01*
X218997380Y-110049047D01*
X219949761Y-110430000D02*
X219997380Y-110572857D01*
X219997380Y-110810952D01*
X219949761Y-110906190D01*
X219902142Y-110953809D01*
X219806904Y-111001428D01*
X219711666Y-111001428D01*
X219616428Y-110953809D01*
X219568809Y-110906190D01*
X219521190Y-110810952D01*
X219473571Y-110620476D01*
X219425952Y-110525238D01*
X219378333Y-110477619D01*
X219283095Y-110430000D01*
X219187857Y-110430000D01*
X219092619Y-110477619D01*
X219045000Y-110525238D01*
X218997380Y-110620476D01*
X218997380Y-110858571D01*
X219045000Y-111001428D01*
X218997380Y-111287142D02*
X218997380Y-111858571D01*
X219997380Y-111572857D02*
X218997380Y-111572857D01*
X219473571Y-112191904D02*
X219473571Y-112525238D01*
X219997380Y-112668095D02*
X219997380Y-112191904D01*
X218997380Y-112191904D01*
X218997380Y-112668095D01*
X219997380Y-113668095D02*
X219521190Y-113334761D01*
X219997380Y-113096666D02*
X218997380Y-113096666D01*
X218997380Y-113477619D01*
X219045000Y-113572857D01*
X219092619Y-113620476D01*
X219187857Y-113668095D01*
X219330714Y-113668095D01*
X219425952Y-113620476D01*
X219473571Y-113572857D01*
X219521190Y-113477619D01*
X219521190Y-113096666D01*
X220607380Y-90310952D02*
X220607380Y-90882380D01*
X221607380Y-90596666D02*
X220607380Y-90596666D01*
X221607380Y-91215714D02*
X220607380Y-91215714D01*
X221083571Y-92025238D02*
X221131190Y-92168095D01*
X221178809Y-92215714D01*
X221274047Y-92263333D01*
X221416904Y-92263333D01*
X221512142Y-92215714D01*
X221559761Y-92168095D01*
X221607380Y-92072857D01*
X221607380Y-91691904D01*
X220607380Y-91691904D01*
X220607380Y-92025238D01*
X220655000Y-92120476D01*
X220702619Y-92168095D01*
X220797857Y-92215714D01*
X220893095Y-92215714D01*
X220988333Y-92168095D01*
X221035952Y-92120476D01*
X221083571Y-92025238D01*
X221083571Y-91691904D01*
X220607380Y-92549047D02*
X221607380Y-92882380D01*
X220607380Y-93215714D01*
X221607380Y-94882380D02*
X221131190Y-94549047D01*
X221607380Y-94310952D02*
X220607380Y-94310952D01*
X220607380Y-94691904D01*
X220655000Y-94787142D01*
X220702619Y-94834761D01*
X220797857Y-94882380D01*
X220940714Y-94882380D01*
X221035952Y-94834761D01*
X221083571Y-94787142D01*
X221131190Y-94691904D01*
X221131190Y-94310952D01*
X221607380Y-96120476D02*
X221607380Y-96072857D01*
X221559761Y-95977619D01*
X221416904Y-95834761D01*
X221131190Y-95596666D01*
X220988333Y-95501428D01*
X220845476Y-95453809D01*
X220750238Y-95453809D01*
X220655000Y-95501428D01*
X220607380Y-95596666D01*
X220607380Y-95644285D01*
X220655000Y-95739523D01*
X220750238Y-95787142D01*
X220797857Y-95787142D01*
X220893095Y-95739523D01*
X220940714Y-95691904D01*
X221131190Y-95406190D01*
X221178809Y-95358571D01*
X221274047Y-95310952D01*
X221416904Y-95310952D01*
X221512142Y-95358571D01*
X221559761Y-95406190D01*
X221607380Y-95501428D01*
X221607380Y-95644285D01*
X221559761Y-95739523D01*
X221512142Y-95787142D01*
X221321666Y-95930000D01*
X221178809Y-95977619D01*
X221083571Y-95977619D01*
X221607380Y-96549047D02*
X220607380Y-96549047D01*
X220607380Y-96787142D01*
X220655000Y-96930000D01*
X220750238Y-97025238D01*
X220845476Y-97072857D01*
X221035952Y-97120476D01*
X221178809Y-97120476D01*
X221369285Y-97072857D01*
X221464523Y-97025238D01*
X221559761Y-96930000D01*
X221607380Y-96787142D01*
X221607380Y-96549047D01*
X221321666Y-98263333D02*
X221321666Y-98739523D01*
X221607380Y-98168095D02*
X220607380Y-98501428D01*
X221607380Y-98834761D01*
X221512142Y-99739523D02*
X221559761Y-99691904D01*
X221607380Y-99549047D01*
X221607380Y-99453809D01*
X221559761Y-99310952D01*
X221464523Y-99215714D01*
X221369285Y-99168095D01*
X221178809Y-99120476D01*
X221035952Y-99120476D01*
X220845476Y-99168095D01*
X220750238Y-99215714D01*
X220655000Y-99310952D01*
X220607380Y-99453809D01*
X220607380Y-99549047D01*
X220655000Y-99691904D01*
X220702619Y-99739523D01*
X220607380Y-100025238D02*
X220607380Y-100596666D01*
X221607380Y-100310952D02*
X220607380Y-100310952D01*
X221607380Y-100930000D02*
X220607380Y-100930000D01*
X220607380Y-101263333D02*
X221607380Y-101596666D01*
X220607380Y-101930000D01*
X221083571Y-102263333D02*
X221083571Y-102596666D01*
X221607380Y-102739523D02*
X221607380Y-102263333D01*
X220607380Y-102263333D01*
X220607380Y-102739523D01*
X221607380Y-104453809D02*
X221607380Y-103882380D01*
X221607380Y-104168095D02*
X220607380Y-104168095D01*
X220750238Y-104072857D01*
X220845476Y-103977619D01*
X220893095Y-103882380D01*
X220607380Y-104787142D02*
X220607380Y-105406190D01*
X220988333Y-105072857D01*
X220988333Y-105215714D01*
X221035952Y-105310952D01*
X221083571Y-105358571D01*
X221178809Y-105406190D01*
X221416904Y-105406190D01*
X221512142Y-105358571D01*
X221559761Y-105310952D01*
X221607380Y-105215714D01*
X221607380Y-104930000D01*
X221559761Y-104834761D01*
X221512142Y-104787142D01*
X221226428Y-105834761D02*
X221226428Y-106596666D01*
X220607380Y-107263333D02*
X220607380Y-107358571D01*
X220655000Y-107453809D01*
X220702619Y-107501428D01*
X220797857Y-107549047D01*
X220988333Y-107596666D01*
X221226428Y-107596666D01*
X221416904Y-107549047D01*
X221512142Y-107501428D01*
X221559761Y-107453809D01*
X221607380Y-107358571D01*
X221607380Y-107263333D01*
X221559761Y-107168095D01*
X221512142Y-107120476D01*
X221416904Y-107072857D01*
X221226428Y-107025238D01*
X220988333Y-107025238D01*
X220797857Y-107072857D01*
X220702619Y-107120476D01*
X220655000Y-107168095D01*
X220607380Y-107263333D01*
X220607380Y-108215714D02*
X220607380Y-108310952D01*
X220655000Y-108406190D01*
X220702619Y-108453809D01*
X220797857Y-108501428D01*
X220988333Y-108549047D01*
X221226428Y-108549047D01*
X221416904Y-108501428D01*
X221512142Y-108453809D01*
X221559761Y-108406190D01*
X221607380Y-108310952D01*
X221607380Y-108215714D01*
X221559761Y-108120476D01*
X221512142Y-108072857D01*
X221416904Y-108025238D01*
X221226428Y-107977619D01*
X220988333Y-107977619D01*
X220797857Y-108025238D01*
X220702619Y-108072857D01*
X220655000Y-108120476D01*
X220607380Y-108215714D01*
X220607380Y-109168095D02*
X220607380Y-109263333D01*
X220655000Y-109358571D01*
X220702619Y-109406190D01*
X220797857Y-109453809D01*
X220988333Y-109501428D01*
X221226428Y-109501428D01*
X221416904Y-109453809D01*
X221512142Y-109406190D01*
X221559761Y-109358571D01*
X221607380Y-109263333D01*
X221607380Y-109168095D01*
X221559761Y-109072857D01*
X221512142Y-109025238D01*
X221416904Y-108977619D01*
X221226428Y-108930000D01*
X220988333Y-108930000D01*
X220797857Y-108977619D01*
X220702619Y-109025238D01*
X220655000Y-109072857D01*
X220607380Y-109168095D01*
X221035952Y-110072857D02*
X220988333Y-109977619D01*
X220940714Y-109930000D01*
X220845476Y-109882380D01*
X220797857Y-109882380D01*
X220702619Y-109930000D01*
X220655000Y-109977619D01*
X220607380Y-110072857D01*
X220607380Y-110263333D01*
X220655000Y-110358571D01*
X220702619Y-110406190D01*
X220797857Y-110453809D01*
X220845476Y-110453809D01*
X220940714Y-110406190D01*
X220988333Y-110358571D01*
X221035952Y-110263333D01*
X221035952Y-110072857D01*
X221083571Y-109977619D01*
X221131190Y-109930000D01*
X221226428Y-109882380D01*
X221416904Y-109882380D01*
X221512142Y-109930000D01*
X221559761Y-109977619D01*
X221607380Y-110072857D01*
X221607380Y-110263333D01*
X221559761Y-110358571D01*
X221512142Y-110406190D01*
X221416904Y-110453809D01*
X221226428Y-110453809D01*
X221131190Y-110406190D01*
X221083571Y-110358571D01*
X221035952Y-110263333D01*
M02*
