M48
; DRILL file {KiCad (6.0.10)} date Thu Feb 16 14:40:40 2023
; FORMAT={-:-/ absolute / metric / decimal}
; #@! TF.CreationDate,2023-02-16T14:40:40+00:00
; #@! TF.GenerationSoftware,Kicad,Pcbnew,(6.0.10)
; #@! TF.FileFunction,Plated,1,2,PTH
FMAT,2
METRIC
; #@! TA.AperFunction,Plated,PTH,ViaDrill
T1C0.400
; #@! TA.AperFunction,Plated,PTH,ComponentDrill
T2C0.991
; #@! TA.AperFunction,Plated,PTH,ComponentDrill
T3C1.000
; #@! TA.AperFunction,Plated,PTH,ComponentDrill
T4C1.500
; #@! TA.AperFunction,Plated,PTH,ComponentDrill
T5C2.300
%
G90
G05
T1
X188.115Y-64.34
X188.115Y-66.898
X188.115Y-69.457
X188.115Y-72.015
X188.115Y-74.574
X188.115Y-77.132
X188.115Y-79.691
X188.115Y-82.249
X188.115Y-84.808
X188.115Y-87.366
X188.115Y-89.925
X188.115Y-110.394
X188.115Y-112.954
X188.115Y-115.513
X188.115Y-118.073
X188.115Y-120.632
X188.115Y-123.192
X188.118Y-125.751
X188.12Y-61.782
X188.122Y-91.274
X188.122Y-106.514
X188.122Y-98.894
X188.122Y-101.434
X188.122Y-103.974
X188.122Y-93.814
X188.122Y-96.354
X188.842Y-128.164
X188.904Y-59.39
X189.821Y-110.208
X189.833Y-89.038
X189.933Y-62.543
X189.972Y-121.742
X190.12Y-125.982
X190.472Y-60.155
X190.828Y-129.714
X190.927Y-57.892
X191.312Y-102.782
X191.374Y-105.486
X191.43Y-108.901
X191.728Y-64.206
X191.763Y-97.382
X191.833Y-94.842
X191.879Y-90.197
X192.419Y-121.66
X192.523Y-92.302
X192.566Y-125.895
X192.736Y-106.883
X192.812Y-59.435
X193.148Y-103.727
X193.356Y-129.975
X193.373Y-100.742
X193.46Y-57.665
X193.716Y-123.735
X194.066Y-63.484
X194.26Y-83.686
X194.437Y-90.197
X194.546Y-105.073
X194.61Y-61.096
X194.785Y-86.035
X194.831Y-81.562
X194.95Y-101.924
X195.23Y-82.748
X195.45Y-98.666
X195.916Y-129.975
X196.019Y-57.665
X196.173Y-79.708
X196.356Y-103.263
X196.563Y-87.647
X196.752Y-100.122
X197.121Y-104.808
X197.34Y-107.251
X197.362Y-112.08
X197.379Y-109.68
X197.469Y-97.871
X198.003Y-78.468
X198.166Y-101.453
X198.293Y-89.493
X198.474Y-103.08
X198.475Y-129.975
X198.552Y-113.486
X198.577Y-57.665
X198.809Y-115.917
X199.57Y-87.858
X199.574Y-82.566
X199.819Y-99.955
X200.076Y-84.926
X200.124Y-76.775
X200.228Y-62.291
X200.263Y-86.817
X200.279Y-91.361
X200.295Y-74.256
X200.35Y-81.587
X200.41Y-95.757
X200.444Y-79.233
X200.562Y-117.188
X200.568Y-59.861
X200.651Y-103.942
X200.76Y-101.667
X200.77Y-126.799
X200.999Y-64.501
X200.999Y-67.06
X200.999Y-69.618
X200.999Y-72.177
X201.135Y-57.665
X201.253Y-129.207
X201.421Y-93.277
X201.525Y-118.58
X201.53Y-91.337
X201.561Y-96.48
X201.661Y-84.271
X201.917Y-120.937
X201.954Y-112.274
X202.123Y-87.886
X202.503Y-125.063
X202.61Y-107.397
X202.64Y-93.557
X202.7Y-102.435
X202.71Y-106.358
X202.882Y-105.119
X202.92Y-99.896
X202.94Y-65.355
X202.94Y-68.028
X202.94Y-70.701
X202.94Y-73.375
X202.96Y-79.413
X202.995Y-91.43
X203.316Y-62.91
X203.4Y-87.718
X203.544Y-117.012
X203.694Y-57.665
X203.702Y-85.991
X203.815Y-75.529
X203.908Y-122.328
X203.922Y-108.912
X203.935Y-95.115
X203.948Y-83.813
X204.1Y-77.638
X204.28Y-120.087
X204.49Y-88.027
X204.524Y-59.668
X204.528Y-129.843
X204.55Y-91.248
X204.685Y-102.001
X204.75Y-96.777
X204.797Y-107.042
X204.915Y-63.251
X205.025Y-124.472
X205.16Y-108.777
X205.197Y-104.405
X205.295Y-92.268
X205.381Y-96.002
X205.584Y-117.011
X205.592Y-83.036
X205.868Y-127.789
X206.09Y-85.017
X206.252Y-57.665
X206.265Y-70.644
X206.321Y-75.697
X206.473Y-119.403
X206.48Y-104.117
X206.496Y-80.232
X206.501Y-129.975
X206.513Y-77.828
X207.06Y-84.317
X207.204Y-100.837
X207.204Y-102.017
X207.311Y-124.633
X207.326Y-62.739
X207.361Y-111.813
X207.429Y-103.373
X207.484Y-72.645
X207.549Y-118.022
X207.847Y-69.006
X207.91Y-105.457
X207.972Y-99.853
X208.011Y-97.851
X208.21Y-83.407
X208.26Y-85.478
X208.329Y-60.014
X208.43Y-91.218
X208.47Y-92.347
X208.779Y-126.775
X208.811Y-57.665
X208.94Y-112.358
X209.03Y-95.956
X209.11Y-110.557
X209.222Y-65.642
X209.235Y-129.188
X209.41Y-94.767
X209.42Y-92.707
X209.43Y-72.567
X209.49Y-117.655
X209.5Y-83.783
X209.687Y-124.667
X209.898Y-120.037
X209.99Y-77.727
X210.08Y-74.647
X210.15Y-86.89
X210.319Y-76.526
X210.389Y-122.392
X210.394Y-69.247
X210.46Y-100.277
X210.541Y-97.651
X210.56Y-105.887
X210.585Y-63.436
X211.113Y-67.533
X211.27Y-80.62
X211.286Y-106.905
X211.369Y-57.665
X211.488Y-117.44
X211.637Y-75.053
X211.812Y-65.487
X211.839Y-77.699
X212.084Y-59.734
X212.506Y-129.856
X212.569Y-108.194
X212.614Y-69.264
X212.649Y-97.096
X212.689Y-101.437
X212.93Y-125.554
X213.04Y-76.229
X213.23Y-105.122
X213.38Y-83.412
X213.62Y-114.257
X213.621Y-67.296
X213.777Y-117.979
X213.865Y-127.815
X213.873Y-63.398
X213.928Y-57.665
X214.304Y-85.486
X214.464Y-59.502
X214.527Y-129.975
X214.719Y-81.383
X214.88Y-105.122
X214.98Y-77.604
X214.981Y-112.196
X215.08Y-84.507
X215.18Y-74.97
X215.3Y-86.89
X215.513Y-61.654
X215.686Y-68.487
X215.999Y-117.294
X216.38Y-70.617
X216.462Y-101.364
X216.486Y-57.665
X216.569Y-88.007
X217.004Y-78.351
X217.087Y-129.975
X217.215Y-106.373
X217.371Y-75.71
X217.839Y-70.949
X218.007Y-113.287
X218.206Y-68.59
X218.233Y-101.364
X218.27Y-81.078
X218.333Y-116.863
X218.778Y-107.879
X219.045Y-57.665
X219.54Y-115.228
X219.603Y-81.038
X219.647Y-129.975
X219.747Y-101.437
X219.782Y-70.499
X219.933Y-62.543
X220.296Y-99.275
X220.355Y-75.303
X220.355Y-72.841
X220.47Y-87.207
X220.472Y-60.155
X220.636Y-105.368
X220.642Y-109.101
X220.688Y-113.287
X220.7Y-77.807
X220.767Y-97.309
X220.826Y-123.905
X221.29Y-79.769
X221.373Y-110.634
X221.45Y-85.087
X221.466Y-76.822
X221.602Y-90.365
X221.603Y-57.665
X221.728Y-64.206
X221.89Y-96.748
X221.927Y-114.793
X221.972Y-121.742
X222.12Y-125.982
X222.206Y-129.971
X222.548Y-101.437
X222.665Y-99.347
X222.812Y-59.435
X222.853Y-108.0
X223.036Y-78.776
X223.062Y-105.703
X223.23Y-81.262
X223.23Y-83.82
X223.23Y-86.379
X223.613Y-89.104
X223.719Y-110.217
X223.737Y-112.983
X224.066Y-63.484
X224.096Y-58.092
X224.419Y-121.66
X224.566Y-125.895
X224.61Y-61.096
X224.617Y-129.245
X225.616Y-111.324
X225.914Y-59.833
X226.166Y-127.258
X226.424Y-62.305
X226.424Y-64.863
X226.424Y-67.422
X226.424Y-69.98
X226.424Y-72.539
X226.424Y-75.097
X226.424Y-77.656
X226.424Y-80.214
X226.424Y-82.773
X226.424Y-85.331
X226.424Y-87.889
X226.424Y-114.491
X226.424Y-117.051
X226.424Y-119.61
X226.424Y-122.17
X226.424Y-124.729
T2
X196.594Y-84.942
X197.61Y-79.862
X198.626Y-84.942
T3
X189.734Y-90.733
X189.734Y-93.272
X189.734Y-95.812
X189.734Y-98.352
X189.734Y-100.892
X189.734Y-103.432
X189.734Y-105.972
X189.734Y-108.512
X206.02Y-121.067
X206.02Y-123.067
X208.52Y-121.067
X208.52Y-123.067
X224.734Y-90.763
X224.734Y-93.302
X224.734Y-95.843
X224.734Y-98.382
X224.734Y-100.922
X224.734Y-103.462
X224.734Y-106.002
X224.734Y-108.542
T4
X201.995Y-61.337
X205.805Y-61.337
X209.615Y-61.337
X213.425Y-61.337
T5
X203.27Y-127.557
X211.27Y-127.557
T0
M30
