%TF.GenerationSoftware,KiCad,Pcbnew,(6.0.10)*%
%TF.CreationDate,2023-02-16T14:40:38+00:00*%
%TF.ProjectId,Supplytest,53757070-6c79-4746-9573-742e6b696361,rev?*%
%TF.SameCoordinates,Original*%
%TF.FileFunction,Copper,L2,Bot*%
%TF.FilePolarity,Positive*%
%FSLAX46Y46*%
G04 Gerber Fmt 4.6, Leading zero omitted, Abs format (unit mm)*
G04 Created by KiCad (PCBNEW (6.0.10)) date 2023-02-16 14:40:38*
%MOMM*%
%LPD*%
G01*
G04 APERTURE LIST*
G04 Aperture macros list*
%AMRoundRect*
0 Rectangle with rounded corners*
0 $1 Rounding radius*
0 $2 $3 $4 $5 $6 $7 $8 $9 X,Y pos of 4 corners*
0 Add a 4 corners polygon primitive as box body*
4,1,4,$2,$3,$4,$5,$6,$7,$8,$9,$2,$3,0*
0 Add four circle primitives for the rounded corners*
1,1,$1+$1,$2,$3*
1,1,$1+$1,$4,$5*
1,1,$1+$1,$6,$7*
1,1,$1+$1,$8,$9*
0 Add four rect primitives between the rounded corners*
20,1,$1+$1,$2,$3,$4,$5,0*
20,1,$1+$1,$4,$5,$6,$7,0*
20,1,$1+$1,$6,$7,$8,$9,0*
20,1,$1+$1,$8,$9,$2,$3,0*%
G04 Aperture macros list end*
%TA.AperFunction,ComponentPad*%
%ADD10R,1.700000X1.700000*%
%TD*%
%TA.AperFunction,ComponentPad*%
%ADD11O,1.700000X1.700000*%
%TD*%
%TA.AperFunction,ComponentPad*%
%ADD12C,1.750000*%
%TD*%
%TA.AperFunction,ComponentPad*%
%ADD13C,3.000000*%
%TD*%
%TA.AperFunction,ComponentPad*%
%ADD14C,1.200000*%
%TD*%
%TA.AperFunction,ComponentPad*%
%ADD15RoundRect,0.500000X-0.500000X-0.500000X0.500000X-0.500000X0.500000X0.500000X-0.500000X0.500000X0*%
%TD*%
%TA.AperFunction,ComponentPad*%
%ADD16C,2.000000*%
%TD*%
%TA.AperFunction,ViaPad*%
%ADD17C,0.800000*%
%TD*%
%TA.AperFunction,Conductor*%
%ADD18C,0.250000*%
%TD*%
G04 APERTURE END LIST*
D10*
%TO.P,J2,1,Pin_1*%
%TO.N,+3V3*%
X224734286Y-90762500D03*
D11*
%TO.P,J2,2,Pin_2*%
%TO.N,PA5*%
X224734286Y-93302500D03*
%TO.P,J2,3,Pin_3*%
%TO.N,PA6*%
X224734286Y-95842500D03*
%TO.P,J2,4,Pin_4*%
%TO.N,PA7*%
X224734286Y-98382500D03*
%TO.P,J2,5,Pin_5*%
%TO.N,PD4*%
X224734286Y-100922500D03*
%TO.P,J2,6,Pin_6*%
%TO.N,PD5*%
X224734286Y-103462500D03*
%TO.P,J2,7,Pin_7*%
%TO.N,PD6*%
X224734286Y-106002500D03*
%TO.P,J2,8,Pin_8*%
%TO.N,GND*%
X224734286Y-108542500D03*
%TD*%
D10*
%TO.P,J1,1,Pin_1*%
%TO.N,Net-(J1-Pad1)*%
X189734286Y-108512500D03*
D11*
%TO.P,J1,2,Pin_2*%
%TO.N,Net-(J1-Pad2)*%
X189734286Y-105972500D03*
%TO.P,J1,3,Pin_3*%
%TO.N,Net-(J1-Pad3)*%
X189734286Y-103432500D03*
%TO.P,J1,4,Pin_4*%
%TO.N,Net-(J1-Pad4)*%
X189734286Y-100892500D03*
%TO.P,J1,5,Pin_5*%
%TO.N,Net-(J1-Pad5)*%
X189734286Y-98352500D03*
%TO.P,J1,6,Pin_6*%
%TO.N,Net-(J1-Pad6)*%
X189734286Y-95812500D03*
%TO.P,J1,7,Pin_7*%
%TO.N,Net-(J1-Pad7)*%
X189734286Y-93272500D03*
%TO.P,J1,8,Pin_8*%
%TO.N,Net-(J1-Pad8)*%
X189734286Y-90732500D03*
%TD*%
D12*
%TO.P,J3,1,VBUS*%
%TO.N,Net-(FB1-Pad2)*%
X208520000Y-121067500D03*
%TO.P,J3,2,D-*%
%TO.N,Net-(C6-Pad1)*%
X206020000Y-121067500D03*
%TO.P,J3,3,D+*%
%TO.N,Net-(C4-Pad1)*%
X206020000Y-123067500D03*
%TO.P,J3,4,GND*%
%TO.N,GND*%
X208520000Y-123067500D03*
D13*
%TO.P,J3,5,Shield*%
X203270000Y-127557500D03*
X211270000Y-127557500D03*
%TD*%
D14*
%TO.P,J5,*%
%TO.N,*%
X196594000Y-84942500D03*
X197610000Y-79862500D03*
X198626000Y-84942500D03*
%TD*%
D15*
%TO.P,J4,1,Pin_1*%
%TO.N,VDC*%
X201995000Y-61337500D03*
D16*
%TO.P,J4,2,Pin_2*%
%TO.N,GND*%
X205805000Y-61337500D03*
%TO.P,J4,3,Pin_3*%
%TO.N,VOUT*%
X209615000Y-61337500D03*
%TO.P,J4,4,Pin_4*%
%TO.N,GND*%
X213425000Y-61337500D03*
%TD*%
D17*
%TO.N,GND*%
X217839500Y-70949495D03*
X211112610Y-67532604D03*
X209222247Y-65642241D03*
X207326195Y-62738848D03*
X204915461Y-63250724D03*
X203315835Y-62910261D03*
X202940500Y-65354574D03*
X202940500Y-68027952D03*
X202940500Y-70701330D03*
X202940500Y-73374708D03*
X203815499Y-75529429D03*
X206321306Y-75697000D03*
X207484437Y-72645423D03*
X206264942Y-70643540D03*
X207847038Y-69005727D03*
X210393620Y-69247000D03*
X212614404Y-69263760D03*
X213039500Y-76229421D03*
X211637423Y-75053000D03*
X210318597Y-76525815D03*
X211839200Y-77699301D03*
X214980500Y-77604364D03*
X217003848Y-78351142D03*
X217370837Y-75709860D03*
X215180004Y-74970469D03*
X211270274Y-80619782D03*
X219602751Y-81037757D03*
X221289500Y-79769494D03*
X213380367Y-83412478D03*
X214719307Y-81383087D03*
X203947914Y-83812919D03*
X205591989Y-83035965D03*
X208260494Y-85478000D03*
X214304413Y-85485761D03*
X210150173Y-86889625D03*
X216569228Y-88007000D03*
X215300173Y-86889625D03*
X200076157Y-84925697D03*
X200263275Y-86816788D03*
X202123497Y-87886400D03*
X203702319Y-85991065D03*
X201660535Y-84270529D03*
X199574416Y-82565764D03*
X192811695Y-59435129D03*
X194609527Y-61095766D03*
X194066497Y-63483526D03*
X191728125Y-64206424D03*
X189933260Y-62543469D03*
X190472025Y-60155283D03*
X222811691Y-59435128D03*
X224609526Y-61095763D03*
X224066499Y-63483524D03*
X221728127Y-64206424D03*
X219933260Y-62543470D03*
X220472025Y-60155283D03*
X226424500Y-87889484D03*
X226424500Y-85331009D03*
X226424500Y-82772534D03*
X226424500Y-80214059D03*
X226424500Y-77655584D03*
X226424500Y-75097109D03*
X226424500Y-72538634D03*
X226424500Y-69980159D03*
X226424500Y-67421684D03*
X226424500Y-64863209D03*
X226424500Y-62304734D03*
X225914091Y-59832712D03*
X224095872Y-58091882D03*
X221603291Y-57665500D03*
X219044816Y-57665500D03*
X216486341Y-57665500D03*
X213927866Y-57665500D03*
X211369391Y-57665500D03*
X208810916Y-57665500D03*
X206252441Y-57665500D03*
X203693966Y-57665500D03*
X201135491Y-57665500D03*
X198577016Y-57665500D03*
X196018541Y-57665500D03*
X193460066Y-57665500D03*
X190927160Y-57892027D03*
X188903750Y-59389904D03*
X188120310Y-61781850D03*
X188115500Y-64339852D03*
X188115500Y-66898327D03*
X188115500Y-69456802D03*
X188115500Y-72015277D03*
X188115500Y-74573752D03*
X188115500Y-77132227D03*
X188115500Y-79690702D03*
X188115500Y-82249177D03*
X188115500Y-84807652D03*
X188115500Y-87366127D03*
X188115500Y-89924602D03*
X189833008Y-89038069D03*
X191878535Y-90197000D03*
X194437010Y-90197000D03*
X198292836Y-89492830D03*
X196563097Y-87647377D03*
X194785042Y-86035036D03*
X194259500Y-83685541D03*
X194830768Y-81562424D03*
X196172786Y-79707914D03*
X198002548Y-78468146D03*
X206496141Y-80232000D03*
X206513248Y-77828200D03*
X204099726Y-77638000D03*
X202959908Y-79412999D03*
X200443508Y-79232584D03*
X200124500Y-76775115D03*
X200295078Y-74255730D03*
X200999500Y-72176823D03*
X200999500Y-69618348D03*
X200999500Y-67059873D03*
X200999500Y-64501398D03*
X200227970Y-62291309D03*
X200568280Y-59861315D03*
X204523957Y-59667710D03*
X208328640Y-60013929D03*
X212084077Y-59733894D03*
X214464194Y-59501998D03*
X215513439Y-61654231D03*
X213873106Y-63397819D03*
X210585500Y-63436167D03*
X211811719Y-65486725D03*
X213620834Y-67295840D03*
X215685915Y-68487000D03*
X218206237Y-68589774D03*
X219781573Y-70499119D03*
X220355500Y-72841102D03*
X220354840Y-75302820D03*
X221465988Y-76821784D03*
X223036093Y-78775854D03*
X223230500Y-81261620D03*
X223230500Y-83820095D03*
X223230500Y-86378570D03*
X223613486Y-89104301D03*
X202995000Y-91430006D03*
X192523006Y-92302000D03*
X188122425Y-91274090D03*
X205294501Y-92267875D03*
X201421347Y-93276537D03*
X200279449Y-91360575D03*
X191833006Y-94842000D03*
X188122437Y-93814126D03*
X203935023Y-95115017D03*
X201561402Y-96479788D03*
X212649207Y-97096299D03*
X191763006Y-97382000D03*
X188122439Y-96354132D03*
X188122427Y-98894093D03*
X212688524Y-101437000D03*
X207971989Y-99853121D03*
X210460049Y-100276956D03*
X210541360Y-97650611D03*
X209030489Y-95955617D03*
X208010800Y-97850699D03*
X220296345Y-99275335D03*
X219747469Y-101437000D03*
X222547757Y-101437000D03*
X222664744Y-99347153D03*
X220766994Y-97309444D03*
X218233186Y-101364434D03*
X216462209Y-101364434D03*
X191311779Y-102781819D03*
X193373071Y-100741935D03*
X195449500Y-98665506D03*
X188122431Y-101434106D03*
X188122431Y-103974106D03*
X191373926Y-105486068D03*
X193147559Y-103726733D03*
X194949807Y-101924485D03*
X196752055Y-100122237D03*
X197469500Y-97870650D03*
X202700500Y-102435062D03*
X202882190Y-105119075D03*
X204797428Y-107042434D03*
X205197257Y-104404903D03*
X204684857Y-102001261D03*
X202920027Y-99895813D03*
X188122426Y-106514091D03*
X211286231Y-106905223D03*
X212569200Y-108194301D03*
X203921718Y-108911713D03*
X220635590Y-105368000D03*
X217215499Y-106372672D03*
X218777953Y-107879233D03*
X220641525Y-109101391D03*
X221373278Y-110634500D03*
X223719164Y-110217184D03*
X222852689Y-108000260D03*
X223062318Y-105703027D03*
X207360800Y-111813199D03*
X201954404Y-112273760D03*
X214980528Y-112195548D03*
X218006501Y-113287000D03*
X220688006Y-113287000D03*
X203543987Y-117012363D03*
X206472673Y-119403255D03*
X207549500Y-118021658D03*
X205584207Y-117011299D03*
X224418544Y-121660230D03*
X224566313Y-125895122D03*
X222120179Y-125982362D03*
X220825867Y-123905188D03*
X221971701Y-121741919D03*
X192418544Y-121660230D03*
X193715692Y-123734926D03*
X192566312Y-125895122D03*
X190120178Y-125982361D03*
X189971701Y-121741919D03*
X198165923Y-101453358D03*
X196356052Y-103263229D03*
X194546180Y-105073101D03*
X192736309Y-106882971D03*
X191429786Y-108901335D03*
X189820564Y-110208000D03*
X188115500Y-110394241D03*
X188115500Y-112953785D03*
X188115500Y-115513329D03*
X188115500Y-118072873D03*
X188115500Y-120632417D03*
X188115500Y-123191961D03*
X188118384Y-125751222D03*
X188842492Y-128163653D03*
X190827738Y-129714497D03*
X193356159Y-129974500D03*
X195915703Y-129974500D03*
X198475247Y-129974500D03*
X201253093Y-129207425D03*
X200770489Y-126799138D03*
X202503380Y-125063360D03*
X205867700Y-127789415D03*
X204528090Y-129843000D03*
X206501337Y-129974500D03*
X209235406Y-129188245D03*
X208779326Y-126774593D03*
X212930038Y-125554151D03*
X213865380Y-127815402D03*
X212505567Y-129856161D03*
X214527423Y-129974500D03*
X217086967Y-129974500D03*
X219646511Y-129974500D03*
X222205684Y-129970728D03*
X224617488Y-129245065D03*
X226166237Y-127258060D03*
X226424500Y-124729292D03*
X226424500Y-122169748D03*
X226424500Y-119610204D03*
X226424500Y-117050660D03*
X226424500Y-114491116D03*
X225615947Y-111324047D03*
X223737288Y-112982706D03*
X221927417Y-114792577D03*
X219539522Y-115228000D03*
X218332886Y-116862873D03*
X215999372Y-117293870D03*
X213777162Y-117979240D03*
X211488483Y-117440499D03*
X209490500Y-117654955D03*
X209898080Y-120037310D03*
X210388530Y-122392087D03*
X209687420Y-124666568D03*
X207310724Y-124632548D03*
X205025078Y-124472036D03*
X203908482Y-122328476D03*
X201916667Y-120936661D03*
X201524883Y-118579683D03*
X200562218Y-117188000D03*
X198809500Y-115917493D03*
X198552096Y-113486241D03*
X197362182Y-112079774D03*
X197379377Y-109679580D03*
X197339532Y-107251227D03*
X197121053Y-104808406D03*
X198473883Y-103079501D03*
X200651335Y-103942108D03*
X200759500Y-101666903D03*
X199818598Y-99955212D03*
%TO.N,+3V3*%
X202640000Y-93557500D03*
X200410000Y-95757500D03*
%TO.N,+5V*%
X213620000Y-114257500D03*
X221890000Y-96747500D03*
%TO.N,TXL*%
X214880000Y-105122000D03*
X210560000Y-105887500D03*
%TO.N,RXL*%
X207910000Y-105457500D03*
X213230000Y-105122000D03*
%TO.N,Net-(R2-Pad1)*%
X201530000Y-91337500D03*
X209410000Y-94767500D03*
%TO.N,+3V3*%
X221602299Y-90365201D03*
%TO.N,PD6*%
X207429118Y-103373028D03*
%TO.N,PD5*%
X207204500Y-102017500D03*
%TO.N,PD4*%
X207204500Y-100837500D03*
%TO.N,PA7*%
X209420000Y-92707500D03*
%TO.N,PA6*%
X208470000Y-92347500D03*
%TO.N,PA5*%
X208430000Y-91217500D03*
%TO.N,+3V3*%
X204550000Y-91247500D03*
%TO.N,UART_RX*%
X206480000Y-104117500D03*
X205381145Y-96002476D03*
%TO.N,UART_TX*%
X204750000Y-96777500D03*
X202610000Y-107397500D03*
%TO.N,PDI_DATA*%
X195230000Y-82747500D03*
X199570000Y-87857500D03*
%TO.N,+3V3*%
X200350000Y-81587500D03*
X206090000Y-85017500D03*
%TO.N,ADC_OUT*%
X220700000Y-77807500D03*
X204490000Y-88027500D03*
%TO.N,DAC_OUT*%
X221450000Y-85087500D03*
X203400000Y-87717500D03*
%TO.N,Net-(C3-Pad1)*%
X220470000Y-87207500D03*
X218270000Y-81077500D03*
%TO.N,VOUT*%
X208210000Y-83407500D03*
X210080000Y-74647500D03*
%TO.N,Net-(Q1-Pad1)*%
X209430000Y-72567500D03*
X216380000Y-70617500D03*
%TO.N,VDC*%
X209990000Y-77727500D03*
X209500000Y-83783000D03*
%TO.N,Net-(C3-Pad2)*%
X215080000Y-84507500D03*
X207060000Y-84317500D03*
%TO.N,Net-(C4-Pad1)*%
X204280000Y-120087500D03*
%TO.N,+5V*%
X209110000Y-110557500D03*
X208940000Y-112357500D03*
%TO.N,+3.3VP*%
X202710000Y-106357500D03*
X205160000Y-108777500D03*
%TD*%
D18*
%TO.N,+3V3*%
X202610000Y-93557500D02*
X202640000Y-93557500D01*
X200410000Y-95757500D02*
X202610000Y-93557500D01*
%TO.N,+5V*%
X221090000Y-114257500D02*
X213620000Y-114257500D01*
X226080000Y-109267500D02*
X221090000Y-114257500D01*
X226080000Y-100587500D02*
X226080000Y-109267500D01*
X221890000Y-97199915D02*
X224437585Y-99747500D01*
X224437585Y-99747500D02*
X225240000Y-99747500D01*
X221890000Y-96747500D02*
X221890000Y-97199915D01*
X225240000Y-99747500D02*
X225370000Y-99877500D01*
X225370000Y-99877500D02*
X226080000Y-100587500D01*
%TO.N,TXL*%
X210560000Y-105887500D02*
X214114500Y-105887500D01*
X214114500Y-105887500D02*
X214880000Y-105122000D01*
%TO.N,RXL*%
X208245500Y-105122000D02*
X207910000Y-105457500D01*
X213230000Y-105122000D02*
X208245500Y-105122000D01*
%TO.N,Net-(R2-Pad1)*%
X204960000Y-94767500D02*
X201530000Y-91337500D01*
X209410000Y-94767500D02*
X204960000Y-94767500D01*
%TO.N,PD6*%
X223129286Y-104397500D02*
X224734286Y-106002500D01*
X207429118Y-103373028D02*
X208453590Y-104397500D01*
X208453590Y-104397500D02*
X223129286Y-104397500D01*
%TO.N,PD5*%
X207204500Y-102017500D02*
X208649500Y-103462500D01*
X208649500Y-103462500D02*
X224734286Y-103462500D01*
%TO.N,PD4*%
X208774500Y-102407500D02*
X223249286Y-102407500D01*
X223249286Y-102407500D02*
X224734286Y-100922500D01*
X207204500Y-100837500D02*
X208774500Y-102407500D01*
%TO.N,PA7*%
X218679286Y-92327500D02*
X224734286Y-98382500D01*
X209420000Y-92707500D02*
X209800000Y-92327500D01*
X209800000Y-92327500D02*
X218679286Y-92327500D01*
%TO.N,PA6*%
X220439286Y-91547500D02*
X224734286Y-95842500D01*
X209270000Y-91547500D02*
X220439286Y-91547500D01*
X208470000Y-92347500D02*
X209270000Y-91547500D01*
%TO.N,PA5*%
X223515000Y-93302500D02*
X224734286Y-93302500D01*
X221050000Y-90837500D02*
X223515000Y-93302500D01*
X208810000Y-90837500D02*
X221050000Y-90837500D01*
X208430000Y-91217500D02*
X208810000Y-90837500D01*
%TO.N,+3V3*%
X222015000Y-90762500D02*
X224734286Y-90762500D01*
X221490000Y-90237500D02*
X222015000Y-90762500D01*
X207370000Y-90237500D02*
X221490000Y-90237500D01*
X206360000Y-91247500D02*
X207370000Y-90237500D01*
X204550000Y-91247500D02*
X206360000Y-91247500D01*
%TO.N,UART_RX*%
X206480000Y-97101331D02*
X206480000Y-104117500D01*
X205381145Y-96002476D02*
X206480000Y-97101331D01*
%TO.N,UART_TX*%
X201730000Y-106517500D02*
X202610000Y-107397500D01*
X203000000Y-96777500D02*
X201730000Y-98047500D01*
X201730000Y-98047500D02*
X201730000Y-106517500D01*
X204750000Y-96777500D02*
X203000000Y-96777500D01*
%TO.N,PDI_DATA*%
X195230000Y-85107500D02*
X195230000Y-82747500D01*
X196810000Y-86687500D02*
X195230000Y-85107500D01*
X198400000Y-86687500D02*
X196810000Y-86687500D01*
X199570000Y-87857500D02*
X198400000Y-86687500D01*
%TO.N,+3V3*%
X203780000Y-85017500D02*
X200350000Y-81587500D01*
X206090000Y-85017500D02*
X203780000Y-85017500D01*
%TO.N,ADC_OUT*%
X222260000Y-79367500D02*
X220700000Y-77807500D01*
X222260000Y-81357500D02*
X222260000Y-79367500D01*
X222260000Y-88217500D02*
X222260000Y-81357500D01*
X209460000Y-89637500D02*
X220840000Y-89637500D01*
X208680000Y-88857500D02*
X209460000Y-89637500D01*
X204490000Y-88027500D02*
X207850000Y-88027500D01*
X220840000Y-89637500D02*
X222260000Y-88217500D01*
X207850000Y-88027500D02*
X208680000Y-88857500D01*
%TO.N,DAC_OUT*%
X221450000Y-87827500D02*
X221450000Y-85087500D01*
X209890000Y-88977500D02*
X220300000Y-88977500D01*
X220300000Y-88977500D02*
X221450000Y-87827500D01*
X203870000Y-87247500D02*
X208160000Y-87247500D01*
X208160000Y-87247500D02*
X209890000Y-88977500D01*
X203400000Y-87717500D02*
X203870000Y-87247500D01*
%TO.N,Net-(C3-Pad1)*%
X218270000Y-81077500D02*
X220470000Y-83277500D01*
X220470000Y-83277500D02*
X220470000Y-87207500D01*
%TO.N,VOUT*%
X210080000Y-74647500D02*
X208210000Y-76517500D01*
X208210000Y-76517500D02*
X208210000Y-83407500D01*
%TO.N,Net-(Q1-Pad1)*%
X216380000Y-70617500D02*
X214430000Y-72567500D01*
X214430000Y-72567500D02*
X209430000Y-72567500D01*
%TO.N,VDC*%
X209500000Y-78217500D02*
X209990000Y-77727500D01*
X209500000Y-83783000D02*
X209500000Y-78217500D01*
%TO.N,Net-(C3-Pad2)*%
X215080000Y-84507500D02*
X207250000Y-84507500D01*
X207250000Y-84507500D02*
X207060000Y-84317500D01*
%TO.N,Net-(C4-Pad1)*%
X204280000Y-121327500D02*
X206020000Y-123067500D01*
X204280000Y-120087500D02*
X204280000Y-121327500D01*
%TO.N,+5V*%
X208940000Y-110727500D02*
X209110000Y-110557500D01*
X208940000Y-112357500D02*
X208940000Y-110727500D01*
%TO.N,+3.3VP*%
X202740000Y-106357500D02*
X202710000Y-106357500D01*
X205160000Y-108777500D02*
X202740000Y-106357500D01*
%TD*%
%TA.AperFunction,Conductor*%
%TO.N,GND*%
G36*
X222257665Y-57067889D02*
G01*
X222257829Y-57067889D01*
X222270000Y-57070310D01*
X222282172Y-57067889D01*
X222293758Y-57067889D01*
X222305005Y-57067029D01*
X222678885Y-57083352D01*
X222689836Y-57084310D01*
X223090161Y-57137015D01*
X223100985Y-57138924D01*
X223495183Y-57226315D01*
X223505800Y-57229160D01*
X223890892Y-57350578D01*
X223901205Y-57354331D01*
X224274271Y-57508861D01*
X224284216Y-57513499D01*
X224598346Y-57677024D01*
X224642367Y-57699940D01*
X224651887Y-57705436D01*
X224992424Y-57922383D01*
X225001428Y-57928687D01*
X225321775Y-58174497D01*
X225330195Y-58181563D01*
X225627883Y-58454344D01*
X225635656Y-58462117D01*
X225908437Y-58759805D01*
X225915503Y-58768225D01*
X226161313Y-59088572D01*
X226167617Y-59097576D01*
X226384564Y-59438113D01*
X226390060Y-59447633D01*
X226576497Y-59805775D01*
X226581139Y-59815729D01*
X226735666Y-60188787D01*
X226739422Y-60199108D01*
X226835041Y-60502375D01*
X226860840Y-60584199D01*
X226863685Y-60594817D01*
X226951076Y-60989015D01*
X226952985Y-60999839D01*
X227005690Y-61400164D01*
X227006648Y-61411115D01*
X227022971Y-61784995D01*
X227022111Y-61796242D01*
X227022111Y-61807828D01*
X227019690Y-61820000D01*
X227022111Y-61832171D01*
X227022111Y-61832335D01*
X227024500Y-61856592D01*
X227024500Y-125783408D01*
X227022111Y-125807665D01*
X227022111Y-125807829D01*
X227019690Y-125820000D01*
X227022111Y-125832172D01*
X227022111Y-125843758D01*
X227022971Y-125855005D01*
X227006648Y-126228885D01*
X227005690Y-126239836D01*
X226952985Y-126640161D01*
X226951076Y-126650985D01*
X226863685Y-127045183D01*
X226860840Y-127055801D01*
X226739425Y-127440884D01*
X226735669Y-127451205D01*
X226585407Y-127813970D01*
X226581143Y-127824263D01*
X226576501Y-127834216D01*
X226419900Y-128135044D01*
X226390060Y-128192367D01*
X226384564Y-128201887D01*
X226167617Y-128542424D01*
X226161313Y-128551428D01*
X225915503Y-128871775D01*
X225908439Y-128880192D01*
X225676051Y-129133800D01*
X225635656Y-129177883D01*
X225627887Y-129185652D01*
X225590939Y-129219509D01*
X225330195Y-129458437D01*
X225321778Y-129465500D01*
X225233218Y-129533455D01*
X225001428Y-129711313D01*
X224992424Y-129717617D01*
X224651887Y-129934564D01*
X224642368Y-129940059D01*
X224284216Y-130126501D01*
X224274271Y-130131139D01*
X223901205Y-130285669D01*
X223890892Y-130289422D01*
X223505801Y-130410840D01*
X223495183Y-130413685D01*
X223100985Y-130501076D01*
X223090161Y-130502985D01*
X222689836Y-130555690D01*
X222678885Y-130556648D01*
X222305005Y-130572971D01*
X222293758Y-130572111D01*
X222282172Y-130572111D01*
X222270000Y-130569690D01*
X222257829Y-130572111D01*
X222257665Y-130572111D01*
X222233408Y-130574500D01*
X192306592Y-130574500D01*
X192282335Y-130572111D01*
X192282171Y-130572111D01*
X192270000Y-130569690D01*
X192257828Y-130572111D01*
X192246242Y-130572111D01*
X192234995Y-130572971D01*
X191861115Y-130556648D01*
X191850164Y-130555690D01*
X191449839Y-130502985D01*
X191439015Y-130501076D01*
X191044817Y-130413685D01*
X191034199Y-130410840D01*
X190649108Y-130289422D01*
X190638795Y-130285669D01*
X190265729Y-130131139D01*
X190255784Y-130126501D01*
X189897632Y-129940059D01*
X189888113Y-129934564D01*
X189547576Y-129717617D01*
X189538572Y-129711313D01*
X189306782Y-129533455D01*
X189218222Y-129465500D01*
X189209805Y-129458437D01*
X188949061Y-129219509D01*
X188912113Y-129185652D01*
X188904344Y-129177883D01*
X188876186Y-129147154D01*
X202045618Y-129147154D01*
X202052673Y-129157127D01*
X202083679Y-129183051D01*
X202090598Y-129188079D01*
X202315272Y-129329015D01*
X202322807Y-129333056D01*
X202564520Y-129442194D01*
X202572551Y-129445180D01*
X202826832Y-129520502D01*
X202835184Y-129522369D01*
X203097340Y-129562484D01*
X203105874Y-129563200D01*
X203371045Y-129567367D01*
X203379596Y-129566918D01*
X203642883Y-129535057D01*
X203651284Y-129533455D01*
X203907824Y-129466153D01*
X203915926Y-129463426D01*
X204160949Y-129361934D01*
X204168617Y-129358128D01*
X204397598Y-129224322D01*
X204404679Y-129219509D01*
X204484655Y-129156801D01*
X204491545Y-129147154D01*
X210045618Y-129147154D01*
X210052673Y-129157127D01*
X210083679Y-129183051D01*
X210090598Y-129188079D01*
X210315272Y-129329015D01*
X210322807Y-129333056D01*
X210564520Y-129442194D01*
X210572551Y-129445180D01*
X210826832Y-129520502D01*
X210835184Y-129522369D01*
X211097340Y-129562484D01*
X211105874Y-129563200D01*
X211371045Y-129567367D01*
X211379596Y-129566918D01*
X211642883Y-129535057D01*
X211651284Y-129533455D01*
X211907824Y-129466153D01*
X211915926Y-129463426D01*
X212160949Y-129361934D01*
X212168617Y-129358128D01*
X212397598Y-129224322D01*
X212404679Y-129219509D01*
X212484655Y-129156801D01*
X212493125Y-129144942D01*
X212486608Y-129133318D01*
X211282812Y-127929522D01*
X211268868Y-127921908D01*
X211267035Y-127922039D01*
X211260420Y-127926290D01*
X210052910Y-129133800D01*
X210045618Y-129147154D01*
X204491545Y-129147154D01*
X204493125Y-129144942D01*
X204486608Y-129133318D01*
X203282812Y-127929522D01*
X203268868Y-127921908D01*
X203267035Y-127922039D01*
X203260420Y-127926290D01*
X202052910Y-129133800D01*
X202045618Y-129147154D01*
X188876186Y-129147154D01*
X188863950Y-129133800D01*
X188631561Y-128880192D01*
X188624497Y-128871775D01*
X188378687Y-128551428D01*
X188372383Y-128542424D01*
X188155436Y-128201887D01*
X188149940Y-128192367D01*
X188120100Y-128135044D01*
X187963499Y-127834216D01*
X187958857Y-127824263D01*
X187954594Y-127813970D01*
X187841403Y-127540704D01*
X201257665Y-127540704D01*
X201272932Y-127805469D01*
X201274005Y-127813970D01*
X201325065Y-128074222D01*
X201327276Y-128082474D01*
X201413184Y-128333394D01*
X201416499Y-128341279D01*
X201535664Y-128578213D01*
X201540020Y-128585579D01*
X201669347Y-128773750D01*
X201679601Y-128782094D01*
X201693342Y-128774948D01*
X202897978Y-127570312D01*
X202904356Y-127558632D01*
X203634408Y-127558632D01*
X203634539Y-127560465D01*
X203638790Y-127567080D01*
X204845730Y-128774020D01*
X204857939Y-128780687D01*
X204869439Y-128771997D01*
X204966831Y-128639413D01*
X204971418Y-128632185D01*
X205097962Y-128399121D01*
X205101530Y-128391327D01*
X205195271Y-128143250D01*
X205197748Y-128135044D01*
X205256954Y-127876538D01*
X205258294Y-127868077D01*
X205282031Y-127602116D01*
X205282277Y-127597177D01*
X205282666Y-127559985D01*
X205282523Y-127555019D01*
X205281547Y-127540704D01*
X209257665Y-127540704D01*
X209272932Y-127805469D01*
X209274005Y-127813970D01*
X209325065Y-128074222D01*
X209327276Y-128082474D01*
X209413184Y-128333394D01*
X209416499Y-128341279D01*
X209535664Y-128578213D01*
X209540020Y-128585579D01*
X209669347Y-128773750D01*
X209679601Y-128782094D01*
X209693342Y-128774948D01*
X210897978Y-127570312D01*
X210904356Y-127558632D01*
X211634408Y-127558632D01*
X211634539Y-127560465D01*
X211638790Y-127567080D01*
X212845730Y-128774020D01*
X212857939Y-128780687D01*
X212869439Y-128771997D01*
X212966831Y-128639413D01*
X212971418Y-128632185D01*
X213097962Y-128399121D01*
X213101530Y-128391327D01*
X213195271Y-128143250D01*
X213197748Y-128135044D01*
X213256954Y-127876538D01*
X213258294Y-127868077D01*
X213282031Y-127602116D01*
X213282277Y-127597177D01*
X213282666Y-127559985D01*
X213282523Y-127555019D01*
X213264362Y-127288623D01*
X213263201Y-127280149D01*
X213209419Y-127020444D01*
X213207120Y-127012209D01*
X213118588Y-126762205D01*
X213115191Y-126754354D01*
X212993550Y-126518678D01*
X212989122Y-126511366D01*
X212870031Y-126341917D01*
X212859509Y-126333537D01*
X212846121Y-126340589D01*
X211642022Y-127544688D01*
X211634408Y-127558632D01*
X210904356Y-127558632D01*
X210905592Y-127556368D01*
X210905461Y-127554535D01*
X210901210Y-127547920D01*
X209693814Y-126340524D01*
X209681804Y-126333966D01*
X209670064Y-126342934D01*
X209561935Y-126493411D01*
X209557418Y-126500696D01*
X209433325Y-126735067D01*
X209429839Y-126742895D01*
X209338700Y-126991946D01*
X209336311Y-127000170D01*
X209279812Y-127259295D01*
X209278563Y-127267750D01*
X209257754Y-127532153D01*
X209257665Y-127540704D01*
X205281547Y-127540704D01*
X205264362Y-127288623D01*
X205263201Y-127280149D01*
X205209419Y-127020444D01*
X205207120Y-127012209D01*
X205118588Y-126762205D01*
X205115191Y-126754354D01*
X204993550Y-126518678D01*
X204989122Y-126511366D01*
X204870031Y-126341917D01*
X204859509Y-126333537D01*
X204846121Y-126340589D01*
X203642022Y-127544688D01*
X203634408Y-127558632D01*
X202904356Y-127558632D01*
X202905592Y-127556368D01*
X202905461Y-127554535D01*
X202901210Y-127547920D01*
X201693814Y-126340524D01*
X201681804Y-126333966D01*
X201670064Y-126342934D01*
X201561935Y-126493411D01*
X201557418Y-126500696D01*
X201433325Y-126735067D01*
X201429839Y-126742895D01*
X201338700Y-126991946D01*
X201336311Y-127000170D01*
X201279812Y-127259295D01*
X201278563Y-127267750D01*
X201257754Y-127532153D01*
X201257665Y-127540704D01*
X187841403Y-127540704D01*
X187804331Y-127451205D01*
X187800575Y-127440884D01*
X187679160Y-127055801D01*
X187676315Y-127045183D01*
X187588924Y-126650985D01*
X187587015Y-126640161D01*
X187534310Y-126239836D01*
X187533352Y-126228885D01*
X187522049Y-125970000D01*
X202046584Y-125970000D01*
X202052980Y-125981270D01*
X203257188Y-127185478D01*
X203271132Y-127193092D01*
X203272965Y-127192961D01*
X203279580Y-127188710D01*
X204486604Y-125981686D01*
X204492985Y-125970000D01*
X210046584Y-125970000D01*
X210052980Y-125981270D01*
X211257188Y-127185478D01*
X211271132Y-127193092D01*
X211272965Y-127192961D01*
X211279580Y-127188710D01*
X212486604Y-125981686D01*
X212493795Y-125968517D01*
X212486473Y-125958280D01*
X212439233Y-125919615D01*
X212432261Y-125914660D01*
X212206122Y-125776082D01*
X212198552Y-125772124D01*
X211955704Y-125665522D01*
X211947644Y-125662620D01*
X211692592Y-125589967D01*
X211684214Y-125588185D01*
X211421656Y-125550818D01*
X211413111Y-125550191D01*
X211147908Y-125548802D01*
X211139374Y-125549339D01*
X210876433Y-125583956D01*
X210868035Y-125585649D01*
X210612238Y-125655627D01*
X210604143Y-125658446D01*
X210360199Y-125762497D01*
X210352577Y-125766381D01*
X210125013Y-125902575D01*
X210117981Y-125907462D01*
X210055053Y-125957877D01*
X210046584Y-125970000D01*
X204492985Y-125970000D01*
X204493795Y-125968517D01*
X204486473Y-125958280D01*
X204439233Y-125919615D01*
X204432261Y-125914660D01*
X204206122Y-125776082D01*
X204198552Y-125772124D01*
X203955704Y-125665522D01*
X203947644Y-125662620D01*
X203692592Y-125589967D01*
X203684214Y-125588185D01*
X203421656Y-125550818D01*
X203413111Y-125550191D01*
X203147908Y-125548802D01*
X203139374Y-125549339D01*
X202876433Y-125583956D01*
X202868035Y-125585649D01*
X202612238Y-125655627D01*
X202604143Y-125658446D01*
X202360199Y-125762497D01*
X202352577Y-125766381D01*
X202125013Y-125902575D01*
X202117981Y-125907462D01*
X202055053Y-125957877D01*
X202046584Y-125970000D01*
X187522049Y-125970000D01*
X187517029Y-125855005D01*
X187517889Y-125843758D01*
X187517889Y-125832172D01*
X187520310Y-125820000D01*
X187517889Y-125807829D01*
X187517889Y-125807665D01*
X187515500Y-125783408D01*
X187515500Y-123761883D01*
X189420699Y-123761883D01*
X189421682Y-123786907D01*
X189430960Y-124023032D01*
X189443682Y-124092690D01*
X189462421Y-124195295D01*
X189477914Y-124280130D01*
X189560625Y-124528046D01*
X189677443Y-124761836D01*
X189826037Y-124976833D01*
X189829059Y-124980102D01*
X189999951Y-125164972D01*
X190003441Y-125168748D01*
X190006895Y-125171560D01*
X190202660Y-125330938D01*
X190202664Y-125330941D01*
X190206117Y-125333752D01*
X190430020Y-125468553D01*
X190434115Y-125470287D01*
X190434117Y-125470288D01*
X190666582Y-125568724D01*
X190666589Y-125568726D01*
X190670683Y-125570460D01*
X190923304Y-125637442D01*
X190927728Y-125637966D01*
X190927730Y-125637966D01*
X191031445Y-125650241D01*
X191182843Y-125668160D01*
X191444121Y-125662003D01*
X191588532Y-125637966D01*
X191697534Y-125619823D01*
X191697538Y-125619822D01*
X191701924Y-125619092D01*
X191706165Y-125617751D01*
X191706168Y-125617750D01*
X191946863Y-125541628D01*
X191946865Y-125541627D01*
X191951109Y-125540285D01*
X191955120Y-125538359D01*
X191955125Y-125538357D01*
X192182686Y-125429084D01*
X192182687Y-125429083D01*
X192186705Y-125427154D01*
X192326491Y-125333752D01*
X192400301Y-125284434D01*
X192400305Y-125284431D01*
X192404009Y-125281956D01*
X192407326Y-125278985D01*
X192407330Y-125278982D01*
X192595371Y-125110558D01*
X192598687Y-125107588D01*
X192766855Y-124907529D01*
X192905156Y-124685770D01*
X193010831Y-124446738D01*
X193077420Y-124210630D01*
X207741700Y-124210630D01*
X207746981Y-124217684D01*
X207915919Y-124316404D01*
X207925202Y-124320851D01*
X208128002Y-124398293D01*
X208137900Y-124401169D01*
X208350625Y-124444448D01*
X208360853Y-124445667D01*
X208577788Y-124453622D01*
X208588074Y-124453155D01*
X208803400Y-124425572D01*
X208813477Y-124423430D01*
X209021401Y-124361049D01*
X209030999Y-124357288D01*
X209225947Y-124261784D01*
X209234785Y-124256515D01*
X209287172Y-124219148D01*
X209295572Y-124208448D01*
X209288585Y-124195295D01*
X208532812Y-123439522D01*
X208518868Y-123431908D01*
X208517035Y-123432039D01*
X208510420Y-123436290D01*
X207748460Y-124198250D01*
X207741700Y-124210630D01*
X193077420Y-124210630D01*
X193081772Y-124195200D01*
X193095541Y-124092690D01*
X193116136Y-123939358D01*
X193116137Y-123939350D01*
X193116563Y-123936176D01*
X193119690Y-123836678D01*
X193120113Y-123823222D01*
X193120113Y-123823217D01*
X193120214Y-123820000D01*
X193101756Y-123559303D01*
X193046749Y-123303807D01*
X193026580Y-123249135D01*
X192957832Y-123062787D01*
X192956291Y-123058610D01*
X192832187Y-122828606D01*
X192676914Y-122618382D01*
X192493568Y-122432134D01*
X192490029Y-122429433D01*
X192490022Y-122429427D01*
X192289355Y-122276283D01*
X192289351Y-122276280D01*
X192285810Y-122273578D01*
X192057783Y-122145876D01*
X192053630Y-122144269D01*
X192053625Y-122144267D01*
X191818193Y-122053185D01*
X191818187Y-122053183D01*
X191814038Y-122051578D01*
X191809706Y-122050574D01*
X191809703Y-122050573D01*
X191705156Y-122026341D01*
X191559437Y-121992565D01*
X191299062Y-121970014D01*
X191294627Y-121970258D01*
X191294623Y-121970258D01*
X191042550Y-121984130D01*
X191042543Y-121984131D01*
X191038107Y-121984375D01*
X190781778Y-122035362D01*
X190535191Y-122121958D01*
X190531240Y-122124011D01*
X190531234Y-122124013D01*
X190417347Y-122183173D01*
X190303266Y-122242433D01*
X190299651Y-122245016D01*
X190299645Y-122245020D01*
X190195910Y-122319151D01*
X190090629Y-122394386D01*
X190087409Y-122397458D01*
X189960866Y-122518174D01*
X189901524Y-122574783D01*
X189898768Y-122578278D01*
X189898767Y-122578280D01*
X189803828Y-122698710D01*
X189739724Y-122780025D01*
X189680625Y-122881771D01*
X189610691Y-123002171D01*
X189610688Y-123002177D01*
X189608457Y-123006018D01*
X189606787Y-123010141D01*
X189595486Y-123038043D01*
X189510342Y-123248252D01*
X189447337Y-123501894D01*
X189446883Y-123506327D01*
X189428227Y-123688414D01*
X189420699Y-123761883D01*
X187515500Y-123761883D01*
X187515500Y-120080691D01*
X203629795Y-120080691D01*
X203646939Y-120235983D01*
X203700631Y-120382703D01*
X203787771Y-120512381D01*
X203793383Y-120517488D01*
X203793386Y-120517491D01*
X203868300Y-120585657D01*
X203905222Y-120646297D01*
X203909500Y-120678850D01*
X203909500Y-121274536D01*
X203907109Y-121297005D01*
X203906985Y-121299627D01*
X203904794Y-121309806D01*
X203906018Y-121320145D01*
X203908627Y-121342192D01*
X203908964Y-121347909D01*
X203909072Y-121347900D01*
X203909500Y-121353081D01*
X203909500Y-121358278D01*
X203910352Y-121363398D01*
X203910353Y-121363406D01*
X203912581Y-121376787D01*
X203913418Y-121382669D01*
X203919291Y-121432295D01*
X203923162Y-121440356D01*
X203924629Y-121449171D01*
X203948362Y-121493156D01*
X203951043Y-121498419D01*
X203969251Y-121536338D01*
X203969255Y-121536344D01*
X203972684Y-121543485D01*
X203976189Y-121547655D01*
X203978114Y-121549580D01*
X203979796Y-121551414D01*
X203979907Y-121551619D01*
X203979815Y-121551703D01*
X203980169Y-121552105D01*
X203983200Y-121557722D01*
X203990848Y-121564792D01*
X203990849Y-121564793D01*
X204021808Y-121593411D01*
X204025374Y-121596840D01*
X204946708Y-122518174D01*
X204980734Y-122580486D01*
X204977946Y-122644633D01*
X204927498Y-122807107D01*
X204919291Y-122833537D01*
X204895086Y-123038043D01*
X204908554Y-123243536D01*
X204959246Y-123443133D01*
X204961663Y-123448375D01*
X204961663Y-123448376D01*
X205023723Y-123582995D01*
X205045462Y-123630150D01*
X205048795Y-123634866D01*
X205141708Y-123766335D01*
X205164315Y-123798324D01*
X205311826Y-123942022D01*
X205483053Y-124056433D01*
X205488356Y-124058711D01*
X205488359Y-124058713D01*
X205666956Y-124135444D01*
X205672263Y-124137724D01*
X205746385Y-124154496D01*
X205867482Y-124181898D01*
X205867488Y-124181899D01*
X205873119Y-124183173D01*
X205878890Y-124183400D01*
X205878892Y-124183400D01*
X205941224Y-124185849D01*
X206078894Y-124191258D01*
X206180795Y-124176483D01*
X206276982Y-124162537D01*
X206276987Y-124162536D01*
X206282696Y-124161708D01*
X206288160Y-124159853D01*
X206288165Y-124159852D01*
X206472229Y-124097371D01*
X206472234Y-124097369D01*
X206477701Y-124095513D01*
X206553215Y-124053223D01*
X206652339Y-123997711D01*
X206652343Y-123997708D01*
X206657377Y-123994889D01*
X206815707Y-123863207D01*
X206947389Y-123704877D01*
X206950210Y-123699840D01*
X206950214Y-123699834D01*
X207015647Y-123582995D01*
X207066384Y-123533333D01*
X207135915Y-123518986D01*
X207202166Y-123544507D01*
X207242324Y-123597157D01*
X207279379Y-123688414D01*
X207284022Y-123697605D01*
X207368279Y-123835101D01*
X207378735Y-123844561D01*
X207387513Y-123840777D01*
X208147978Y-123080312D01*
X208154356Y-123068632D01*
X208884408Y-123068632D01*
X208884539Y-123070465D01*
X208888790Y-123077080D01*
X209648388Y-123836678D01*
X209660398Y-123843236D01*
X209672138Y-123834268D01*
X209706507Y-123786440D01*
X209711816Y-123777603D01*
X209719585Y-123761883D01*
X221420699Y-123761883D01*
X221421682Y-123786907D01*
X221430960Y-124023032D01*
X221443682Y-124092690D01*
X221462421Y-124195295D01*
X221477914Y-124280130D01*
X221560625Y-124528046D01*
X221677443Y-124761836D01*
X221826037Y-124976833D01*
X221829059Y-124980102D01*
X221999951Y-125164972D01*
X222003441Y-125168748D01*
X222006895Y-125171560D01*
X222202660Y-125330938D01*
X222202664Y-125330941D01*
X222206117Y-125333752D01*
X222430020Y-125468553D01*
X222434115Y-125470287D01*
X222434117Y-125470288D01*
X222666582Y-125568724D01*
X222666589Y-125568726D01*
X222670683Y-125570460D01*
X222923304Y-125637442D01*
X222927728Y-125637966D01*
X222927730Y-125637966D01*
X223031445Y-125650241D01*
X223182843Y-125668160D01*
X223444121Y-125662003D01*
X223588532Y-125637966D01*
X223697534Y-125619823D01*
X223697538Y-125619822D01*
X223701924Y-125619092D01*
X223706165Y-125617751D01*
X223706168Y-125617750D01*
X223946863Y-125541628D01*
X223946865Y-125541627D01*
X223951109Y-125540285D01*
X223955120Y-125538359D01*
X223955125Y-125538357D01*
X224182686Y-125429084D01*
X224182687Y-125429083D01*
X224186705Y-125427154D01*
X224326491Y-125333752D01*
X224400301Y-125284434D01*
X224400305Y-125284431D01*
X224404009Y-125281956D01*
X224407326Y-125278985D01*
X224407330Y-125278982D01*
X224595371Y-125110558D01*
X224598687Y-125107588D01*
X224766855Y-124907529D01*
X224905156Y-124685770D01*
X225010831Y-124446738D01*
X225081772Y-124195200D01*
X225095541Y-124092690D01*
X225116136Y-123939358D01*
X225116137Y-123939350D01*
X225116563Y-123936176D01*
X225119690Y-123836678D01*
X225120113Y-123823222D01*
X225120113Y-123823217D01*
X225120214Y-123820000D01*
X225101756Y-123559303D01*
X225046749Y-123303807D01*
X225026580Y-123249135D01*
X224957832Y-123062787D01*
X224956291Y-123058610D01*
X224832187Y-122828606D01*
X224676914Y-122618382D01*
X224493568Y-122432134D01*
X224490029Y-122429433D01*
X224490022Y-122429427D01*
X224289355Y-122276283D01*
X224289351Y-122276280D01*
X224285810Y-122273578D01*
X224057783Y-122145876D01*
X224053630Y-122144269D01*
X224053625Y-122144267D01*
X223818193Y-122053185D01*
X223818187Y-122053183D01*
X223814038Y-122051578D01*
X223809706Y-122050574D01*
X223809703Y-122050573D01*
X223705156Y-122026341D01*
X223559437Y-121992565D01*
X223299062Y-121970014D01*
X223294627Y-121970258D01*
X223294623Y-121970258D01*
X223042550Y-121984130D01*
X223042543Y-121984131D01*
X223038107Y-121984375D01*
X222781778Y-122035362D01*
X222535191Y-122121958D01*
X222531240Y-122124011D01*
X222531234Y-122124013D01*
X222417347Y-122183173D01*
X222303266Y-122242433D01*
X222299651Y-122245016D01*
X222299645Y-122245020D01*
X222195910Y-122319151D01*
X222090629Y-122394386D01*
X222087409Y-122397458D01*
X221960866Y-122518174D01*
X221901524Y-122574783D01*
X221898768Y-122578278D01*
X221898767Y-122578280D01*
X221803828Y-122698710D01*
X221739724Y-122780025D01*
X221680625Y-122881771D01*
X221610691Y-123002171D01*
X221610688Y-123002177D01*
X221608457Y-123006018D01*
X221606787Y-123010141D01*
X221595486Y-123038043D01*
X221510342Y-123248252D01*
X221447337Y-123501894D01*
X221446883Y-123506327D01*
X221428227Y-123688414D01*
X221420699Y-123761883D01*
X209719585Y-123761883D01*
X209807994Y-123583003D01*
X209811792Y-123573410D01*
X209874897Y-123365708D01*
X209877074Y-123355638D01*
X209905646Y-123138613D01*
X209906165Y-123131938D01*
X209907658Y-123070864D01*
X209907464Y-123064146D01*
X209889530Y-122846007D01*
X209887845Y-122835827D01*
X209834962Y-122625291D01*
X209831642Y-122615540D01*
X209745080Y-122416459D01*
X209740213Y-122407384D01*
X209671144Y-122300618D01*
X209660458Y-122291415D01*
X209650891Y-122295819D01*
X208892022Y-123054688D01*
X208884408Y-123068632D01*
X208154356Y-123068632D01*
X208155592Y-123066368D01*
X208155461Y-123064535D01*
X208151210Y-123057920D01*
X207391858Y-122298568D01*
X207380322Y-122292268D01*
X207368039Y-122301891D01*
X207316279Y-122377768D01*
X207311191Y-122386724D01*
X207239009Y-122542229D01*
X207192185Y-122595596D01*
X207123942Y-122615177D01*
X207055946Y-122594754D01*
X207011715Y-122544907D01*
X207010395Y-122542229D01*
X206990741Y-122502375D01*
X206982031Y-122484712D01*
X206982028Y-122484708D01*
X206979476Y-122479532D01*
X206973487Y-122471511D01*
X206859714Y-122319151D01*
X206859713Y-122319150D01*
X206856261Y-122314527D01*
X206705039Y-122174739D01*
X206700157Y-122171658D01*
X206695570Y-122168139D01*
X206696569Y-122166837D01*
X206654707Y-122119332D01*
X206644017Y-122049145D01*
X206672970Y-121984320D01*
X206688311Y-121969161D01*
X206725299Y-121938399D01*
X206815707Y-121863207D01*
X206947389Y-121704877D01*
X206950208Y-121699843D01*
X206950211Y-121699839D01*
X207045190Y-121530242D01*
X207045190Y-121530241D01*
X207048013Y-121525201D01*
X207049869Y-121519734D01*
X207049871Y-121519729D01*
X207112352Y-121335665D01*
X207112353Y-121335660D01*
X207114208Y-121330196D01*
X207115036Y-121324487D01*
X207115037Y-121324482D01*
X207132885Y-121201386D01*
X207143758Y-121126394D01*
X207145216Y-121070708D01*
X207146416Y-121066985D01*
X207144001Y-121053366D01*
X207143605Y-121049056D01*
X207394165Y-121049056D01*
X207396903Y-121065766D01*
X207408554Y-121243536D01*
X207409976Y-121249135D01*
X207457808Y-121437469D01*
X207459246Y-121443133D01*
X207545462Y-121630150D01*
X207548795Y-121634866D01*
X207598274Y-121704877D01*
X207664315Y-121798324D01*
X207703952Y-121836936D01*
X207738788Y-121898794D01*
X207740530Y-121920885D01*
X207750109Y-121938399D01*
X208507188Y-122695478D01*
X208521132Y-122703092D01*
X208522965Y-122702961D01*
X208529580Y-122698710D01*
X209291190Y-121937100D01*
X209305572Y-121910762D01*
X209314903Y-121867868D01*
X209328612Y-121847691D01*
X209447389Y-121704877D01*
X209450208Y-121699843D01*
X209450211Y-121699839D01*
X209545190Y-121530242D01*
X209545190Y-121530241D01*
X209548013Y-121525201D01*
X209549869Y-121519734D01*
X209549871Y-121519729D01*
X209612352Y-121335665D01*
X209612353Y-121335660D01*
X209614208Y-121330196D01*
X209615036Y-121324487D01*
X209615037Y-121324482D01*
X209632885Y-121201386D01*
X209643758Y-121126394D01*
X209645300Y-121067500D01*
X209626457Y-120862430D01*
X209574682Y-120678850D01*
X209572126Y-120669788D01*
X209572125Y-120669786D01*
X209570558Y-120664229D01*
X209559786Y-120642384D01*
X209482031Y-120484713D01*
X209479476Y-120479532D01*
X209426038Y-120407969D01*
X209359714Y-120319151D01*
X209359713Y-120319150D01*
X209356261Y-120314527D01*
X209205039Y-120174739D01*
X209200156Y-120171658D01*
X209035756Y-120067929D01*
X209030876Y-120064850D01*
X208839602Y-119988540D01*
X208833945Y-119987415D01*
X208833939Y-119987413D01*
X208643294Y-119949492D01*
X208643290Y-119949492D01*
X208637626Y-119948365D01*
X208631851Y-119948289D01*
X208631847Y-119948289D01*
X208528659Y-119946938D01*
X208431710Y-119945669D01*
X208426013Y-119946648D01*
X208426012Y-119946648D01*
X208234448Y-119979565D01*
X208228751Y-119980544D01*
X208035546Y-120051821D01*
X207858565Y-120157113D01*
X207854225Y-120160919D01*
X207854221Y-120160922D01*
X207777239Y-120228434D01*
X207703736Y-120292895D01*
X207576244Y-120454618D01*
X207480358Y-120636866D01*
X207419291Y-120833537D01*
X207395086Y-121038043D01*
X207395464Y-121043807D01*
X207395429Y-121045134D01*
X207394165Y-121049056D01*
X207143605Y-121049056D01*
X207126986Y-120868184D01*
X207126985Y-120868181D01*
X207126457Y-120862430D01*
X207074682Y-120678850D01*
X207072126Y-120669788D01*
X207072125Y-120669786D01*
X207070558Y-120664229D01*
X207059786Y-120642384D01*
X206982031Y-120484713D01*
X206979476Y-120479532D01*
X206926038Y-120407969D01*
X206859714Y-120319151D01*
X206859713Y-120319150D01*
X206856261Y-120314527D01*
X206705039Y-120174739D01*
X206700156Y-120171658D01*
X206535756Y-120067929D01*
X206530876Y-120064850D01*
X206339602Y-119988540D01*
X206333945Y-119987415D01*
X206333939Y-119987413D01*
X206143294Y-119949492D01*
X206143290Y-119949492D01*
X206137626Y-119948365D01*
X206131851Y-119948289D01*
X206131847Y-119948289D01*
X206028659Y-119946938D01*
X205931710Y-119945669D01*
X205926013Y-119946648D01*
X205926012Y-119946648D01*
X205734448Y-119979565D01*
X205728751Y-119980544D01*
X205535546Y-120051821D01*
X205358565Y-120157113D01*
X205354225Y-120160919D01*
X205354221Y-120160922D01*
X205277239Y-120228434D01*
X205203736Y-120292895D01*
X205200161Y-120297430D01*
X205200160Y-120297431D01*
X205113019Y-120407969D01*
X205055138Y-120449082D01*
X204984218Y-120452376D01*
X204922775Y-120416804D01*
X204890318Y-120353661D01*
X204897162Y-120282967D01*
X204905251Y-120262845D01*
X204905251Y-120262844D01*
X204908085Y-120255795D01*
X204930098Y-120101118D01*
X204930241Y-120087500D01*
X204913540Y-119949492D01*
X204912384Y-119939939D01*
X204912384Y-119939938D01*
X204911471Y-119932396D01*
X204856246Y-119786246D01*
X204851947Y-119779991D01*
X204851945Y-119779987D01*
X204772055Y-119663747D01*
X204772054Y-119663745D01*
X204767753Y-119657488D01*
X204756444Y-119647412D01*
X204656773Y-119558608D01*
X204656770Y-119558606D01*
X204651101Y-119553555D01*
X204644387Y-119550000D01*
X204519741Y-119484003D01*
X204519738Y-119484002D01*
X204513026Y-119480448D01*
X204361497Y-119442386D01*
X204353899Y-119442346D01*
X204353897Y-119442346D01*
X204288319Y-119442003D01*
X204205263Y-119441568D01*
X204197883Y-119443340D01*
X204197881Y-119443340D01*
X204124165Y-119461038D01*
X204053344Y-119478041D01*
X203914510Y-119549698D01*
X203796777Y-119652404D01*
X203706940Y-119780228D01*
X203650188Y-119925792D01*
X203647571Y-119945669D01*
X203631881Y-120064850D01*
X203629795Y-120080691D01*
X187515500Y-120080691D01*
X187515500Y-112350691D01*
X208289795Y-112350691D01*
X208306939Y-112505983D01*
X208360631Y-112652703D01*
X208447771Y-112782381D01*
X208453383Y-112787488D01*
X208453386Y-112787491D01*
X208557707Y-112882416D01*
X208557711Y-112882419D01*
X208563328Y-112887530D01*
X208570005Y-112891155D01*
X208570006Y-112891156D01*
X208693953Y-112958454D01*
X208693955Y-112958455D01*
X208700630Y-112962079D01*
X208707979Y-112964007D01*
X208844402Y-112999797D01*
X208844404Y-112999797D01*
X208851752Y-113001725D01*
X208934424Y-113003024D01*
X209000372Y-113004060D01*
X209000375Y-113004060D01*
X209007969Y-113004179D01*
X209061560Y-112991905D01*
X209152858Y-112970995D01*
X209152862Y-112970994D01*
X209160261Y-112969299D01*
X209299838Y-112899100D01*
X209327060Y-112875850D01*
X209412867Y-112802565D01*
X209412869Y-112802562D01*
X209418641Y-112797633D01*
X209509811Y-112670756D01*
X209517069Y-112652703D01*
X209565251Y-112532845D01*
X209565251Y-112532844D01*
X209568085Y-112525795D01*
X209590098Y-112371118D01*
X209590241Y-112357500D01*
X209571471Y-112202396D01*
X209516246Y-112056246D01*
X209511947Y-112049991D01*
X209511945Y-112049987D01*
X209432055Y-111933747D01*
X209432054Y-111933745D01*
X209427753Y-111927488D01*
X209422047Y-111922404D01*
X209352681Y-111860601D01*
X209315125Y-111800351D01*
X209310500Y-111766525D01*
X209310500Y-111256906D01*
X209330502Y-111188785D01*
X209379886Y-111144341D01*
X209420911Y-111123708D01*
X209469838Y-111099100D01*
X209497060Y-111075850D01*
X209582867Y-111002565D01*
X209582869Y-111002562D01*
X209588641Y-110997633D01*
X209679811Y-110870756D01*
X209687069Y-110852703D01*
X209735251Y-110732845D01*
X209735251Y-110732844D01*
X209738085Y-110725795D01*
X209760098Y-110571118D01*
X209760241Y-110557500D01*
X209741471Y-110402396D01*
X209686246Y-110256246D01*
X209681947Y-110249991D01*
X209681945Y-110249987D01*
X209602055Y-110133747D01*
X209602054Y-110133745D01*
X209597753Y-110127488D01*
X209506221Y-110045936D01*
X209486773Y-110028608D01*
X209486770Y-110028606D01*
X209481101Y-110023555D01*
X209474387Y-110020000D01*
X209349741Y-109954003D01*
X209349738Y-109954002D01*
X209343026Y-109950448D01*
X209191497Y-109912386D01*
X209183899Y-109912346D01*
X209183897Y-109912346D01*
X209118319Y-109912003D01*
X209035263Y-109911568D01*
X209027883Y-109913340D01*
X209027881Y-109913340D01*
X208954165Y-109931038D01*
X208883344Y-109948041D01*
X208744510Y-110019698D01*
X208626777Y-110122404D01*
X208536940Y-110250228D01*
X208480188Y-110395792D01*
X208459795Y-110550691D01*
X208476939Y-110705983D01*
X208530631Y-110852703D01*
X208548082Y-110878672D01*
X208569500Y-110948947D01*
X208569500Y-111766780D01*
X208549498Y-111834901D01*
X208526329Y-111861729D01*
X208462503Y-111917408D01*
X208462499Y-111917412D01*
X208456777Y-111922404D01*
X208366940Y-112050228D01*
X208310188Y-112195792D01*
X208289795Y-112350691D01*
X187515500Y-112350691D01*
X187515500Y-107638319D01*
X188638786Y-107638319D01*
X188638787Y-109386680D01*
X188639993Y-109392746D01*
X188639994Y-109392751D01*
X188647609Y-109431035D01*
X188653030Y-109458289D01*
X188707290Y-109539496D01*
X188788497Y-109593756D01*
X188860105Y-109608000D01*
X189734215Y-109608000D01*
X190608466Y-109607999D01*
X190614532Y-109606793D01*
X190614537Y-109606792D01*
X190652821Y-109599177D01*
X190680075Y-109593756D01*
X190761282Y-109539496D01*
X190815542Y-109458289D01*
X190829786Y-109386681D01*
X190829785Y-107638320D01*
X190828578Y-107632252D01*
X190828578Y-107632249D01*
X190817963Y-107578884D01*
X190815542Y-107566711D01*
X190761282Y-107485504D01*
X190680075Y-107431244D01*
X190608467Y-107417000D01*
X189734357Y-107417000D01*
X188860106Y-107417001D01*
X188854040Y-107418207D01*
X188854035Y-107418208D01*
X188815751Y-107425823D01*
X188788497Y-107431244D01*
X188707290Y-107485504D01*
X188653030Y-107566711D01*
X188638786Y-107638319D01*
X187515500Y-107638319D01*
X187515500Y-105943700D01*
X188634470Y-105943700D01*
X188647638Y-106144608D01*
X188658544Y-106187551D01*
X188695373Y-106332565D01*
X188697198Y-106339752D01*
X188781491Y-106522596D01*
X188897693Y-106687018D01*
X189041912Y-106827511D01*
X189046708Y-106830716D01*
X189046711Y-106830718D01*
X189158642Y-106905507D01*
X189209319Y-106939368D01*
X189214622Y-106941646D01*
X189214625Y-106941648D01*
X189372389Y-107009429D01*
X189394308Y-107018846D01*
X189590682Y-107063281D01*
X189596451Y-107063508D01*
X189596454Y-107063508D01*
X189672136Y-107066481D01*
X189791866Y-107071185D01*
X189877819Y-107058723D01*
X189985400Y-107043125D01*
X189985405Y-107043124D01*
X189991121Y-107042295D01*
X189996593Y-107040437D01*
X189996595Y-107040437D01*
X190176311Y-106979431D01*
X190176313Y-106979430D01*
X190181775Y-106977576D01*
X190357442Y-106879198D01*
X190512240Y-106750454D01*
X190640984Y-106595656D01*
X190739362Y-106419989D01*
X190756416Y-106369752D01*
X190802223Y-106234809D01*
X190802223Y-106234807D01*
X190804081Y-106229335D01*
X190804910Y-106223619D01*
X190804911Y-106223614D01*
X190827039Y-106070995D01*
X190832971Y-106030080D01*
X190834479Y-105972500D01*
X190816056Y-105772006D01*
X190813716Y-105763707D01*
X190784091Y-105658665D01*
X190761405Y-105578226D01*
X190672355Y-105397651D01*
X190597453Y-105297345D01*
X190555342Y-105240951D01*
X190555341Y-105240950D01*
X190551889Y-105236327D01*
X190504025Y-105192082D01*
X190408281Y-105103577D01*
X190408278Y-105103575D01*
X190404041Y-105099658D01*
X190233763Y-104992221D01*
X190189193Y-104974439D01*
X190121953Y-104947613D01*
X190046758Y-104917613D01*
X190041090Y-104916486D01*
X190041088Y-104916485D01*
X189854954Y-104879461D01*
X189854952Y-104879461D01*
X189849287Y-104878334D01*
X189843512Y-104878258D01*
X189843508Y-104878258D01*
X189743176Y-104876945D01*
X189647966Y-104875699D01*
X189642269Y-104876678D01*
X189642268Y-104876678D01*
X189455232Y-104908816D01*
X189455231Y-104908816D01*
X189449535Y-104909795D01*
X189260641Y-104979482D01*
X189255680Y-104982434D01*
X189255679Y-104982434D01*
X189178051Y-105028618D01*
X189087609Y-105082425D01*
X188936234Y-105215177D01*
X188811587Y-105373292D01*
X188808898Y-105378403D01*
X188808896Y-105378406D01*
X188770865Y-105450691D01*
X188717840Y-105551474D01*
X188658135Y-105743757D01*
X188634470Y-105943700D01*
X187515500Y-105943700D01*
X187515500Y-103403700D01*
X188634470Y-103403700D01*
X188647638Y-103604608D01*
X188649061Y-103610210D01*
X188683610Y-103746247D01*
X188697198Y-103799752D01*
X188781491Y-103982596D01*
X188897693Y-104147018D01*
X189041912Y-104287511D01*
X189046708Y-104290716D01*
X189046711Y-104290718D01*
X189158642Y-104365507D01*
X189209319Y-104399368D01*
X189214622Y-104401646D01*
X189214625Y-104401648D01*
X189372394Y-104469431D01*
X189394308Y-104478846D01*
X189590682Y-104523281D01*
X189596451Y-104523508D01*
X189596454Y-104523508D01*
X189672136Y-104526481D01*
X189791866Y-104531185D01*
X189877819Y-104518723D01*
X189985400Y-104503125D01*
X189985405Y-104503124D01*
X189991121Y-104502295D01*
X189996593Y-104500437D01*
X189996595Y-104500437D01*
X190176311Y-104439431D01*
X190176313Y-104439430D01*
X190181775Y-104437576D01*
X190357442Y-104339198D01*
X190512240Y-104210454D01*
X190640984Y-104055656D01*
X190739362Y-103879989D01*
X190754125Y-103836501D01*
X190802223Y-103694809D01*
X190802223Y-103694807D01*
X190804081Y-103689335D01*
X190804910Y-103683619D01*
X190804911Y-103683614D01*
X190832438Y-103493754D01*
X190832971Y-103490080D01*
X190834479Y-103432500D01*
X190816056Y-103232006D01*
X190761405Y-103038226D01*
X190672355Y-102857651D01*
X190604477Y-102766751D01*
X190555342Y-102700951D01*
X190555341Y-102700950D01*
X190551889Y-102696327D01*
X190547653Y-102692411D01*
X190408281Y-102563577D01*
X190408278Y-102563575D01*
X190404041Y-102559658D01*
X190233763Y-102452221D01*
X190046758Y-102377613D01*
X190041090Y-102376486D01*
X190041088Y-102376485D01*
X189854954Y-102339461D01*
X189854952Y-102339461D01*
X189849287Y-102338334D01*
X189843512Y-102338258D01*
X189843508Y-102338258D01*
X189743176Y-102336945D01*
X189647966Y-102335699D01*
X189642269Y-102336678D01*
X189642268Y-102336678D01*
X189455232Y-102368816D01*
X189455231Y-102368816D01*
X189449535Y-102369795D01*
X189260641Y-102439482D01*
X189255680Y-102442434D01*
X189255679Y-102442434D01*
X189205254Y-102472434D01*
X189087609Y-102542425D01*
X188936234Y-102675177D01*
X188811587Y-102833292D01*
X188717840Y-103011474D01*
X188658135Y-103203757D01*
X188634470Y-103403700D01*
X187515500Y-103403700D01*
X187515500Y-100863700D01*
X188634470Y-100863700D01*
X188647638Y-101064608D01*
X188697198Y-101259752D01*
X188781491Y-101442596D01*
X188897693Y-101607018D01*
X189041912Y-101747511D01*
X189046708Y-101750716D01*
X189046711Y-101750718D01*
X189158642Y-101825507D01*
X189209319Y-101859368D01*
X189214622Y-101861646D01*
X189214625Y-101861648D01*
X189372394Y-101929431D01*
X189394308Y-101938846D01*
X189590682Y-101983281D01*
X189596451Y-101983508D01*
X189596454Y-101983508D01*
X189672136Y-101986481D01*
X189791866Y-101991185D01*
X189877819Y-101978723D01*
X189985400Y-101963125D01*
X189985405Y-101963124D01*
X189991121Y-101962295D01*
X189996593Y-101960437D01*
X189996595Y-101960437D01*
X190176311Y-101899431D01*
X190176313Y-101899430D01*
X190181775Y-101897576D01*
X190357442Y-101799198D01*
X190512240Y-101670454D01*
X190640984Y-101515656D01*
X190739362Y-101339989D01*
X190756416Y-101289752D01*
X190802223Y-101154809D01*
X190802223Y-101154807D01*
X190804081Y-101149335D01*
X190804910Y-101143619D01*
X190804911Y-101143614D01*
X190832438Y-100953754D01*
X190832971Y-100950080D01*
X190834479Y-100892500D01*
X190816056Y-100692006D01*
X190811342Y-100675289D01*
X190780829Y-100567100D01*
X190761405Y-100498226D01*
X190672355Y-100317651D01*
X190579528Y-100193340D01*
X190555342Y-100160951D01*
X190555341Y-100160950D01*
X190551889Y-100156327D01*
X190524893Y-100131372D01*
X190408281Y-100023577D01*
X190408278Y-100023575D01*
X190404041Y-100019658D01*
X190233763Y-99912221D01*
X190046758Y-99837613D01*
X190041090Y-99836486D01*
X190041088Y-99836485D01*
X189854954Y-99799461D01*
X189854952Y-99799461D01*
X189849287Y-99798334D01*
X189843512Y-99798258D01*
X189843508Y-99798258D01*
X189743176Y-99796945D01*
X189647966Y-99795699D01*
X189642269Y-99796678D01*
X189642268Y-99796678D01*
X189455232Y-99828816D01*
X189455231Y-99828816D01*
X189449535Y-99829795D01*
X189260641Y-99899482D01*
X189255680Y-99902434D01*
X189255679Y-99902434D01*
X189239229Y-99912221D01*
X189087609Y-100002425D01*
X188936234Y-100135177D01*
X188811587Y-100293292D01*
X188808898Y-100298403D01*
X188808896Y-100298406D01*
X188772625Y-100367345D01*
X188717840Y-100471474D01*
X188658135Y-100663757D01*
X188634470Y-100863700D01*
X187515500Y-100863700D01*
X187515500Y-98323700D01*
X188634470Y-98323700D01*
X188647638Y-98524608D01*
X188697198Y-98719752D01*
X188781491Y-98902596D01*
X188897693Y-99067018D01*
X189041912Y-99207511D01*
X189046708Y-99210716D01*
X189046711Y-99210718D01*
X189164166Y-99289198D01*
X189209319Y-99319368D01*
X189214622Y-99321646D01*
X189214625Y-99321648D01*
X189389001Y-99396566D01*
X189394308Y-99398846D01*
X189590682Y-99443281D01*
X189596451Y-99443508D01*
X189596454Y-99443508D01*
X189672136Y-99446481D01*
X189791866Y-99451185D01*
X189877819Y-99438723D01*
X189985400Y-99423125D01*
X189985405Y-99423124D01*
X189991121Y-99422295D01*
X189996593Y-99420437D01*
X189996595Y-99420437D01*
X190176311Y-99359431D01*
X190176313Y-99359430D01*
X190181775Y-99357576D01*
X190357442Y-99259198D01*
X190385483Y-99235877D01*
X190507802Y-99134145D01*
X190512240Y-99130454D01*
X190640984Y-98975656D01*
X190739362Y-98799989D01*
X190804081Y-98609335D01*
X190804910Y-98603619D01*
X190804911Y-98603614D01*
X190822128Y-98484863D01*
X190832971Y-98410080D01*
X190834479Y-98352500D01*
X190816056Y-98152006D01*
X190761405Y-97958226D01*
X190672355Y-97777651D01*
X190551889Y-97616327D01*
X190524893Y-97591372D01*
X190408281Y-97483577D01*
X190408278Y-97483575D01*
X190404041Y-97479658D01*
X190233763Y-97372221D01*
X190223605Y-97368168D01*
X190121953Y-97327613D01*
X190046758Y-97297613D01*
X190041090Y-97296486D01*
X190041088Y-97296485D01*
X189854954Y-97259461D01*
X189854952Y-97259461D01*
X189849287Y-97258334D01*
X189843512Y-97258258D01*
X189843508Y-97258258D01*
X189743176Y-97256945D01*
X189647966Y-97255699D01*
X189642269Y-97256678D01*
X189642268Y-97256678D01*
X189455232Y-97288816D01*
X189455231Y-97288816D01*
X189449535Y-97289795D01*
X189260641Y-97359482D01*
X189255680Y-97362434D01*
X189255679Y-97362434D01*
X189154746Y-97422483D01*
X189087609Y-97462425D01*
X188936234Y-97595177D01*
X188811587Y-97753292D01*
X188808898Y-97758403D01*
X188808896Y-97758406D01*
X188787238Y-97799571D01*
X188717840Y-97931474D01*
X188658135Y-98123757D01*
X188634470Y-98323700D01*
X187515500Y-98323700D01*
X187515500Y-95783700D01*
X188634470Y-95783700D01*
X188647638Y-95984608D01*
X188669156Y-96069335D01*
X188677495Y-96102169D01*
X188697198Y-96179752D01*
X188781491Y-96362596D01*
X188897693Y-96527018D01*
X189041912Y-96667511D01*
X189046708Y-96670716D01*
X189046711Y-96670718D01*
X189140163Y-96733160D01*
X189209319Y-96779368D01*
X189214622Y-96781646D01*
X189214625Y-96781648D01*
X189372394Y-96849431D01*
X189394308Y-96858846D01*
X189525068Y-96888434D01*
X189558430Y-96895983D01*
X189590682Y-96903281D01*
X189596451Y-96903508D01*
X189596454Y-96903508D01*
X189672136Y-96906481D01*
X189791866Y-96911185D01*
X189896715Y-96895983D01*
X189985400Y-96883125D01*
X189985405Y-96883124D01*
X189991121Y-96882295D01*
X189996593Y-96880437D01*
X189996595Y-96880437D01*
X190176311Y-96819431D01*
X190176313Y-96819430D01*
X190181775Y-96817576D01*
X190357442Y-96719198D01*
X190512240Y-96590454D01*
X190630258Y-96448553D01*
X190637293Y-96440094D01*
X190640984Y-96435656D01*
X190739362Y-96259989D01*
X190756416Y-96209752D01*
X190802223Y-96074809D01*
X190802223Y-96074807D01*
X190804081Y-96069335D01*
X190804910Y-96063619D01*
X190804911Y-96063614D01*
X190827765Y-95905983D01*
X190832971Y-95870080D01*
X190834479Y-95812500D01*
X190828799Y-95750691D01*
X199759795Y-95750691D01*
X199776939Y-95905983D01*
X199779549Y-95913115D01*
X199818729Y-96020178D01*
X199830631Y-96052703D01*
X199917771Y-96182381D01*
X199923383Y-96187488D01*
X199923386Y-96187491D01*
X200027707Y-96282416D01*
X200027711Y-96282419D01*
X200033328Y-96287530D01*
X200040005Y-96291155D01*
X200040006Y-96291156D01*
X200163953Y-96358454D01*
X200163955Y-96358455D01*
X200170630Y-96362079D01*
X200177979Y-96364007D01*
X200314402Y-96399797D01*
X200314404Y-96399797D01*
X200321752Y-96401725D01*
X200404424Y-96403024D01*
X200470372Y-96404060D01*
X200470375Y-96404060D01*
X200477969Y-96404179D01*
X200531560Y-96391905D01*
X200622858Y-96370995D01*
X200622862Y-96370994D01*
X200630261Y-96369299D01*
X200769838Y-96299100D01*
X200839389Y-96239698D01*
X200882867Y-96202565D01*
X200882869Y-96202562D01*
X200888641Y-96197633D01*
X200979811Y-96070756D01*
X200986745Y-96053509D01*
X201035251Y-95932845D01*
X201035251Y-95932844D01*
X201038085Y-95925795D01*
X201057487Y-95789466D01*
X201059517Y-95775202D01*
X201059517Y-95775199D01*
X201060098Y-95771118D01*
X201060241Y-95757500D01*
X201053976Y-95705731D01*
X201065649Y-95635700D01*
X201089968Y-95601498D01*
X202453796Y-94237671D01*
X202516108Y-94203645D01*
X202551744Y-94202254D01*
X202551752Y-94201725D01*
X202700372Y-94204060D01*
X202700375Y-94204060D01*
X202707969Y-94204179D01*
X202761560Y-94191905D01*
X202852858Y-94170995D01*
X202852862Y-94170994D01*
X202860261Y-94169299D01*
X202951355Y-94123484D01*
X202993052Y-94102513D01*
X202999838Y-94099100D01*
X203052474Y-94054145D01*
X203112867Y-94002565D01*
X203112869Y-94002562D01*
X203118641Y-93997633D01*
X203209811Y-93870756D01*
X203233145Y-93812711D01*
X203277112Y-93756967D01*
X203344237Y-93733842D01*
X203413209Y-93750679D01*
X203439147Y-93770613D01*
X204660564Y-94992030D01*
X204674762Y-95009609D01*
X204676530Y-95011552D01*
X204682178Y-95020299D01*
X204690355Y-95026745D01*
X204707790Y-95040490D01*
X204712070Y-95044294D01*
X204712140Y-95044211D01*
X204716103Y-95047569D01*
X204719781Y-95051247D01*
X204731620Y-95059707D01*
X204735041Y-95062152D01*
X204739784Y-95065713D01*
X204758867Y-95080756D01*
X204779042Y-95096661D01*
X204787477Y-95099623D01*
X204794749Y-95104820D01*
X204842641Y-95119143D01*
X204848247Y-95120965D01*
X204887938Y-95134904D01*
X204887946Y-95134906D01*
X204895419Y-95137530D01*
X204900846Y-95138000D01*
X204903559Y-95138000D01*
X204906058Y-95138108D01*
X204906285Y-95138176D01*
X204906280Y-95138299D01*
X204906808Y-95138332D01*
X204912923Y-95140161D01*
X204965460Y-95138097D01*
X204970406Y-95138000D01*
X205152141Y-95138000D01*
X205220262Y-95158002D01*
X205266755Y-95211658D01*
X205276859Y-95281932D01*
X205247365Y-95346512D01*
X205181555Y-95386519D01*
X205154489Y-95393017D01*
X205015655Y-95464674D01*
X204897922Y-95567380D01*
X204889950Y-95578723D01*
X204845474Y-95642006D01*
X204808085Y-95695204D01*
X204751333Y-95840768D01*
X204747962Y-95866372D01*
X204732396Y-95984608D01*
X204730940Y-95995667D01*
X204731929Y-96004622D01*
X204731748Y-96005641D01*
X204731694Y-96010812D01*
X204730832Y-96010803D01*
X204719524Y-96074526D01*
X204671295Y-96126627D01*
X204636105Y-96140968D01*
X204530736Y-96166266D01*
X204530734Y-96166267D01*
X204523344Y-96168041D01*
X204384510Y-96239698D01*
X204266777Y-96342404D01*
X204262410Y-96348618D01*
X204259013Y-96353451D01*
X204203478Y-96397682D01*
X204155926Y-96407000D01*
X203052964Y-96407000D01*
X203030495Y-96404609D01*
X203027873Y-96404485D01*
X203017694Y-96402294D01*
X202985310Y-96406127D01*
X202979593Y-96406464D01*
X202979602Y-96406572D01*
X202974426Y-96407000D01*
X202969222Y-96407000D01*
X202950675Y-96410087D01*
X202944828Y-96410918D01*
X202928866Y-96412808D01*
X202895204Y-96416792D01*
X202887146Y-96420661D01*
X202878329Y-96422129D01*
X202869167Y-96427073D01*
X202869163Y-96427074D01*
X202834350Y-96445858D01*
X202829061Y-96448553D01*
X202812247Y-96456627D01*
X202784015Y-96470184D01*
X202779845Y-96473689D01*
X202777913Y-96475621D01*
X202776087Y-96477296D01*
X202775881Y-96477407D01*
X202775797Y-96477315D01*
X202775395Y-96477669D01*
X202769778Y-96480700D01*
X202762708Y-96488348D01*
X202762707Y-96488349D01*
X202734089Y-96519308D01*
X202730660Y-96522874D01*
X201505470Y-97748064D01*
X201487891Y-97762262D01*
X201485948Y-97764030D01*
X201477201Y-97769678D01*
X201470755Y-97777855D01*
X201457010Y-97795290D01*
X201453205Y-97799571D01*
X201453288Y-97799641D01*
X201449929Y-97803605D01*
X201446254Y-97807280D01*
X201443234Y-97811505D01*
X201443233Y-97811507D01*
X201435340Y-97822552D01*
X201431777Y-97827297D01*
X201407287Y-97858362D01*
X201407286Y-97858364D01*
X201400839Y-97866542D01*
X201397877Y-97874977D01*
X201392680Y-97882249D01*
X201389696Y-97892228D01*
X201378363Y-97930122D01*
X201376528Y-97935769D01*
X201368642Y-97958226D01*
X201359970Y-97982919D01*
X201359500Y-97988346D01*
X201359500Y-97991060D01*
X201359392Y-97993557D01*
X201359324Y-97993785D01*
X201359201Y-97993780D01*
X201359168Y-97994307D01*
X201357339Y-98000422D01*
X201357748Y-98010826D01*
X201359403Y-98052959D01*
X201359500Y-98057905D01*
X201359500Y-106464536D01*
X201357109Y-106487005D01*
X201356985Y-106489627D01*
X201354794Y-106499806D01*
X201358344Y-106529797D01*
X201358627Y-106532192D01*
X201358964Y-106537909D01*
X201359072Y-106537900D01*
X201359500Y-106543081D01*
X201359500Y-106548278D01*
X201360352Y-106553398D01*
X201360353Y-106553406D01*
X201362581Y-106566787D01*
X201363418Y-106572669D01*
X201369291Y-106622295D01*
X201373162Y-106630356D01*
X201374629Y-106639171D01*
X201398362Y-106683156D01*
X201401043Y-106688419D01*
X201419251Y-106726338D01*
X201419255Y-106726344D01*
X201422684Y-106733485D01*
X201426189Y-106737655D01*
X201428114Y-106739580D01*
X201429796Y-106741414D01*
X201429907Y-106741619D01*
X201429815Y-106741703D01*
X201430169Y-106742105D01*
X201433200Y-106747722D01*
X201440848Y-106754792D01*
X201440849Y-106754793D01*
X201471808Y-106783411D01*
X201475374Y-106786840D01*
X201929752Y-107241218D01*
X201963778Y-107303530D01*
X201965579Y-107346758D01*
X201959795Y-107390691D01*
X201976939Y-107545983D01*
X201979549Y-107553115D01*
X202026428Y-107681217D01*
X202030631Y-107692703D01*
X202117771Y-107822381D01*
X202123383Y-107827488D01*
X202123386Y-107827491D01*
X202227707Y-107922416D01*
X202227711Y-107922419D01*
X202233328Y-107927530D01*
X202240005Y-107931155D01*
X202240006Y-107931156D01*
X202363953Y-107998454D01*
X202363955Y-107998455D01*
X202370630Y-108002079D01*
X202377979Y-108004007D01*
X202514402Y-108039797D01*
X202514404Y-108039797D01*
X202521752Y-108041725D01*
X202604424Y-108043024D01*
X202670372Y-108044060D01*
X202670375Y-108044060D01*
X202677969Y-108044179D01*
X202731560Y-108031905D01*
X202822858Y-108010995D01*
X202822862Y-108010994D01*
X202830261Y-108009299D01*
X202969838Y-107939100D01*
X203056424Y-107865149D01*
X203082867Y-107842565D01*
X203082869Y-107842562D01*
X203088641Y-107837633D01*
X203179811Y-107710756D01*
X203220350Y-107609912D01*
X203264314Y-107554171D01*
X203331439Y-107531046D01*
X203400410Y-107547883D01*
X203426350Y-107567817D01*
X204479752Y-108621219D01*
X204513778Y-108683531D01*
X204515579Y-108726758D01*
X204509795Y-108770691D01*
X204526939Y-108925983D01*
X204580631Y-109072703D01*
X204667771Y-109202381D01*
X204673383Y-109207488D01*
X204673386Y-109207491D01*
X204777707Y-109302416D01*
X204777711Y-109302419D01*
X204783328Y-109307530D01*
X204790005Y-109311155D01*
X204790006Y-109311156D01*
X204913953Y-109378454D01*
X204913955Y-109378455D01*
X204920630Y-109382079D01*
X204927979Y-109384007D01*
X205064402Y-109419797D01*
X205064404Y-109419797D01*
X205071752Y-109421725D01*
X205154424Y-109423024D01*
X205220372Y-109424060D01*
X205220375Y-109424060D01*
X205227969Y-109424179D01*
X205281560Y-109411905D01*
X205372858Y-109390995D01*
X205372862Y-109390994D01*
X205380261Y-109389299D01*
X205519838Y-109319100D01*
X205592437Y-109257095D01*
X205632867Y-109222565D01*
X205632869Y-109222562D01*
X205638641Y-109217633D01*
X205729811Y-109090756D01*
X205737069Y-109072703D01*
X205785251Y-108952845D01*
X205785251Y-108952844D01*
X205788085Y-108945795D01*
X205799278Y-108867149D01*
X205809517Y-108795202D01*
X205809517Y-108795199D01*
X205810098Y-108791118D01*
X205810241Y-108777500D01*
X205791471Y-108622396D01*
X205736246Y-108476246D01*
X205731947Y-108469991D01*
X205731945Y-108469987D01*
X205652055Y-108353747D01*
X205652054Y-108353745D01*
X205647753Y-108347488D01*
X205603996Y-108308502D01*
X205536773Y-108248608D01*
X205536770Y-108248606D01*
X205531101Y-108243555D01*
X205524387Y-108240000D01*
X205399741Y-108174003D01*
X205399738Y-108174002D01*
X205393026Y-108170448D01*
X205241497Y-108132386D01*
X205233900Y-108132346D01*
X205233898Y-108132346D01*
X205178707Y-108132057D01*
X205089589Y-108131591D01*
X205021574Y-108111233D01*
X205001154Y-108094688D01*
X203394336Y-106487870D01*
X203360310Y-106425558D01*
X203358689Y-106381016D01*
X203359517Y-106375201D01*
X203359517Y-106375200D01*
X203360098Y-106371118D01*
X203360241Y-106357500D01*
X203349268Y-106266826D01*
X203342384Y-106209939D01*
X203342384Y-106209938D01*
X203341471Y-106202396D01*
X203291819Y-106070995D01*
X203288931Y-106063351D01*
X203288930Y-106063349D01*
X203286246Y-106056246D01*
X203281947Y-106049991D01*
X203281945Y-106049987D01*
X203202055Y-105933747D01*
X203202054Y-105933745D01*
X203197753Y-105927488D01*
X203169780Y-105902565D01*
X203086773Y-105828608D01*
X203086770Y-105828606D01*
X203081101Y-105823555D01*
X203074387Y-105820000D01*
X202949741Y-105754003D01*
X202949738Y-105754002D01*
X202943026Y-105750448D01*
X202791497Y-105712386D01*
X202783899Y-105712346D01*
X202783897Y-105712346D01*
X202718319Y-105712003D01*
X202635263Y-105711568D01*
X202627883Y-105713340D01*
X202627881Y-105713340D01*
X202556881Y-105730386D01*
X202483344Y-105748041D01*
X202344510Y-105819698D01*
X202338787Y-105824691D01*
X202338782Y-105824694D01*
X202309330Y-105850387D01*
X202244848Y-105880096D01*
X202174541Y-105870227D01*
X202120730Y-105823913D01*
X202100500Y-105755439D01*
X202100500Y-98253156D01*
X202120502Y-98185035D01*
X202137405Y-98164061D01*
X203116561Y-97184905D01*
X203178873Y-97150879D01*
X203205656Y-97148000D01*
X204154348Y-97148000D01*
X204222469Y-97168002D01*
X204249728Y-97191667D01*
X204253535Y-97196077D01*
X204257771Y-97202381D01*
X204263390Y-97207494D01*
X204367707Y-97302416D01*
X204367711Y-97302419D01*
X204373328Y-97307530D01*
X204380005Y-97311155D01*
X204380006Y-97311156D01*
X204503953Y-97378454D01*
X204503955Y-97378455D01*
X204510630Y-97382079D01*
X204517979Y-97384007D01*
X204654402Y-97419797D01*
X204654404Y-97419797D01*
X204661752Y-97421725D01*
X204744424Y-97423024D01*
X204810372Y-97424060D01*
X204810375Y-97424060D01*
X204817969Y-97424179D01*
X204885322Y-97408753D01*
X204962858Y-97390995D01*
X204962862Y-97390994D01*
X204970261Y-97389299D01*
X205109838Y-97319100D01*
X205145296Y-97288816D01*
X205222867Y-97222565D01*
X205222869Y-97222562D01*
X205228641Y-97217633D01*
X205319811Y-97090756D01*
X205323765Y-97080922D01*
X205375251Y-96952845D01*
X205375251Y-96952844D01*
X205378085Y-96945795D01*
X205395182Y-96825658D01*
X205424582Y-96761036D01*
X205484253Y-96722567D01*
X205555250Y-96722465D01*
X205609020Y-96754317D01*
X206072595Y-97217892D01*
X206106621Y-97280204D01*
X206109500Y-97306987D01*
X206109500Y-103526780D01*
X206089498Y-103594901D01*
X206066329Y-103621729D01*
X206002503Y-103677408D01*
X206002499Y-103677412D01*
X205996777Y-103682404D01*
X205992410Y-103688618D01*
X205914303Y-103799752D01*
X205906940Y-103810228D01*
X205850188Y-103955792D01*
X205847316Y-103977607D01*
X205830829Y-104102840D01*
X205829795Y-104110691D01*
X205846939Y-104265983D01*
X205849549Y-104273115D01*
X205883360Y-104365507D01*
X205900631Y-104412703D01*
X205904867Y-104419006D01*
X205904867Y-104419007D01*
X205915451Y-104434757D01*
X205987771Y-104542381D01*
X205993383Y-104547488D01*
X205993386Y-104547491D01*
X206097707Y-104642416D01*
X206097711Y-104642419D01*
X206103328Y-104647530D01*
X206110005Y-104651155D01*
X206110006Y-104651156D01*
X206233953Y-104718454D01*
X206233955Y-104718455D01*
X206240630Y-104722079D01*
X206247979Y-104724007D01*
X206384402Y-104759797D01*
X206384404Y-104759797D01*
X206391752Y-104761725D01*
X206474424Y-104763024D01*
X206540372Y-104764060D01*
X206540375Y-104764060D01*
X206547969Y-104764179D01*
X206623875Y-104746794D01*
X206692858Y-104730995D01*
X206692862Y-104730994D01*
X206700261Y-104729299D01*
X206839838Y-104659100D01*
X206872135Y-104631516D01*
X206952867Y-104562565D01*
X206952869Y-104562562D01*
X206958641Y-104557633D01*
X207049811Y-104430756D01*
X207057069Y-104412703D01*
X207105251Y-104292845D01*
X207105251Y-104292844D01*
X207108085Y-104285795D01*
X207128506Y-104142303D01*
X207129517Y-104135202D01*
X207129517Y-104135199D01*
X207130098Y-104131118D01*
X207130173Y-104123973D01*
X207130437Y-104123108D01*
X207130454Y-104122883D01*
X207130504Y-104122887D01*
X207150889Y-104056066D01*
X207205029Y-104010138D01*
X207275406Y-104000773D01*
X207288129Y-104003417D01*
X207340870Y-104017253D01*
X207497087Y-104019707D01*
X207497051Y-104021971D01*
X207555851Y-104032717D01*
X207588290Y-104056166D01*
X208117808Y-104585684D01*
X208151834Y-104647996D01*
X208146769Y-104718811D01*
X208104222Y-104775647D01*
X208088553Y-104785662D01*
X208079881Y-104790342D01*
X208074577Y-104793045D01*
X208057344Y-104801319D01*
X207991499Y-104812013D01*
X207991497Y-104812386D01*
X207989273Y-104812374D01*
X207989271Y-104812374D01*
X207983906Y-104812346D01*
X207983904Y-104812346D01*
X207912619Y-104811973D01*
X207835263Y-104811568D01*
X207827883Y-104813340D01*
X207827881Y-104813340D01*
X207798700Y-104820346D01*
X207683344Y-104848041D01*
X207544510Y-104919698D01*
X207426777Y-105022404D01*
X207422410Y-105028618D01*
X207344338Y-105139702D01*
X207336940Y-105150228D01*
X207280188Y-105295792D01*
X207279197Y-105303321D01*
X207267021Y-105395808D01*
X207259795Y-105450691D01*
X207276939Y-105605983D01*
X207279549Y-105613115D01*
X207324334Y-105735495D01*
X207330631Y-105752703D01*
X207417771Y-105882381D01*
X207423383Y-105887488D01*
X207423386Y-105887491D01*
X207527707Y-105982416D01*
X207527711Y-105982419D01*
X207533328Y-105987530D01*
X207540005Y-105991155D01*
X207540006Y-105991156D01*
X207663953Y-106058454D01*
X207663955Y-106058455D01*
X207670630Y-106062079D01*
X207677979Y-106064007D01*
X207814402Y-106099797D01*
X207814404Y-106099797D01*
X207821752Y-106101725D01*
X207904424Y-106103024D01*
X207970372Y-106104060D01*
X207970375Y-106104060D01*
X207977969Y-106104179D01*
X208031560Y-106091905D01*
X208122858Y-106070995D01*
X208122862Y-106070994D01*
X208130261Y-106069299D01*
X208269838Y-105999100D01*
X208327952Y-105949466D01*
X208382867Y-105902565D01*
X208382869Y-105902562D01*
X208388641Y-105897633D01*
X208479811Y-105770756D01*
X208485969Y-105755439D01*
X208535251Y-105632845D01*
X208535251Y-105632844D01*
X208538085Y-105625795D01*
X208541650Y-105600746D01*
X208571051Y-105536123D01*
X208630723Y-105497655D01*
X208666393Y-105492500D01*
X209836781Y-105492500D01*
X209904902Y-105512502D01*
X209951395Y-105566158D01*
X209961499Y-105636432D01*
X209954175Y-105664266D01*
X209930188Y-105725792D01*
X209929197Y-105733321D01*
X209911173Y-105870227D01*
X209909795Y-105880691D01*
X209926939Y-106035983D01*
X209929549Y-106043115D01*
X209977669Y-106174608D01*
X209980631Y-106182703D01*
X210067771Y-106312381D01*
X210073383Y-106317488D01*
X210073386Y-106317491D01*
X210177707Y-106412416D01*
X210177711Y-106412419D01*
X210183328Y-106417530D01*
X210190005Y-106421155D01*
X210190006Y-106421156D01*
X210313953Y-106488454D01*
X210313955Y-106488455D01*
X210320630Y-106492079D01*
X210327979Y-106494007D01*
X210464402Y-106529797D01*
X210464404Y-106529797D01*
X210471752Y-106531725D01*
X210554424Y-106533024D01*
X210620372Y-106534060D01*
X210620375Y-106534060D01*
X210627969Y-106534179D01*
X210681560Y-106521905D01*
X210772858Y-106500995D01*
X210772862Y-106500994D01*
X210780261Y-106499299D01*
X210919838Y-106429100D01*
X210947060Y-106405850D01*
X211032867Y-106332565D01*
X211032869Y-106332562D01*
X211038641Y-106327633D01*
X211050971Y-106310474D01*
X211106966Y-106266826D01*
X211153294Y-106258000D01*
X214061536Y-106258000D01*
X214084005Y-106260391D01*
X214086627Y-106260515D01*
X214096806Y-106262706D01*
X214129192Y-106258873D01*
X214134909Y-106258536D01*
X214134900Y-106258428D01*
X214140081Y-106258000D01*
X214145278Y-106258000D01*
X214150398Y-106257148D01*
X214150406Y-106257147D01*
X214163787Y-106254919D01*
X214169669Y-106254082D01*
X214174486Y-106253512D01*
X214219295Y-106248209D01*
X214227356Y-106244338D01*
X214236171Y-106242871D01*
X214280156Y-106219138D01*
X214285419Y-106216457D01*
X214323338Y-106198249D01*
X214323344Y-106198245D01*
X214330485Y-106194816D01*
X214334655Y-106191311D01*
X214336580Y-106189386D01*
X214338414Y-106187704D01*
X214338619Y-106187593D01*
X214338703Y-106187685D01*
X214339105Y-106187331D01*
X214344722Y-106184300D01*
X214353682Y-106174608D01*
X214380411Y-106145692D01*
X214383840Y-106142126D01*
X214722509Y-105803457D01*
X214784821Y-105769431D01*
X214813583Y-105766568D01*
X214940372Y-105768560D01*
X214940375Y-105768560D01*
X214947969Y-105768679D01*
X215027569Y-105750448D01*
X215092858Y-105735495D01*
X215092862Y-105735494D01*
X215100261Y-105733799D01*
X215239838Y-105663600D01*
X215335996Y-105581474D01*
X215352867Y-105567065D01*
X215352869Y-105567062D01*
X215358641Y-105562133D01*
X215449811Y-105435256D01*
X215452869Y-105427651D01*
X215505251Y-105297345D01*
X215505251Y-105297344D01*
X215508085Y-105290295D01*
X215530098Y-105135618D01*
X215530241Y-105122000D01*
X215513679Y-104985139D01*
X215512384Y-104974439D01*
X215512384Y-104974438D01*
X215511471Y-104966896D01*
X215500755Y-104938536D01*
X215495387Y-104867745D01*
X215529145Y-104805287D01*
X215591310Y-104770995D01*
X215618621Y-104768000D01*
X222923629Y-104768000D01*
X222991750Y-104788002D01*
X223012725Y-104804905D01*
X223680971Y-105473152D01*
X223714996Y-105535464D01*
X223712208Y-105599611D01*
X223661256Y-105763707D01*
X223658135Y-105773757D01*
X223634470Y-105973700D01*
X223647638Y-106174608D01*
X223669424Y-106260391D01*
X223693044Y-106353394D01*
X223697198Y-106369752D01*
X223781491Y-106552596D01*
X223897693Y-106717018D01*
X224041912Y-106857511D01*
X224046708Y-106860716D01*
X224046711Y-106860718D01*
X224167833Y-106941648D01*
X224209319Y-106969368D01*
X224214623Y-106971647D01*
X224214629Y-106971650D01*
X224320190Y-107017002D01*
X224374884Y-107062270D01*
X224396421Y-107129921D01*
X224377964Y-107198477D01*
X224325373Y-107246171D01*
X224309598Y-107252535D01*
X224211154Y-107284712D01*
X224201645Y-107288709D01*
X224012749Y-107387042D01*
X224004024Y-107392536D01*
X223833719Y-107520405D01*
X223826012Y-107527248D01*
X223678876Y-107681217D01*
X223672390Y-107689227D01*
X223552384Y-107865149D01*
X223547286Y-107874123D01*
X223457624Y-108067283D01*
X223454061Y-108076970D01*
X223398675Y-108276683D01*
X223400198Y-108285107D01*
X223412578Y-108288500D01*
X224862286Y-108288500D01*
X224930407Y-108308502D01*
X224976900Y-108362158D01*
X224988286Y-108414500D01*
X224988286Y-108670500D01*
X224968284Y-108738621D01*
X224914628Y-108785114D01*
X224862286Y-108796500D01*
X223417511Y-108796500D01*
X223403980Y-108800473D01*
X223402543Y-108810466D01*
X223432851Y-108944946D01*
X223435931Y-108954775D01*
X223516056Y-109152103D01*
X223520699Y-109161294D01*
X223631980Y-109342888D01*
X223638063Y-109351199D01*
X223777499Y-109512167D01*
X223784866Y-109519383D01*
X223948720Y-109655416D01*
X223957167Y-109661331D01*
X224141042Y-109768779D01*
X224150328Y-109773229D01*
X224349287Y-109849203D01*
X224359185Y-109852079D01*
X224567881Y-109894538D01*
X224578109Y-109895757D01*
X224626513Y-109897532D01*
X224693855Y-109920016D01*
X224738351Y-109975339D01*
X224745874Y-110045936D01*
X224710992Y-110112542D01*
X220973439Y-113850095D01*
X220911127Y-113884121D01*
X220884344Y-113887000D01*
X214214946Y-113887000D01*
X214146825Y-113866998D01*
X214117774Y-113838832D01*
X214117078Y-113839446D01*
X214112059Y-113833753D01*
X214107753Y-113827488D01*
X214082924Y-113805366D01*
X213996773Y-113728608D01*
X213996770Y-113728606D01*
X213991101Y-113723555D01*
X213984387Y-113720000D01*
X213859741Y-113654003D01*
X213859738Y-113654002D01*
X213853026Y-113650448D01*
X213701497Y-113612386D01*
X213693899Y-113612346D01*
X213693897Y-113612346D01*
X213628319Y-113612003D01*
X213545263Y-113611568D01*
X213537883Y-113613340D01*
X213537881Y-113613340D01*
X213464165Y-113631038D01*
X213393344Y-113648041D01*
X213254510Y-113719698D01*
X213136777Y-113822404D01*
X213046940Y-113950228D01*
X212990188Y-114095792D01*
X212969795Y-114250691D01*
X212986939Y-114405983D01*
X213040631Y-114552703D01*
X213127771Y-114682381D01*
X213133383Y-114687488D01*
X213133386Y-114687491D01*
X213237707Y-114782416D01*
X213237711Y-114782419D01*
X213243328Y-114787530D01*
X213250005Y-114791155D01*
X213250006Y-114791156D01*
X213373953Y-114858454D01*
X213373955Y-114858455D01*
X213380630Y-114862079D01*
X213387979Y-114864007D01*
X213524402Y-114899797D01*
X213524404Y-114899797D01*
X213531752Y-114901725D01*
X213614424Y-114903024D01*
X213680372Y-114904060D01*
X213680375Y-114904060D01*
X213687969Y-114904179D01*
X213741560Y-114891905D01*
X213832858Y-114870995D01*
X213832862Y-114870994D01*
X213840261Y-114869299D01*
X213979838Y-114799100D01*
X214007060Y-114775850D01*
X214092867Y-114702565D01*
X214092869Y-114702562D01*
X214098641Y-114697633D01*
X214110971Y-114680474D01*
X214166966Y-114636826D01*
X214213294Y-114628000D01*
X221037036Y-114628000D01*
X221059505Y-114630391D01*
X221062127Y-114630515D01*
X221072306Y-114632706D01*
X221104692Y-114628873D01*
X221110409Y-114628536D01*
X221110400Y-114628428D01*
X221115581Y-114628000D01*
X221120778Y-114628000D01*
X221125898Y-114627148D01*
X221125906Y-114627147D01*
X221139287Y-114624919D01*
X221145169Y-114624082D01*
X221149986Y-114623512D01*
X221194795Y-114618209D01*
X221202856Y-114614338D01*
X221211671Y-114612871D01*
X221255656Y-114589138D01*
X221260919Y-114586457D01*
X221298838Y-114568249D01*
X221298844Y-114568245D01*
X221305985Y-114564816D01*
X221310155Y-114561311D01*
X221312080Y-114559386D01*
X221313914Y-114557704D01*
X221314119Y-114557593D01*
X221314203Y-114557685D01*
X221314605Y-114557331D01*
X221320222Y-114554300D01*
X221355911Y-114515692D01*
X221359340Y-114512126D01*
X226304534Y-109566933D01*
X226322108Y-109552739D01*
X226324052Y-109550970D01*
X226332799Y-109545322D01*
X226352988Y-109519713D01*
X226356797Y-109515427D01*
X226356714Y-109515357D01*
X226360068Y-109511399D01*
X226363747Y-109507720D01*
X226374676Y-109492426D01*
X226378220Y-109487706D01*
X226409161Y-109448458D01*
X226412123Y-109440024D01*
X226417320Y-109432751D01*
X226431638Y-109384876D01*
X226433472Y-109379231D01*
X226447404Y-109339560D01*
X226447405Y-109339557D01*
X226450030Y-109332081D01*
X226450500Y-109326654D01*
X226450500Y-109323940D01*
X226450608Y-109321443D01*
X226450676Y-109321215D01*
X226450799Y-109321220D01*
X226450832Y-109320693D01*
X226452661Y-109314578D01*
X226450597Y-109262041D01*
X226450500Y-109257095D01*
X226450500Y-100640464D01*
X226452891Y-100617995D01*
X226453015Y-100615373D01*
X226455206Y-100605194D01*
X226451373Y-100572808D01*
X226451036Y-100567091D01*
X226450928Y-100567100D01*
X226450500Y-100561919D01*
X226450500Y-100556722D01*
X226449648Y-100551602D01*
X226449647Y-100551594D01*
X226447419Y-100538213D01*
X226446582Y-100532331D01*
X226442930Y-100501474D01*
X226440709Y-100482705D01*
X226436838Y-100474644D01*
X226435371Y-100465829D01*
X226411653Y-100421872D01*
X226408957Y-100416581D01*
X226390748Y-100378659D01*
X226390746Y-100378656D01*
X226387317Y-100371515D01*
X226383812Y-100367345D01*
X226381874Y-100365407D01*
X226380203Y-100363584D01*
X226380093Y-100363382D01*
X226380186Y-100363297D01*
X226379829Y-100362893D01*
X226376800Y-100357278D01*
X226338218Y-100321613D01*
X226334652Y-100318185D01*
X225610220Y-99593754D01*
X225539434Y-99522968D01*
X225525239Y-99505392D01*
X225523469Y-99503447D01*
X225517822Y-99494701D01*
X225492210Y-99474510D01*
X225487929Y-99470705D01*
X225487859Y-99470788D01*
X225483895Y-99467429D01*
X225480220Y-99463754D01*
X225464948Y-99452840D01*
X225460229Y-99449297D01*
X225430826Y-99426118D01*
X225389714Y-99368240D01*
X225386420Y-99297320D01*
X225421991Y-99235877D01*
X225428264Y-99230296D01*
X225507802Y-99164145D01*
X225512240Y-99160454D01*
X225640984Y-99005656D01*
X225739362Y-98829989D01*
X225778685Y-98714150D01*
X225802223Y-98644809D01*
X225802223Y-98644807D01*
X225804081Y-98639335D01*
X225804910Y-98633619D01*
X225804911Y-98633614D01*
X225832438Y-98443754D01*
X225832971Y-98440080D01*
X225834479Y-98382500D01*
X225816056Y-98182006D01*
X225811301Y-98165144D01*
X225781056Y-98057905D01*
X225761405Y-97988226D01*
X225672355Y-97807651D01*
X225551889Y-97646327D01*
X225547653Y-97642411D01*
X225408281Y-97513577D01*
X225408278Y-97513575D01*
X225404041Y-97509658D01*
X225233763Y-97402221D01*
X225046758Y-97327613D01*
X225041090Y-97326486D01*
X225041088Y-97326485D01*
X224854954Y-97289461D01*
X224854952Y-97289461D01*
X224849287Y-97288334D01*
X224843512Y-97288258D01*
X224843508Y-97288258D01*
X224743176Y-97286945D01*
X224647966Y-97285699D01*
X224642269Y-97286678D01*
X224642268Y-97286678D01*
X224455232Y-97318816D01*
X224455231Y-97318816D01*
X224449535Y-97319795D01*
X224363915Y-97351382D01*
X224339668Y-97360327D01*
X224268834Y-97365139D01*
X224206962Y-97331210D01*
X219008847Y-92133095D01*
X218974821Y-92070783D01*
X218979886Y-91999968D01*
X219022433Y-91943132D01*
X219088953Y-91918321D01*
X219097942Y-91918000D01*
X220233630Y-91918000D01*
X220301751Y-91938002D01*
X220322725Y-91954905D01*
X223680971Y-95313151D01*
X223714997Y-95375463D01*
X223712209Y-95439609D01*
X223658135Y-95613757D01*
X223634470Y-95813700D01*
X223647638Y-96014608D01*
X223661537Y-96069335D01*
X223695373Y-96202565D01*
X223697198Y-96209752D01*
X223781491Y-96392596D01*
X223897693Y-96557018D01*
X224041912Y-96697511D01*
X224046708Y-96700716D01*
X224046711Y-96700718D01*
X224167833Y-96781648D01*
X224209319Y-96809368D01*
X224214622Y-96811646D01*
X224214625Y-96811648D01*
X224389001Y-96886566D01*
X224394308Y-96888846D01*
X224590682Y-96933281D01*
X224596451Y-96933508D01*
X224596454Y-96933508D01*
X224672136Y-96936481D01*
X224791866Y-96941185D01*
X224877819Y-96928723D01*
X224985400Y-96913125D01*
X224985405Y-96913124D01*
X224991121Y-96912295D01*
X224996593Y-96910437D01*
X224996595Y-96910437D01*
X225176311Y-96849431D01*
X225176313Y-96849430D01*
X225181775Y-96847576D01*
X225357442Y-96749198D01*
X225512240Y-96620454D01*
X225640984Y-96465656D01*
X225739362Y-96289989D01*
X225764923Y-96214691D01*
X225802223Y-96104809D01*
X225802223Y-96104807D01*
X225804081Y-96099335D01*
X225804910Y-96093619D01*
X225804911Y-96093614D01*
X225828220Y-95932845D01*
X225832971Y-95900080D01*
X225834479Y-95842500D01*
X225816056Y-95642006D01*
X225761405Y-95448226D01*
X225672355Y-95267651D01*
X225562820Y-95120965D01*
X225555342Y-95110951D01*
X225555341Y-95110950D01*
X225551889Y-95106327D01*
X225547653Y-95102411D01*
X225408281Y-94973577D01*
X225408278Y-94973575D01*
X225404041Y-94969658D01*
X225233763Y-94862221D01*
X225046758Y-94787613D01*
X225041090Y-94786486D01*
X225041088Y-94786485D01*
X224854954Y-94749461D01*
X224854952Y-94749461D01*
X224849287Y-94748334D01*
X224843512Y-94748258D01*
X224843508Y-94748258D01*
X224743176Y-94746945D01*
X224647966Y-94745699D01*
X224642269Y-94746678D01*
X224642268Y-94746678D01*
X224455232Y-94778816D01*
X224455231Y-94778816D01*
X224449535Y-94779795D01*
X224363915Y-94811382D01*
X224339668Y-94820327D01*
X224268834Y-94825139D01*
X224206962Y-94791210D01*
X223283639Y-93867887D01*
X223249613Y-93805575D01*
X223254678Y-93734760D01*
X223297225Y-93677924D01*
X223363745Y-93653113D01*
X223414483Y-93659910D01*
X223442940Y-93669904D01*
X223442943Y-93669905D01*
X223450419Y-93672530D01*
X223455846Y-93673000D01*
X223458560Y-93673000D01*
X223461057Y-93673108D01*
X223461285Y-93673176D01*
X223461280Y-93673299D01*
X223461807Y-93673332D01*
X223467922Y-93675161D01*
X223520449Y-93673097D01*
X223525395Y-93673000D01*
X223618037Y-93673000D01*
X223686158Y-93693002D01*
X223732463Y-93746248D01*
X223765244Y-93817353D01*
X223781491Y-93852596D01*
X223897693Y-94017018D01*
X224041912Y-94157511D01*
X224046708Y-94160716D01*
X224046711Y-94160718D01*
X224167833Y-94241648D01*
X224209319Y-94269368D01*
X224214622Y-94271646D01*
X224214625Y-94271648D01*
X224379060Y-94342295D01*
X224394308Y-94348846D01*
X224590682Y-94393281D01*
X224596451Y-94393508D01*
X224596454Y-94393508D01*
X224672136Y-94396481D01*
X224791866Y-94401185D01*
X224884997Y-94387682D01*
X224985400Y-94373125D01*
X224985405Y-94373124D01*
X224991121Y-94372295D01*
X224996593Y-94370437D01*
X224996595Y-94370437D01*
X225176311Y-94309431D01*
X225176313Y-94309430D01*
X225181775Y-94307576D01*
X225357442Y-94209198D01*
X225512240Y-94080454D01*
X225640984Y-93925656D01*
X225739362Y-93749989D01*
X225765457Y-93673118D01*
X225802223Y-93564809D01*
X225802223Y-93564807D01*
X225804081Y-93559335D01*
X225804910Y-93553619D01*
X225804911Y-93553614D01*
X225832438Y-93363754D01*
X225832971Y-93360080D01*
X225834479Y-93302500D01*
X225816056Y-93102006D01*
X225761405Y-92908226D01*
X225672355Y-92727651D01*
X225551889Y-92566327D01*
X225524893Y-92541372D01*
X225408281Y-92433577D01*
X225408278Y-92433575D01*
X225404041Y-92429658D01*
X225233763Y-92322221D01*
X225046758Y-92247613D01*
X225041090Y-92246486D01*
X225041088Y-92246485D01*
X224854954Y-92209461D01*
X224854952Y-92209461D01*
X224849287Y-92208334D01*
X224843512Y-92208258D01*
X224843508Y-92208258D01*
X224743176Y-92206945D01*
X224647966Y-92205699D01*
X224642269Y-92206678D01*
X224642268Y-92206678D01*
X224455232Y-92238816D01*
X224455231Y-92238816D01*
X224449535Y-92239795D01*
X224260641Y-92309482D01*
X224255680Y-92312434D01*
X224255679Y-92312434D01*
X224131631Y-92386235D01*
X224087609Y-92412425D01*
X223936234Y-92545177D01*
X223811587Y-92703292D01*
X223808898Y-92708403D01*
X223808896Y-92708406D01*
X223763047Y-92795551D01*
X223713628Y-92846523D01*
X223644495Y-92862686D01*
X223577599Y-92838907D01*
X223562444Y-92825978D01*
X222084561Y-91348095D01*
X222050535Y-91285783D01*
X222055600Y-91214968D01*
X222098147Y-91158132D01*
X222164667Y-91133321D01*
X222173656Y-91133000D01*
X223512787Y-91133000D01*
X223580908Y-91153002D01*
X223627401Y-91206658D01*
X223638787Y-91259000D01*
X223638787Y-91636680D01*
X223639993Y-91642746D01*
X223639994Y-91642751D01*
X223645888Y-91672381D01*
X223653030Y-91708289D01*
X223707290Y-91789496D01*
X223727688Y-91803125D01*
X223757854Y-91823281D01*
X223788497Y-91843756D01*
X223860105Y-91858000D01*
X224734215Y-91858000D01*
X225608466Y-91857999D01*
X225614532Y-91856793D01*
X225614537Y-91856792D01*
X225656455Y-91848454D01*
X225680075Y-91843756D01*
X225761282Y-91789496D01*
X225815542Y-91708289D01*
X225829786Y-91636681D01*
X225829785Y-89888320D01*
X225828578Y-89882252D01*
X225828578Y-89882249D01*
X225820963Y-89843965D01*
X225815542Y-89816711D01*
X225761282Y-89735504D01*
X225721092Y-89708651D01*
X225690393Y-89688138D01*
X225690392Y-89688138D01*
X225680075Y-89681244D01*
X225608467Y-89667000D01*
X224734357Y-89667000D01*
X223860106Y-89667001D01*
X223854040Y-89668207D01*
X223854035Y-89668208D01*
X223815751Y-89675823D01*
X223788497Y-89681244D01*
X223707290Y-89735504D01*
X223653030Y-89816711D01*
X223638786Y-89888319D01*
X223638786Y-90266000D01*
X223618784Y-90334121D01*
X223565128Y-90380614D01*
X223512786Y-90392000D01*
X222367454Y-90392000D01*
X222299333Y-90371998D01*
X222252840Y-90318342D01*
X222242367Y-90281137D01*
X222234683Y-90217641D01*
X222233770Y-90210097D01*
X222178545Y-90063947D01*
X222174246Y-90057692D01*
X222174244Y-90057688D01*
X222094354Y-89941448D01*
X222094353Y-89941446D01*
X222090052Y-89935189D01*
X222080578Y-89926748D01*
X221979072Y-89836309D01*
X221979069Y-89836307D01*
X221973400Y-89831256D01*
X221966686Y-89827701D01*
X221842040Y-89761704D01*
X221842037Y-89761703D01*
X221835325Y-89758149D01*
X221683796Y-89720087D01*
X221676198Y-89720047D01*
X221676196Y-89720047D01*
X221605794Y-89719679D01*
X221585422Y-89719572D01*
X221517407Y-89699214D01*
X221471196Y-89645316D01*
X221461460Y-89574990D01*
X221491291Y-89510564D01*
X221496987Y-89504479D01*
X222484530Y-88516936D01*
X222502109Y-88502738D01*
X222504052Y-88500970D01*
X222512799Y-88495322D01*
X222532990Y-88469710D01*
X222536796Y-88465427D01*
X222536713Y-88465357D01*
X222540067Y-88461399D01*
X222543746Y-88457720D01*
X222554665Y-88442440D01*
X222558209Y-88437720D01*
X222589161Y-88398458D01*
X222592124Y-88390021D01*
X222597319Y-88382751D01*
X222611635Y-88334883D01*
X222613470Y-88329236D01*
X222627404Y-88289560D01*
X222627405Y-88289557D01*
X222630030Y-88282081D01*
X222630500Y-88276654D01*
X222630500Y-88273940D01*
X222630608Y-88271443D01*
X222630676Y-88271215D01*
X222630799Y-88271220D01*
X222630832Y-88270693D01*
X222632661Y-88264578D01*
X222630597Y-88212051D01*
X222630500Y-88207105D01*
X222630500Y-79420464D01*
X222632891Y-79397995D01*
X222633015Y-79395373D01*
X222635206Y-79385194D01*
X222631373Y-79352810D01*
X222631036Y-79347091D01*
X222630928Y-79347100D01*
X222630500Y-79341922D01*
X222630500Y-79336722D01*
X222629646Y-79331595D01*
X222629646Y-79331589D01*
X222627418Y-79318206D01*
X222626580Y-79312321D01*
X222621932Y-79273045D01*
X222621932Y-79273044D01*
X222620708Y-79262705D01*
X222616839Y-79254647D01*
X222615371Y-79245829D01*
X222610425Y-79236663D01*
X222610424Y-79236659D01*
X222591649Y-79201863D01*
X222588954Y-79196574D01*
X222570749Y-79158661D01*
X222570743Y-79158652D01*
X222567316Y-79151515D01*
X222563811Y-79147345D01*
X222561880Y-79145414D01*
X222560204Y-79143587D01*
X222560093Y-79143381D01*
X222560185Y-79143297D01*
X222559831Y-79142895D01*
X222556800Y-79137278D01*
X222544862Y-79126242D01*
X222518192Y-79101589D01*
X222514626Y-79098160D01*
X221380599Y-77964133D01*
X221346573Y-77901821D01*
X221344951Y-77857286D01*
X221349517Y-77825205D01*
X221349518Y-77825195D01*
X221350098Y-77821118D01*
X221350241Y-77807500D01*
X221331471Y-77652396D01*
X221276246Y-77506246D01*
X221271947Y-77499991D01*
X221271945Y-77499987D01*
X221192055Y-77383747D01*
X221192054Y-77383745D01*
X221187753Y-77377488D01*
X221104988Y-77303747D01*
X221076773Y-77278608D01*
X221076770Y-77278606D01*
X221071101Y-77273555D01*
X221064387Y-77270000D01*
X220939741Y-77204003D01*
X220939738Y-77204002D01*
X220933026Y-77200448D01*
X220781497Y-77162386D01*
X220773899Y-77162346D01*
X220773897Y-77162346D01*
X220708319Y-77162003D01*
X220625263Y-77161568D01*
X220617883Y-77163340D01*
X220617881Y-77163340D01*
X220544165Y-77181038D01*
X220473344Y-77198041D01*
X220334510Y-77269698D01*
X220216777Y-77372404D01*
X220126940Y-77500228D01*
X220070188Y-77645792D01*
X220049795Y-77800691D01*
X220066939Y-77955983D01*
X220070345Y-77965290D01*
X220097962Y-78040756D01*
X220120631Y-78102703D01*
X220207771Y-78232381D01*
X220213383Y-78237488D01*
X220213386Y-78237491D01*
X220317707Y-78332416D01*
X220317711Y-78332419D01*
X220323328Y-78337530D01*
X220330005Y-78341155D01*
X220330006Y-78341156D01*
X220453953Y-78408454D01*
X220453955Y-78408455D01*
X220460630Y-78412079D01*
X220467979Y-78414007D01*
X220604402Y-78449797D01*
X220604404Y-78449797D01*
X220611752Y-78451725D01*
X220767969Y-78454179D01*
X220767933Y-78456443D01*
X220826733Y-78467189D01*
X220859172Y-78490638D01*
X221852595Y-79484061D01*
X221886621Y-79546373D01*
X221889500Y-79573156D01*
X221889500Y-84380486D01*
X221869498Y-84448607D01*
X221815842Y-84495100D01*
X221745568Y-84505204D01*
X221704546Y-84491842D01*
X221683026Y-84480448D01*
X221531497Y-84442386D01*
X221523899Y-84442346D01*
X221523897Y-84442346D01*
X221458319Y-84442003D01*
X221375263Y-84441568D01*
X221367883Y-84443340D01*
X221367881Y-84443340D01*
X221294165Y-84461038D01*
X221223344Y-84478041D01*
X221084510Y-84549698D01*
X221078787Y-84554691D01*
X221078782Y-84554694D01*
X221049330Y-84580387D01*
X220984848Y-84610096D01*
X220914541Y-84600227D01*
X220860730Y-84553913D01*
X220840500Y-84485439D01*
X220840500Y-83330464D01*
X220842891Y-83307995D01*
X220843015Y-83305373D01*
X220845206Y-83295194D01*
X220841373Y-83262808D01*
X220841036Y-83257091D01*
X220840928Y-83257100D01*
X220840500Y-83251919D01*
X220840500Y-83246722D01*
X220839648Y-83241602D01*
X220839647Y-83241594D01*
X220837419Y-83228213D01*
X220836582Y-83222331D01*
X220833059Y-83192565D01*
X220830709Y-83172705D01*
X220826838Y-83164644D01*
X220825371Y-83155829D01*
X220801653Y-83111872D01*
X220798957Y-83106581D01*
X220780752Y-83068668D01*
X220780751Y-83068667D01*
X220777317Y-83061515D01*
X220773811Y-83057345D01*
X220771884Y-83055418D01*
X220770203Y-83053586D01*
X220770097Y-83053388D01*
X220770190Y-83053302D01*
X220769830Y-83052894D01*
X220766800Y-83047278D01*
X220754134Y-83035569D01*
X220728192Y-83011589D01*
X220724626Y-83008160D01*
X218950599Y-81234133D01*
X218916573Y-81171821D01*
X218914951Y-81127286D01*
X218919517Y-81095205D01*
X218919518Y-81095195D01*
X218920098Y-81091118D01*
X218920241Y-81077500D01*
X218901471Y-80922396D01*
X218846246Y-80776246D01*
X218841947Y-80769991D01*
X218841945Y-80769987D01*
X218762055Y-80653747D01*
X218762054Y-80653745D01*
X218757753Y-80647488D01*
X218746444Y-80637412D01*
X218646773Y-80548608D01*
X218646770Y-80548606D01*
X218641101Y-80543555D01*
X218634387Y-80540000D01*
X218509741Y-80474003D01*
X218509738Y-80474002D01*
X218503026Y-80470448D01*
X218351497Y-80432386D01*
X218343899Y-80432346D01*
X218343897Y-80432346D01*
X218278319Y-80432003D01*
X218195263Y-80431568D01*
X218187883Y-80433340D01*
X218187881Y-80433340D01*
X218114165Y-80451038D01*
X218043344Y-80468041D01*
X217904510Y-80539698D01*
X217786777Y-80642404D01*
X217696940Y-80770228D01*
X217640188Y-80915792D01*
X217636789Y-80941608D01*
X217621386Y-81058608D01*
X217619795Y-81070691D01*
X217636939Y-81225983D01*
X217646466Y-81252018D01*
X217659382Y-81287310D01*
X217690631Y-81372703D01*
X217777771Y-81502381D01*
X217783383Y-81507488D01*
X217783386Y-81507491D01*
X217887707Y-81602416D01*
X217887711Y-81602419D01*
X217893328Y-81607530D01*
X217900005Y-81611155D01*
X217900006Y-81611156D01*
X218023953Y-81678454D01*
X218023955Y-81678455D01*
X218030630Y-81682079D01*
X218037979Y-81684007D01*
X218174402Y-81719797D01*
X218174404Y-81719797D01*
X218181752Y-81721725D01*
X218337969Y-81724179D01*
X218337933Y-81726443D01*
X218396733Y-81737189D01*
X218429172Y-81760638D01*
X220062595Y-83394062D01*
X220096621Y-83456374D01*
X220099500Y-83483157D01*
X220099500Y-86616780D01*
X220079498Y-86684901D01*
X220056329Y-86711729D01*
X219992503Y-86767408D01*
X219992499Y-86767412D01*
X219986777Y-86772404D01*
X219982410Y-86778618D01*
X219901347Y-86893958D01*
X219896940Y-86900228D01*
X219840188Y-87045792D01*
X219835639Y-87080346D01*
X219822559Y-87179698D01*
X219819795Y-87200691D01*
X219836939Y-87355983D01*
X219839549Y-87363115D01*
X219865397Y-87433747D01*
X219890631Y-87502703D01*
X219977771Y-87632381D01*
X219983383Y-87637488D01*
X219983386Y-87637491D01*
X220087707Y-87732416D01*
X220087711Y-87732419D01*
X220093328Y-87737530D01*
X220100005Y-87741155D01*
X220100006Y-87741156D01*
X220223953Y-87808454D01*
X220223955Y-87808455D01*
X220230630Y-87812079D01*
X220237979Y-87814007D01*
X220374402Y-87849797D01*
X220374404Y-87849797D01*
X220381752Y-87851725D01*
X220464424Y-87853024D01*
X220530372Y-87854060D01*
X220530375Y-87854060D01*
X220537969Y-87854179D01*
X220579792Y-87844600D01*
X220650659Y-87848889D01*
X220707957Y-87890811D01*
X220733495Y-87957055D01*
X220719164Y-88026590D01*
X220697018Y-88056515D01*
X220183439Y-88570095D01*
X220121126Y-88604120D01*
X220094343Y-88607000D01*
X210095656Y-88607000D01*
X210027535Y-88586998D01*
X210006561Y-88570095D01*
X208459436Y-87022970D01*
X208445238Y-87005391D01*
X208443470Y-87003448D01*
X208437822Y-86994701D01*
X208412210Y-86974510D01*
X208407929Y-86970705D01*
X208407859Y-86970788D01*
X208403895Y-86967429D01*
X208400220Y-86963754D01*
X208384948Y-86952840D01*
X208380203Y-86949277D01*
X208349138Y-86924787D01*
X208349136Y-86924786D01*
X208340958Y-86918339D01*
X208332523Y-86915377D01*
X208325251Y-86910180D01*
X208277376Y-86895862D01*
X208271731Y-86894028D01*
X208232060Y-86880096D01*
X208232057Y-86880095D01*
X208224581Y-86877470D01*
X208219154Y-86877000D01*
X208216440Y-86877000D01*
X208213943Y-86876892D01*
X208213715Y-86876824D01*
X208213720Y-86876701D01*
X208213193Y-86876668D01*
X208207078Y-86874839D01*
X208155076Y-86876882D01*
X208154541Y-86876903D01*
X208149595Y-86877000D01*
X203922959Y-86877000D01*
X203900515Y-86874611D01*
X203897873Y-86874486D01*
X203887694Y-86872295D01*
X203857016Y-86875926D01*
X203855316Y-86876127D01*
X203849592Y-86876464D01*
X203849601Y-86876572D01*
X203844424Y-86877000D01*
X203839222Y-86877000D01*
X203820687Y-86880085D01*
X203814826Y-86880919D01*
X203806348Y-86881923D01*
X203775543Y-86885568D01*
X203775541Y-86885569D01*
X203765204Y-86886792D01*
X203757146Y-86890661D01*
X203748329Y-86892129D01*
X203739167Y-86897073D01*
X203739163Y-86897074D01*
X203704350Y-86915858D01*
X203699061Y-86918553D01*
X203692891Y-86921516D01*
X203654015Y-86940184D01*
X203649845Y-86943689D01*
X203647913Y-86945621D01*
X203646087Y-86947296D01*
X203645881Y-86947407D01*
X203645797Y-86947315D01*
X203645395Y-86947669D01*
X203639778Y-86950700D01*
X203632708Y-86958348D01*
X203632707Y-86958349D01*
X203604089Y-86989308D01*
X203600660Y-86992874D01*
X203558120Y-87035414D01*
X203495808Y-87069440D01*
X203468366Y-87072317D01*
X203398518Y-87071952D01*
X203325263Y-87071568D01*
X203317883Y-87073340D01*
X203317881Y-87073340D01*
X203288700Y-87080346D01*
X203173344Y-87108041D01*
X203034510Y-87179698D01*
X202916777Y-87282404D01*
X202826940Y-87410228D01*
X202770188Y-87555792D01*
X202769197Y-87563321D01*
X202751823Y-87695289D01*
X202749795Y-87710691D01*
X202766939Y-87865983D01*
X202769549Y-87873115D01*
X202815991Y-88000023D01*
X202820631Y-88012703D01*
X202907771Y-88142381D01*
X202913383Y-88147488D01*
X202913386Y-88147491D01*
X203017707Y-88242416D01*
X203017711Y-88242419D01*
X203023328Y-88247530D01*
X203030005Y-88251155D01*
X203030006Y-88251156D01*
X203153953Y-88318454D01*
X203153955Y-88318455D01*
X203160630Y-88322079D01*
X203167979Y-88324007D01*
X203304402Y-88359797D01*
X203304404Y-88359797D01*
X203311752Y-88361725D01*
X203394424Y-88363024D01*
X203460372Y-88364060D01*
X203460375Y-88364060D01*
X203467969Y-88364179D01*
X203521560Y-88351905D01*
X203612858Y-88330995D01*
X203612862Y-88330994D01*
X203620261Y-88329299D01*
X203627047Y-88325886D01*
X203627050Y-88325885D01*
X203742914Y-88267613D01*
X203812758Y-88254875D01*
X203878402Y-88281920D01*
X203909862Y-88320601D01*
X203910631Y-88322703D01*
X203997771Y-88452381D01*
X204003383Y-88457488D01*
X204003386Y-88457491D01*
X204107707Y-88552416D01*
X204107711Y-88552419D01*
X204113328Y-88557530D01*
X204120005Y-88561155D01*
X204120006Y-88561156D01*
X204243953Y-88628454D01*
X204243955Y-88628455D01*
X204250630Y-88632079D01*
X204257979Y-88634007D01*
X204394402Y-88669797D01*
X204394404Y-88669797D01*
X204401752Y-88671725D01*
X204484424Y-88673024D01*
X204550372Y-88674060D01*
X204550375Y-88674060D01*
X204557969Y-88674179D01*
X204611560Y-88661905D01*
X204702858Y-88640995D01*
X204702862Y-88640994D01*
X204710261Y-88639299D01*
X204814251Y-88586998D01*
X204843052Y-88572513D01*
X204849838Y-88569100D01*
X204877060Y-88545850D01*
X204962867Y-88472565D01*
X204962869Y-88472562D01*
X204968641Y-88467633D01*
X204980971Y-88450474D01*
X205036966Y-88406826D01*
X205083294Y-88398000D01*
X207644344Y-88398000D01*
X207712465Y-88418002D01*
X207733439Y-88434905D01*
X208950439Y-89651905D01*
X208984465Y-89714217D01*
X208979400Y-89785032D01*
X208936853Y-89841868D01*
X208870333Y-89866679D01*
X208861344Y-89867000D01*
X207422964Y-89867000D01*
X207400495Y-89864609D01*
X207397873Y-89864485D01*
X207387694Y-89862294D01*
X207356510Y-89865985D01*
X207355308Y-89866127D01*
X207349591Y-89866464D01*
X207349600Y-89866572D01*
X207344419Y-89867000D01*
X207339222Y-89867000D01*
X207334102Y-89867852D01*
X207334094Y-89867853D01*
X207320713Y-89870081D01*
X207314831Y-89870918D01*
X207310014Y-89871488D01*
X207265205Y-89876791D01*
X207257144Y-89880662D01*
X207248329Y-89882129D01*
X207225387Y-89894508D01*
X207204374Y-89905846D01*
X207199082Y-89908543D01*
X207154015Y-89930183D01*
X207149845Y-89933689D01*
X207147918Y-89935616D01*
X207146086Y-89937297D01*
X207145888Y-89937403D01*
X207145802Y-89937310D01*
X207145394Y-89937670D01*
X207139778Y-89940700D01*
X207132708Y-89948348D01*
X207132707Y-89948349D01*
X207104089Y-89979308D01*
X207100660Y-89982874D01*
X206243439Y-90840095D01*
X206181127Y-90874121D01*
X206154344Y-90877000D01*
X205144946Y-90877000D01*
X205076825Y-90856998D01*
X205047774Y-90828832D01*
X205047078Y-90829446D01*
X205042059Y-90823753D01*
X205037753Y-90817488D01*
X204998376Y-90782404D01*
X204926773Y-90718608D01*
X204926770Y-90718606D01*
X204921101Y-90713555D01*
X204914387Y-90710000D01*
X204789741Y-90644003D01*
X204789738Y-90644002D01*
X204783026Y-90640448D01*
X204631497Y-90602386D01*
X204623899Y-90602346D01*
X204623897Y-90602346D01*
X204558319Y-90602003D01*
X204475263Y-90601568D01*
X204467883Y-90603340D01*
X204467881Y-90603340D01*
X204436480Y-90610879D01*
X204323344Y-90638041D01*
X204184510Y-90709698D01*
X204066777Y-90812404D01*
X204062410Y-90818618D01*
X203998025Y-90910228D01*
X203976940Y-90940228D01*
X203920188Y-91085792D01*
X203918350Y-91099752D01*
X203901513Y-91227642D01*
X203899795Y-91240691D01*
X203916939Y-91395983D01*
X203919549Y-91403115D01*
X203959653Y-91512703D01*
X203970631Y-91542703D01*
X204057771Y-91672381D01*
X204063383Y-91677488D01*
X204063386Y-91677491D01*
X204167707Y-91772416D01*
X204167711Y-91772419D01*
X204173328Y-91777530D01*
X204180005Y-91781155D01*
X204180006Y-91781156D01*
X204303953Y-91848454D01*
X204303955Y-91848455D01*
X204310630Y-91852079D01*
X204317979Y-91854007D01*
X204454402Y-91889797D01*
X204454404Y-91889797D01*
X204461752Y-91891725D01*
X204544424Y-91893024D01*
X204610372Y-91894060D01*
X204610375Y-91894060D01*
X204617969Y-91894179D01*
X204671560Y-91881905D01*
X204762858Y-91860995D01*
X204762862Y-91860994D01*
X204770261Y-91859299D01*
X204909838Y-91789100D01*
X204941122Y-91762381D01*
X205022867Y-91692565D01*
X205022869Y-91692562D01*
X205028641Y-91687633D01*
X205040971Y-91670474D01*
X205096966Y-91626826D01*
X205143294Y-91618000D01*
X206307036Y-91618000D01*
X206329505Y-91620391D01*
X206332127Y-91620515D01*
X206342306Y-91622706D01*
X206374692Y-91618873D01*
X206380409Y-91618536D01*
X206380400Y-91618428D01*
X206385581Y-91618000D01*
X206390778Y-91618000D01*
X206395898Y-91617148D01*
X206395906Y-91617147D01*
X206409287Y-91614919D01*
X206415169Y-91614082D01*
X206419986Y-91613512D01*
X206464795Y-91608209D01*
X206472856Y-91604338D01*
X206481671Y-91602871D01*
X206525656Y-91579138D01*
X206530919Y-91576457D01*
X206568838Y-91558249D01*
X206568844Y-91558245D01*
X206575985Y-91554816D01*
X206580155Y-91551311D01*
X206582080Y-91549386D01*
X206583914Y-91547704D01*
X206584119Y-91547593D01*
X206584203Y-91547685D01*
X206584605Y-91547331D01*
X206590222Y-91544300D01*
X206625910Y-91505693D01*
X206629340Y-91502126D01*
X207486563Y-90644904D01*
X207548875Y-90610879D01*
X207575658Y-90608000D01*
X207826789Y-90608000D01*
X207894910Y-90628002D01*
X207941403Y-90681658D01*
X207951507Y-90751932D01*
X207929876Y-90806451D01*
X207862439Y-90902404D01*
X207856940Y-90910228D01*
X207800188Y-91055792D01*
X207795466Y-91091661D01*
X207784390Y-91175792D01*
X207779795Y-91210691D01*
X207796939Y-91365983D01*
X207799549Y-91373115D01*
X207847403Y-91503881D01*
X207850631Y-91512703D01*
X207937771Y-91642381D01*
X207943383Y-91647488D01*
X207943386Y-91647491D01*
X208008663Y-91706888D01*
X208045585Y-91767528D01*
X208043862Y-91838504D01*
X208006693Y-91895030D01*
X207986777Y-91912404D01*
X207982410Y-91918618D01*
X207927189Y-91997189D01*
X207896940Y-92040228D01*
X207840188Y-92185792D01*
X207836147Y-92216485D01*
X207822227Y-92322221D01*
X207819795Y-92340691D01*
X207836939Y-92495983D01*
X207890631Y-92642703D01*
X207977771Y-92772381D01*
X207983383Y-92777488D01*
X207983386Y-92777491D01*
X208087707Y-92872416D01*
X208087711Y-92872419D01*
X208093328Y-92877530D01*
X208100005Y-92881155D01*
X208100006Y-92881156D01*
X208223953Y-92948454D01*
X208223955Y-92948455D01*
X208230630Y-92952079D01*
X208237979Y-92954007D01*
X208374402Y-92989797D01*
X208374404Y-92989797D01*
X208381752Y-92991725D01*
X208464424Y-92993024D01*
X208530372Y-92994060D01*
X208530375Y-92994060D01*
X208537969Y-92994179D01*
X208690261Y-92959299D01*
X208695576Y-92956626D01*
X208765746Y-92952414D01*
X208827664Y-92987150D01*
X208842136Y-93004943D01*
X208927771Y-93132381D01*
X208933383Y-93137488D01*
X208933386Y-93137491D01*
X209037707Y-93232416D01*
X209037711Y-93232419D01*
X209043328Y-93237530D01*
X209050005Y-93241155D01*
X209050006Y-93241156D01*
X209173953Y-93308454D01*
X209173955Y-93308455D01*
X209180630Y-93312079D01*
X209187979Y-93314007D01*
X209324402Y-93349797D01*
X209324404Y-93349797D01*
X209331752Y-93351725D01*
X209414424Y-93353024D01*
X209480372Y-93354060D01*
X209480375Y-93354060D01*
X209487969Y-93354179D01*
X209541560Y-93341905D01*
X209632858Y-93320995D01*
X209632862Y-93320994D01*
X209640261Y-93319299D01*
X209779838Y-93249100D01*
X209807060Y-93225850D01*
X209892867Y-93152565D01*
X209892869Y-93152562D01*
X209898641Y-93147633D01*
X209989811Y-93020756D01*
X209996168Y-93004944D01*
X210045251Y-92882845D01*
X210045251Y-92882844D01*
X210048085Y-92875795D01*
X210057983Y-92806247D01*
X210087384Y-92741624D01*
X210147055Y-92703155D01*
X210182726Y-92698000D01*
X218473630Y-92698000D01*
X218541751Y-92718002D01*
X218562725Y-92734905D01*
X221748202Y-95920382D01*
X221782228Y-95982694D01*
X221777163Y-96053509D01*
X221734616Y-96110345D01*
X221688524Y-96131995D01*
X221670733Y-96136267D01*
X221663344Y-96138041D01*
X221524510Y-96209698D01*
X221406777Y-96312404D01*
X221369189Y-96365886D01*
X221326185Y-96427074D01*
X221316940Y-96440228D01*
X221260188Y-96585792D01*
X221256209Y-96616016D01*
X221242195Y-96722465D01*
X221239795Y-96740691D01*
X221256939Y-96895983D01*
X221259549Y-96903115D01*
X221292644Y-96993550D01*
X221310631Y-97042703D01*
X221314867Y-97049006D01*
X221314867Y-97049007D01*
X221329345Y-97070553D01*
X221397771Y-97172381D01*
X221500432Y-97265795D01*
X221525735Y-97306412D01*
X221529289Y-97304705D01*
X221529291Y-97304709D01*
X221529291Y-97304710D01*
X221530838Y-97307932D01*
X221533395Y-97314174D01*
X221534629Y-97321586D01*
X221558362Y-97365571D01*
X221561043Y-97370834D01*
X221579251Y-97408753D01*
X221579255Y-97408759D01*
X221582684Y-97415900D01*
X221586189Y-97420070D01*
X221588114Y-97421995D01*
X221589796Y-97423829D01*
X221589907Y-97424034D01*
X221589815Y-97424118D01*
X221590169Y-97424520D01*
X221593200Y-97430137D01*
X221600848Y-97437207D01*
X221600849Y-97437208D01*
X221631808Y-97465826D01*
X221635374Y-97469255D01*
X224051586Y-99885467D01*
X224085612Y-99947779D01*
X224080547Y-100018594D01*
X224045568Y-100069294D01*
X223936234Y-100165177D01*
X223811587Y-100323292D01*
X223808898Y-100328403D01*
X223808896Y-100328406D01*
X223794911Y-100354988D01*
X223717840Y-100501474D01*
X223658135Y-100693757D01*
X223634470Y-100893700D01*
X223647638Y-101094608D01*
X223697198Y-101289752D01*
X223706460Y-101309842D01*
X223716816Y-101380079D01*
X223687555Y-101444765D01*
X223681130Y-101451690D01*
X223132725Y-102000095D01*
X223070413Y-102034121D01*
X223043630Y-102037000D01*
X208980156Y-102037000D01*
X208912035Y-102016998D01*
X208891061Y-102000095D01*
X207885099Y-100994133D01*
X207851073Y-100931821D01*
X207849451Y-100887286D01*
X207854017Y-100855205D01*
X207854018Y-100855195D01*
X207854598Y-100851118D01*
X207854741Y-100837500D01*
X207835971Y-100682396D01*
X207792401Y-100567091D01*
X207783431Y-100543351D01*
X207783430Y-100543349D01*
X207780746Y-100536246D01*
X207776447Y-100529991D01*
X207776445Y-100529987D01*
X207696555Y-100413747D01*
X207696554Y-100413745D01*
X207692253Y-100407488D01*
X207651878Y-100371515D01*
X207581273Y-100308608D01*
X207581270Y-100308606D01*
X207575601Y-100303555D01*
X207547649Y-100288755D01*
X207444241Y-100234003D01*
X207444238Y-100234002D01*
X207437526Y-100230448D01*
X207285997Y-100192386D01*
X207278399Y-100192346D01*
X207278397Y-100192346D01*
X207212819Y-100192003D01*
X207129763Y-100191568D01*
X207005914Y-100221302D01*
X206935007Y-100217755D01*
X206877273Y-100176435D01*
X206851042Y-100110462D01*
X206850500Y-100098783D01*
X206850500Y-97154295D01*
X206852891Y-97131826D01*
X206853015Y-97129204D01*
X206855206Y-97119025D01*
X206851373Y-97086639D01*
X206851036Y-97080922D01*
X206850928Y-97080931D01*
X206850500Y-97075750D01*
X206850500Y-97070553D01*
X206849648Y-97065433D01*
X206849647Y-97065425D01*
X206847419Y-97052044D01*
X206846582Y-97046162D01*
X206841932Y-97006874D01*
X206840709Y-96996536D01*
X206836838Y-96988475D01*
X206835371Y-96979660D01*
X206811653Y-96935703D01*
X206808957Y-96930412D01*
X206790748Y-96892490D01*
X206790746Y-96892487D01*
X206787317Y-96885346D01*
X206783812Y-96881176D01*
X206781874Y-96879238D01*
X206780203Y-96877415D01*
X206780093Y-96877213D01*
X206780186Y-96877128D01*
X206779829Y-96876724D01*
X206776800Y-96871109D01*
X206764914Y-96860121D01*
X206738218Y-96835444D01*
X206734652Y-96832016D01*
X206421944Y-96519308D01*
X206061744Y-96159109D01*
X206027719Y-96096796D01*
X206026096Y-96052260D01*
X206030662Y-96020178D01*
X206030662Y-96020174D01*
X206031243Y-96016094D01*
X206031386Y-96002476D01*
X206019439Y-95903754D01*
X206013529Y-95854915D01*
X206013529Y-95854914D01*
X206012616Y-95847372D01*
X205957391Y-95701222D01*
X205953092Y-95694967D01*
X205953090Y-95694963D01*
X205873200Y-95578723D01*
X205873199Y-95578721D01*
X205868898Y-95572464D01*
X205857589Y-95562388D01*
X205757918Y-95473584D01*
X205757915Y-95473582D01*
X205752246Y-95468531D01*
X205745532Y-95464976D01*
X205620886Y-95398979D01*
X205620883Y-95398978D01*
X205614171Y-95395424D01*
X205577465Y-95386204D01*
X205516270Y-95350209D01*
X205484249Y-95286843D01*
X205491570Y-95216225D01*
X205535907Y-95160775D01*
X205608161Y-95138000D01*
X208814348Y-95138000D01*
X208882469Y-95158002D01*
X208909728Y-95181667D01*
X208913535Y-95186077D01*
X208917771Y-95192381D01*
X208923390Y-95197494D01*
X209027707Y-95292416D01*
X209027711Y-95292419D01*
X209033328Y-95297530D01*
X209040005Y-95301155D01*
X209040006Y-95301156D01*
X209163953Y-95368454D01*
X209163955Y-95368455D01*
X209170630Y-95372079D01*
X209177979Y-95374007D01*
X209314402Y-95409797D01*
X209314404Y-95409797D01*
X209321752Y-95411725D01*
X209404424Y-95413024D01*
X209470372Y-95414060D01*
X209470375Y-95414060D01*
X209477969Y-95414179D01*
X209544335Y-95398979D01*
X209622858Y-95380995D01*
X209622862Y-95380994D01*
X209630261Y-95379299D01*
X209769838Y-95309100D01*
X209818369Y-95267651D01*
X209882867Y-95212565D01*
X209882869Y-95212562D01*
X209888641Y-95207633D01*
X209979811Y-95080756D01*
X209985859Y-95065713D01*
X210035251Y-94942845D01*
X210035251Y-94942844D01*
X210038085Y-94935795D01*
X210060098Y-94781118D01*
X210060241Y-94767500D01*
X210041471Y-94612396D01*
X209986246Y-94466246D01*
X209981947Y-94459991D01*
X209981945Y-94459987D01*
X209902055Y-94343747D01*
X209902054Y-94343745D01*
X209897753Y-94337488D01*
X209874271Y-94316566D01*
X209786773Y-94238608D01*
X209786770Y-94238606D01*
X209781101Y-94233555D01*
X209774387Y-94230000D01*
X209649741Y-94164003D01*
X209649738Y-94164002D01*
X209643026Y-94160448D01*
X209491497Y-94122386D01*
X209483899Y-94122346D01*
X209483897Y-94122346D01*
X209418319Y-94122003D01*
X209335263Y-94121568D01*
X209327883Y-94123340D01*
X209327881Y-94123340D01*
X209254165Y-94141038D01*
X209183344Y-94158041D01*
X209044510Y-94229698D01*
X208926777Y-94332404D01*
X208919242Y-94343125D01*
X208919013Y-94343451D01*
X208863478Y-94387682D01*
X208815926Y-94397000D01*
X205165657Y-94397000D01*
X205097536Y-94376998D01*
X205076562Y-94360095D01*
X202210599Y-91494133D01*
X202176573Y-91431821D01*
X202174951Y-91387286D01*
X202179517Y-91355205D01*
X202179518Y-91355195D01*
X202180098Y-91351118D01*
X202180241Y-91337500D01*
X202167614Y-91233160D01*
X202162384Y-91189939D01*
X202162384Y-91189938D01*
X202161471Y-91182396D01*
X202106246Y-91036246D01*
X202101947Y-91029991D01*
X202101945Y-91029987D01*
X202022055Y-90913747D01*
X202022054Y-90913745D01*
X202017753Y-90907488D01*
X201980303Y-90874121D01*
X201906773Y-90808608D01*
X201906770Y-90808606D01*
X201901101Y-90803555D01*
X201894387Y-90800000D01*
X201769741Y-90734003D01*
X201769738Y-90734002D01*
X201763026Y-90730448D01*
X201611497Y-90692386D01*
X201603899Y-90692346D01*
X201603897Y-90692346D01*
X201538319Y-90692003D01*
X201455263Y-90691568D01*
X201447883Y-90693340D01*
X201447881Y-90693340D01*
X201404730Y-90703700D01*
X201303344Y-90728041D01*
X201164510Y-90799698D01*
X201046777Y-90902404D01*
X200956940Y-91030228D01*
X200900188Y-91175792D01*
X200894728Y-91217263D01*
X200887797Y-91269914D01*
X200879795Y-91330691D01*
X200896939Y-91485983D01*
X200902847Y-91502126D01*
X200946973Y-91622706D01*
X200950631Y-91632703D01*
X201037771Y-91762381D01*
X201043383Y-91767488D01*
X201043386Y-91767491D01*
X201147707Y-91862416D01*
X201147711Y-91862419D01*
X201153328Y-91867530D01*
X201160005Y-91871155D01*
X201160006Y-91871156D01*
X201283953Y-91938454D01*
X201283955Y-91938455D01*
X201290630Y-91942079D01*
X201297979Y-91944007D01*
X201434402Y-91979797D01*
X201434404Y-91979797D01*
X201441752Y-91981725D01*
X201597969Y-91984179D01*
X201597933Y-91986443D01*
X201656733Y-91997189D01*
X201689172Y-92020638D01*
X202425433Y-92756899D01*
X202459459Y-92819211D01*
X202454394Y-92890026D01*
X202411847Y-92946862D01*
X202394131Y-92957957D01*
X202344931Y-92983351D01*
X202281261Y-93016213D01*
X202281257Y-93016215D01*
X202274510Y-93019698D01*
X202156777Y-93122404D01*
X202139046Y-93147633D01*
X202075559Y-93237965D01*
X202066940Y-93250228D01*
X202010188Y-93395792D01*
X202009197Y-93403321D01*
X201991886Y-93534809D01*
X201989795Y-93550691D01*
X201991354Y-93564809D01*
X201993401Y-93583356D01*
X201980995Y-93653261D01*
X201957257Y-93686277D01*
X200568120Y-95075414D01*
X200505808Y-95109440D01*
X200478366Y-95112317D01*
X200408518Y-95111952D01*
X200335263Y-95111568D01*
X200327883Y-95113340D01*
X200327881Y-95113340D01*
X200298700Y-95120346D01*
X200183344Y-95148041D01*
X200044510Y-95219698D01*
X199926777Y-95322404D01*
X199890055Y-95374654D01*
X199844403Y-95439610D01*
X199836940Y-95450228D01*
X199780188Y-95595792D01*
X199777068Y-95619494D01*
X199766168Y-95702286D01*
X199759795Y-95750691D01*
X190828799Y-95750691D01*
X190816056Y-95612006D01*
X190813093Y-95601498D01*
X190777017Y-95473584D01*
X190761405Y-95418226D01*
X190672355Y-95237651D01*
X190579528Y-95113340D01*
X190555342Y-95080951D01*
X190555341Y-95080950D01*
X190551889Y-95076327D01*
X190540407Y-95065713D01*
X190408281Y-94943577D01*
X190408278Y-94943575D01*
X190404041Y-94939658D01*
X190233763Y-94832221D01*
X190046758Y-94757613D01*
X190041090Y-94756486D01*
X190041088Y-94756485D01*
X189854954Y-94719461D01*
X189854952Y-94719461D01*
X189849287Y-94718334D01*
X189843512Y-94718258D01*
X189843508Y-94718258D01*
X189743176Y-94716945D01*
X189647966Y-94715699D01*
X189642269Y-94716678D01*
X189642268Y-94716678D01*
X189455232Y-94748816D01*
X189455231Y-94748816D01*
X189449535Y-94749795D01*
X189260641Y-94819482D01*
X189255680Y-94822434D01*
X189255679Y-94822434D01*
X189239229Y-94832221D01*
X189087609Y-94922425D01*
X188936234Y-95055177D01*
X188811587Y-95213292D01*
X188808898Y-95218403D01*
X188808896Y-95218406D01*
X188769957Y-95292416D01*
X188717840Y-95391474D01*
X188667774Y-95552713D01*
X188661642Y-95572464D01*
X188658135Y-95583757D01*
X188634470Y-95783700D01*
X187515500Y-95783700D01*
X187515500Y-93243700D01*
X188634470Y-93243700D01*
X188647638Y-93444608D01*
X188649061Y-93450210D01*
X188690983Y-93615279D01*
X188697198Y-93639752D01*
X188781491Y-93822596D01*
X188897693Y-93987018D01*
X189041912Y-94127511D01*
X189046708Y-94130716D01*
X189046711Y-94130718D01*
X189158642Y-94205507D01*
X189209319Y-94239368D01*
X189214622Y-94241646D01*
X189214625Y-94241648D01*
X189372394Y-94309431D01*
X189394308Y-94318846D01*
X189590682Y-94363281D01*
X189596451Y-94363508D01*
X189596454Y-94363508D01*
X189672136Y-94366481D01*
X189791866Y-94371185D01*
X189877819Y-94358723D01*
X189985400Y-94343125D01*
X189985405Y-94343124D01*
X189991121Y-94342295D01*
X189996593Y-94340437D01*
X189996595Y-94340437D01*
X190176311Y-94279431D01*
X190176313Y-94279430D01*
X190181775Y-94277576D01*
X190357442Y-94179198D01*
X190512240Y-94050454D01*
X190640984Y-93895656D01*
X190739362Y-93719989D01*
X190754976Y-93673994D01*
X190802223Y-93534809D01*
X190802223Y-93534807D01*
X190804081Y-93529335D01*
X190804910Y-93523619D01*
X190804911Y-93523614D01*
X190824469Y-93388716D01*
X190832971Y-93330080D01*
X190834479Y-93272500D01*
X190816056Y-93072006D01*
X190761405Y-92878226D01*
X190672355Y-92697651D01*
X190551889Y-92536327D01*
X190524893Y-92511372D01*
X190408281Y-92403577D01*
X190408278Y-92403575D01*
X190404041Y-92399658D01*
X190233763Y-92292221D01*
X190046758Y-92217613D01*
X190041090Y-92216486D01*
X190041088Y-92216485D01*
X189854954Y-92179461D01*
X189854952Y-92179461D01*
X189849287Y-92178334D01*
X189843512Y-92178258D01*
X189843508Y-92178258D01*
X189743176Y-92176945D01*
X189647966Y-92175699D01*
X189642269Y-92176678D01*
X189642268Y-92176678D01*
X189455232Y-92208816D01*
X189455231Y-92208816D01*
X189449535Y-92209795D01*
X189260641Y-92279482D01*
X189255680Y-92282434D01*
X189255679Y-92282434D01*
X189205254Y-92312434D01*
X189087609Y-92382425D01*
X188936234Y-92515177D01*
X188811587Y-92673292D01*
X188808898Y-92678403D01*
X188808896Y-92678406D01*
X188775635Y-92741624D01*
X188717840Y-92851474D01*
X188658135Y-93043757D01*
X188634470Y-93243700D01*
X187515500Y-93243700D01*
X187515500Y-90703700D01*
X188634470Y-90703700D01*
X188647638Y-90904608D01*
X188656684Y-90940228D01*
X188695565Y-91093321D01*
X188697198Y-91099752D01*
X188781491Y-91282596D01*
X188897693Y-91447018D01*
X189041912Y-91587511D01*
X189046708Y-91590716D01*
X189046711Y-91590718D01*
X189124585Y-91642751D01*
X189209319Y-91699368D01*
X189214622Y-91701646D01*
X189214625Y-91701648D01*
X189367965Y-91767528D01*
X189394308Y-91778846D01*
X189590682Y-91823281D01*
X189596451Y-91823508D01*
X189596454Y-91823508D01*
X189672136Y-91826481D01*
X189791866Y-91831185D01*
X189877819Y-91818723D01*
X189985400Y-91803125D01*
X189985405Y-91803124D01*
X189991121Y-91802295D01*
X189996593Y-91800437D01*
X189996595Y-91800437D01*
X190176311Y-91739431D01*
X190176313Y-91739430D01*
X190181775Y-91737576D01*
X190357442Y-91639198D01*
X190377272Y-91622706D01*
X190507802Y-91514145D01*
X190512240Y-91510454D01*
X190640984Y-91355656D01*
X190739362Y-91179989D01*
X190755473Y-91132530D01*
X190802223Y-90994809D01*
X190802223Y-90994807D01*
X190804081Y-90989335D01*
X190804910Y-90983619D01*
X190804911Y-90983614D01*
X190829734Y-90812404D01*
X190832971Y-90790080D01*
X190834479Y-90732500D01*
X190816056Y-90532006D01*
X190761405Y-90338226D01*
X190672355Y-90157651D01*
X190551889Y-89996327D01*
X190487838Y-89937119D01*
X190408281Y-89863577D01*
X190408278Y-89863575D01*
X190404041Y-89859658D01*
X190233763Y-89752221D01*
X190217717Y-89745819D01*
X190138506Y-89714217D01*
X190046758Y-89677613D01*
X190041090Y-89676486D01*
X190041088Y-89676485D01*
X189854954Y-89639461D01*
X189854952Y-89639461D01*
X189849287Y-89638334D01*
X189843512Y-89638258D01*
X189843508Y-89638258D01*
X189743176Y-89636945D01*
X189647966Y-89635699D01*
X189642269Y-89636678D01*
X189642268Y-89636678D01*
X189455232Y-89668816D01*
X189455231Y-89668816D01*
X189449535Y-89669795D01*
X189260641Y-89739482D01*
X189255680Y-89742434D01*
X189255679Y-89742434D01*
X189229265Y-89758149D01*
X189087609Y-89842425D01*
X188936234Y-89975177D01*
X188811587Y-90133292D01*
X188808898Y-90138403D01*
X188808896Y-90138406D01*
X188767208Y-90217641D01*
X188717840Y-90311474D01*
X188658135Y-90503757D01*
X188634470Y-90703700D01*
X187515500Y-90703700D01*
X187515500Y-82740691D01*
X194579795Y-82740691D01*
X194596939Y-82895983D01*
X194599549Y-82903115D01*
X194626766Y-82977488D01*
X194650631Y-83042703D01*
X194737771Y-83172381D01*
X194743383Y-83177488D01*
X194743386Y-83177491D01*
X194818300Y-83245657D01*
X194855222Y-83306297D01*
X194859500Y-83338850D01*
X194859500Y-85054536D01*
X194857109Y-85077005D01*
X194856985Y-85079627D01*
X194854794Y-85089806D01*
X194856018Y-85100145D01*
X194858627Y-85122192D01*
X194858964Y-85127909D01*
X194859072Y-85127900D01*
X194859500Y-85133081D01*
X194859500Y-85138278D01*
X194860352Y-85143398D01*
X194860353Y-85143406D01*
X194862581Y-85156787D01*
X194863418Y-85162669D01*
X194869291Y-85212295D01*
X194873162Y-85220356D01*
X194874629Y-85229171D01*
X194898362Y-85273156D01*
X194901043Y-85278419D01*
X194919251Y-85316338D01*
X194919255Y-85316344D01*
X194922684Y-85323485D01*
X194926189Y-85327655D01*
X194928114Y-85329580D01*
X194929796Y-85331414D01*
X194929907Y-85331619D01*
X194929815Y-85331703D01*
X194930169Y-85332105D01*
X194933200Y-85337722D01*
X194940848Y-85344792D01*
X194940849Y-85344793D01*
X194971808Y-85373411D01*
X194975374Y-85376840D01*
X196510564Y-86912030D01*
X196524762Y-86929609D01*
X196526530Y-86931552D01*
X196532178Y-86940299D01*
X196548086Y-86952840D01*
X196557790Y-86960490D01*
X196562073Y-86964296D01*
X196562143Y-86964213D01*
X196566101Y-86967567D01*
X196569780Y-86971246D01*
X196574008Y-86974267D01*
X196574010Y-86974269D01*
X196585060Y-86982165D01*
X196589780Y-86985709D01*
X196629042Y-87016661D01*
X196637479Y-87019624D01*
X196644749Y-87024819D01*
X196654728Y-87027803D01*
X196654727Y-87027803D01*
X196692617Y-87039135D01*
X196698264Y-87040970D01*
X196737940Y-87054904D01*
X196737943Y-87054905D01*
X196745419Y-87057530D01*
X196750846Y-87058000D01*
X196753560Y-87058000D01*
X196756057Y-87058108D01*
X196756285Y-87058176D01*
X196756280Y-87058299D01*
X196756807Y-87058332D01*
X196762922Y-87060161D01*
X196815449Y-87058097D01*
X196820395Y-87058000D01*
X198194344Y-87058000D01*
X198262465Y-87078002D01*
X198283439Y-87094905D01*
X198889752Y-87701218D01*
X198923778Y-87763530D01*
X198925579Y-87806758D01*
X198919795Y-87850691D01*
X198936939Y-88005983D01*
X198939549Y-88013115D01*
X198986854Y-88142381D01*
X198990631Y-88152703D01*
X199077771Y-88282381D01*
X199083383Y-88287488D01*
X199083386Y-88287491D01*
X199187707Y-88382416D01*
X199187711Y-88382419D01*
X199193328Y-88387530D01*
X199200005Y-88391155D01*
X199200006Y-88391156D01*
X199323953Y-88458454D01*
X199323955Y-88458455D01*
X199330630Y-88462079D01*
X199337979Y-88464007D01*
X199474402Y-88499797D01*
X199474404Y-88499797D01*
X199481752Y-88501725D01*
X199564424Y-88503024D01*
X199630372Y-88504060D01*
X199630375Y-88504060D01*
X199637969Y-88504179D01*
X199691560Y-88491905D01*
X199782858Y-88470995D01*
X199782862Y-88470994D01*
X199790261Y-88469299D01*
X199929838Y-88399100D01*
X200005027Y-88334883D01*
X200042867Y-88302565D01*
X200042869Y-88302562D01*
X200048641Y-88297633D01*
X200139811Y-88170756D01*
X200147069Y-88152703D01*
X200195251Y-88032845D01*
X200195251Y-88032844D01*
X200198085Y-88025795D01*
X200217115Y-87892081D01*
X200219517Y-87875202D01*
X200219517Y-87875199D01*
X200220098Y-87871118D01*
X200220241Y-87857500D01*
X200208869Y-87763530D01*
X200202384Y-87709939D01*
X200202384Y-87709938D01*
X200201471Y-87702396D01*
X200146246Y-87556246D01*
X200141947Y-87549991D01*
X200141945Y-87549987D01*
X200062055Y-87433747D01*
X200062054Y-87433745D01*
X200057753Y-87427488D01*
X200051624Y-87422027D01*
X199946773Y-87328608D01*
X199946770Y-87328606D01*
X199941101Y-87323555D01*
X199875117Y-87288618D01*
X199809741Y-87254003D01*
X199809738Y-87254002D01*
X199803026Y-87250448D01*
X199651497Y-87212386D01*
X199643900Y-87212346D01*
X199643898Y-87212346D01*
X199588707Y-87212057D01*
X199499589Y-87211591D01*
X199431574Y-87191233D01*
X199411154Y-87174688D01*
X198699436Y-86462970D01*
X198685238Y-86445391D01*
X198683470Y-86443448D01*
X198677822Y-86434701D01*
X198652210Y-86414510D01*
X198647929Y-86410705D01*
X198647859Y-86410788D01*
X198643895Y-86407429D01*
X198640220Y-86403754D01*
X198624948Y-86392840D01*
X198620203Y-86389277D01*
X198589138Y-86364787D01*
X198589136Y-86364786D01*
X198580958Y-86358339D01*
X198572523Y-86355377D01*
X198565251Y-86350180D01*
X198517376Y-86335862D01*
X198511731Y-86334028D01*
X198472060Y-86320096D01*
X198472057Y-86320095D01*
X198464581Y-86317470D01*
X198459154Y-86317000D01*
X198456440Y-86317000D01*
X198453943Y-86316892D01*
X198453715Y-86316824D01*
X198453720Y-86316701D01*
X198453193Y-86316668D01*
X198447078Y-86314839D01*
X198395076Y-86316882D01*
X198394541Y-86316903D01*
X198389595Y-86317000D01*
X197015656Y-86317000D01*
X196947535Y-86296998D01*
X196926561Y-86280095D01*
X196642102Y-85995636D01*
X196608076Y-85933324D01*
X196613141Y-85862509D01*
X196655688Y-85805673D01*
X196704995Y-85783296D01*
X196856713Y-85751047D01*
X196887430Y-85737371D01*
X197013047Y-85681444D01*
X197013050Y-85681442D01*
X197019079Y-85678758D01*
X197041480Y-85662483D01*
X197087153Y-85629299D01*
X197162866Y-85574290D01*
X197186961Y-85547530D01*
X197277372Y-85447118D01*
X197277373Y-85447117D01*
X197281791Y-85442210D01*
X197350337Y-85323485D01*
X197367353Y-85294013D01*
X197367354Y-85294012D01*
X197370657Y-85288290D01*
X197413385Y-85156787D01*
X197423539Y-85125537D01*
X197423539Y-85125535D01*
X197425579Y-85119258D01*
X197434707Y-85032416D01*
X197443467Y-84949065D01*
X197444157Y-84942500D01*
X197775843Y-84942500D01*
X197776533Y-84949065D01*
X197785294Y-85032416D01*
X197794421Y-85119258D01*
X197796461Y-85125535D01*
X197796461Y-85125537D01*
X197806615Y-85156787D01*
X197849343Y-85288290D01*
X197852646Y-85294012D01*
X197852647Y-85294013D01*
X197869663Y-85323485D01*
X197938209Y-85442210D01*
X197942627Y-85447117D01*
X197942628Y-85447118D01*
X198033039Y-85547530D01*
X198057134Y-85574290D01*
X198132847Y-85629299D01*
X198178521Y-85662483D01*
X198200921Y-85678758D01*
X198206950Y-85681442D01*
X198206953Y-85681444D01*
X198332570Y-85737371D01*
X198363287Y-85751047D01*
X198537134Y-85788000D01*
X198714866Y-85788000D01*
X198888713Y-85751047D01*
X198919430Y-85737371D01*
X199045047Y-85681444D01*
X199045050Y-85681442D01*
X199051079Y-85678758D01*
X199073480Y-85662483D01*
X199119153Y-85629299D01*
X199194866Y-85574290D01*
X199218961Y-85547530D01*
X199309372Y-85447118D01*
X199309373Y-85447117D01*
X199313791Y-85442210D01*
X199382337Y-85323485D01*
X199399353Y-85294013D01*
X199399354Y-85294012D01*
X199402657Y-85288290D01*
X199445385Y-85156787D01*
X199455539Y-85125537D01*
X199455539Y-85125535D01*
X199457579Y-85119258D01*
X199466707Y-85032416D01*
X199475467Y-84949065D01*
X199476157Y-84942500D01*
X199457579Y-84765742D01*
X199402657Y-84596710D01*
X199394398Y-84582404D01*
X199338414Y-84485439D01*
X199313791Y-84442790D01*
X199269771Y-84393900D01*
X199199288Y-84315621D01*
X199199287Y-84315620D01*
X199194866Y-84310710D01*
X199051079Y-84206242D01*
X199045050Y-84203558D01*
X199045047Y-84203556D01*
X198894748Y-84136640D01*
X198894749Y-84136640D01*
X198888713Y-84133953D01*
X198714866Y-84097000D01*
X198537134Y-84097000D01*
X198363287Y-84133953D01*
X198357251Y-84136640D01*
X198357252Y-84136640D01*
X198206954Y-84203556D01*
X198206951Y-84203558D01*
X198200922Y-84206242D01*
X198057134Y-84310710D01*
X198052713Y-84315620D01*
X198052712Y-84315621D01*
X197982230Y-84393900D01*
X197938209Y-84442790D01*
X197913586Y-84485439D01*
X197857603Y-84582404D01*
X197849343Y-84596710D01*
X197794421Y-84765742D01*
X197775843Y-84942500D01*
X197444157Y-84942500D01*
X197425579Y-84765742D01*
X197370657Y-84596710D01*
X197362398Y-84582404D01*
X197306414Y-84485439D01*
X197281791Y-84442790D01*
X197237771Y-84393900D01*
X197167288Y-84315621D01*
X197167287Y-84315620D01*
X197162866Y-84310710D01*
X197019079Y-84206242D01*
X197013050Y-84203558D01*
X197013047Y-84203556D01*
X196862748Y-84136640D01*
X196862749Y-84136640D01*
X196856713Y-84133953D01*
X196682866Y-84097000D01*
X196505134Y-84097000D01*
X196331287Y-84133953D01*
X196325251Y-84136640D01*
X196325252Y-84136640D01*
X196174954Y-84203556D01*
X196174951Y-84203558D01*
X196168922Y-84206242D01*
X196025134Y-84310710D01*
X196020713Y-84315620D01*
X196020712Y-84315621D01*
X195950230Y-84393900D01*
X195906209Y-84442790D01*
X195881586Y-84485439D01*
X195835619Y-84565055D01*
X195784236Y-84614048D01*
X195714523Y-84627484D01*
X195648612Y-84601098D01*
X195607430Y-84543265D01*
X195600500Y-84502055D01*
X195600500Y-83338080D01*
X195620502Y-83269959D01*
X195644670Y-83242269D01*
X195645461Y-83241594D01*
X195668015Y-83222331D01*
X195702867Y-83192565D01*
X195702869Y-83192562D01*
X195708641Y-83187633D01*
X195799811Y-83060756D01*
X195802808Y-83053302D01*
X195855251Y-82922845D01*
X195855251Y-82922844D01*
X195858085Y-82915795D01*
X195880098Y-82761118D01*
X195880241Y-82747500D01*
X195861471Y-82592396D01*
X195806246Y-82446246D01*
X195801947Y-82439991D01*
X195801945Y-82439987D01*
X195722055Y-82323747D01*
X195722054Y-82323745D01*
X195717753Y-82317488D01*
X195665170Y-82270638D01*
X195606773Y-82218608D01*
X195606770Y-82218606D01*
X195601101Y-82213555D01*
X195594387Y-82210000D01*
X195469741Y-82144003D01*
X195469738Y-82144002D01*
X195463026Y-82140448D01*
X195311497Y-82102386D01*
X195303899Y-82102346D01*
X195303897Y-82102346D01*
X195238319Y-82102003D01*
X195155263Y-82101568D01*
X195147883Y-82103340D01*
X195147881Y-82103340D01*
X195110078Y-82112416D01*
X195003344Y-82138041D01*
X194864510Y-82209698D01*
X194746777Y-82312404D01*
X194656940Y-82440228D01*
X194600188Y-82585792D01*
X194579795Y-82740691D01*
X187515500Y-82740691D01*
X187515500Y-81580691D01*
X199699795Y-81580691D01*
X199716939Y-81735983D01*
X199770631Y-81882703D01*
X199857771Y-82012381D01*
X199863383Y-82017488D01*
X199863386Y-82017491D01*
X199967707Y-82112416D01*
X199967711Y-82112419D01*
X199973328Y-82117530D01*
X199980005Y-82121155D01*
X199980006Y-82121156D01*
X200103953Y-82188454D01*
X200103955Y-82188455D01*
X200110630Y-82192079D01*
X200117979Y-82194007D01*
X200254402Y-82229797D01*
X200254404Y-82229797D01*
X200261752Y-82231725D01*
X200417969Y-82234179D01*
X200417933Y-82236443D01*
X200476733Y-82247189D01*
X200509172Y-82270638D01*
X203480564Y-85242030D01*
X203494762Y-85259609D01*
X203496530Y-85261552D01*
X203502178Y-85270299D01*
X203510355Y-85276745D01*
X203527790Y-85290490D01*
X203532070Y-85294294D01*
X203532140Y-85294211D01*
X203536103Y-85297569D01*
X203539781Y-85301247D01*
X203555041Y-85312152D01*
X203559784Y-85315713D01*
X203578867Y-85330756D01*
X203599042Y-85346661D01*
X203607477Y-85349623D01*
X203614749Y-85354820D01*
X203662641Y-85369143D01*
X203668247Y-85370965D01*
X203707938Y-85384904D01*
X203707946Y-85384906D01*
X203715419Y-85387530D01*
X203720846Y-85388000D01*
X203723559Y-85388000D01*
X203726058Y-85388108D01*
X203726285Y-85388176D01*
X203726280Y-85388299D01*
X203726808Y-85388332D01*
X203732923Y-85390161D01*
X203785460Y-85388097D01*
X203790406Y-85388000D01*
X205494348Y-85388000D01*
X205562469Y-85408002D01*
X205589728Y-85431667D01*
X205593535Y-85436077D01*
X205597771Y-85442381D01*
X205603390Y-85447494D01*
X205707707Y-85542416D01*
X205707711Y-85542419D01*
X205713328Y-85547530D01*
X205720005Y-85551155D01*
X205720006Y-85551156D01*
X205843953Y-85618454D01*
X205843955Y-85618455D01*
X205850630Y-85622079D01*
X205857979Y-85624007D01*
X205994402Y-85659797D01*
X205994404Y-85659797D01*
X206001752Y-85661725D01*
X206084424Y-85663024D01*
X206150372Y-85664060D01*
X206150375Y-85664060D01*
X206157969Y-85664179D01*
X206211560Y-85651905D01*
X206302858Y-85630995D01*
X206302862Y-85630994D01*
X206310261Y-85629299D01*
X206449838Y-85559100D01*
X206504539Y-85512381D01*
X206562867Y-85462565D01*
X206562869Y-85462562D01*
X206568641Y-85457633D01*
X206659811Y-85330756D01*
X206665859Y-85315713D01*
X206715251Y-85192845D01*
X206715251Y-85192844D01*
X206718085Y-85185795D01*
X206738031Y-85045645D01*
X206767430Y-84981023D01*
X206827101Y-84942554D01*
X206894746Y-84941523D01*
X206964402Y-84959797D01*
X206964404Y-84959797D01*
X206971752Y-84961725D01*
X207054424Y-84963024D01*
X207120372Y-84964060D01*
X207120375Y-84964060D01*
X207127969Y-84964179D01*
X207181560Y-84951905D01*
X207272858Y-84930995D01*
X207272862Y-84930994D01*
X207280261Y-84929299D01*
X207355546Y-84891435D01*
X207412160Y-84878000D01*
X214484348Y-84878000D01*
X214552469Y-84898002D01*
X214579728Y-84921667D01*
X214583535Y-84926077D01*
X214587771Y-84932381D01*
X214593390Y-84937494D01*
X214697707Y-85032416D01*
X214697711Y-85032419D01*
X214703328Y-85037530D01*
X214710005Y-85041155D01*
X214710006Y-85041156D01*
X214833953Y-85108454D01*
X214833955Y-85108455D01*
X214840630Y-85112079D01*
X214847979Y-85114007D01*
X214984402Y-85149797D01*
X214984404Y-85149797D01*
X214991752Y-85151725D01*
X215074424Y-85153024D01*
X215140372Y-85154060D01*
X215140375Y-85154060D01*
X215147969Y-85154179D01*
X215201560Y-85141905D01*
X215292858Y-85120995D01*
X215292862Y-85120994D01*
X215300261Y-85119299D01*
X215439838Y-85049100D01*
X215476837Y-85017500D01*
X215552867Y-84952565D01*
X215552869Y-84952562D01*
X215558641Y-84947633D01*
X215649811Y-84820756D01*
X215708085Y-84675795D01*
X215721663Y-84580387D01*
X215729517Y-84525202D01*
X215729517Y-84525199D01*
X215730098Y-84521118D01*
X215730241Y-84507500D01*
X215711471Y-84352396D01*
X215656246Y-84206246D01*
X215651947Y-84199991D01*
X215651945Y-84199987D01*
X215572055Y-84083747D01*
X215572054Y-84083745D01*
X215567753Y-84077488D01*
X215541592Y-84054179D01*
X215456773Y-83978608D01*
X215456770Y-83978606D01*
X215451101Y-83973555D01*
X215444387Y-83970000D01*
X215319741Y-83904003D01*
X215319738Y-83904002D01*
X215313026Y-83900448D01*
X215161497Y-83862386D01*
X215153899Y-83862346D01*
X215153897Y-83862346D01*
X215088319Y-83862003D01*
X215005263Y-83861568D01*
X214997883Y-83863340D01*
X214997881Y-83863340D01*
X214939269Y-83877412D01*
X214853344Y-83898041D01*
X214714510Y-83969698D01*
X214596777Y-84072404D01*
X214592410Y-84078618D01*
X214589013Y-84083451D01*
X214533478Y-84127682D01*
X214485926Y-84137000D01*
X210239883Y-84137000D01*
X210171762Y-84116998D01*
X210125269Y-84063342D01*
X210115165Y-83993068D01*
X210122976Y-83964003D01*
X210125252Y-83958342D01*
X210128085Y-83951295D01*
X210150098Y-83796618D01*
X210150241Y-83783000D01*
X210137079Y-83674237D01*
X210132384Y-83635439D01*
X210132384Y-83635438D01*
X210131471Y-83627896D01*
X210076246Y-83481746D01*
X210071947Y-83475491D01*
X210071945Y-83475487D01*
X209992055Y-83359247D01*
X209992054Y-83359245D01*
X209987753Y-83352988D01*
X209952642Y-83321705D01*
X209912681Y-83286101D01*
X209875125Y-83225851D01*
X209870500Y-83192025D01*
X209870500Y-78499228D01*
X209890502Y-78431107D01*
X209944158Y-78384614D01*
X209998478Y-78373244D01*
X210029147Y-78373726D01*
X210050372Y-78374060D01*
X210050375Y-78374060D01*
X210057969Y-78374179D01*
X210111560Y-78361905D01*
X210202858Y-78340995D01*
X210202862Y-78340994D01*
X210210261Y-78339299D01*
X210349838Y-78269100D01*
X210400972Y-78225428D01*
X210462867Y-78172565D01*
X210462869Y-78172562D01*
X210468641Y-78167633D01*
X210559811Y-78040756D01*
X210564794Y-78028362D01*
X210615251Y-77902845D01*
X210615251Y-77902844D01*
X210618085Y-77895795D01*
X210640098Y-77741118D01*
X210640241Y-77727500D01*
X210621471Y-77572396D01*
X210566246Y-77426246D01*
X210561947Y-77419991D01*
X210561945Y-77419987D01*
X210482055Y-77303747D01*
X210482054Y-77303745D01*
X210477753Y-77297488D01*
X210456563Y-77278608D01*
X210366773Y-77198608D01*
X210366770Y-77198606D01*
X210361101Y-77193555D01*
X210354387Y-77190000D01*
X210229741Y-77124003D01*
X210229738Y-77124002D01*
X210223026Y-77120448D01*
X210071497Y-77082386D01*
X210063899Y-77082346D01*
X210063897Y-77082346D01*
X209998319Y-77082003D01*
X209915263Y-77081568D01*
X209907883Y-77083340D01*
X209907881Y-77083340D01*
X209834165Y-77101038D01*
X209763344Y-77118041D01*
X209624510Y-77189698D01*
X209506777Y-77292404D01*
X209502410Y-77298618D01*
X209442580Y-77383747D01*
X209416940Y-77420228D01*
X209360188Y-77565792D01*
X209339795Y-77720691D01*
X209342501Y-77745202D01*
X209346384Y-77780372D01*
X209333978Y-77850277D01*
X209310240Y-77883294D01*
X209275470Y-77918064D01*
X209257891Y-77932262D01*
X209255948Y-77934030D01*
X209247201Y-77939678D01*
X209234347Y-77955983D01*
X209227010Y-77965290D01*
X209223205Y-77969571D01*
X209223288Y-77969641D01*
X209219929Y-77973605D01*
X209216254Y-77977280D01*
X209213234Y-77981505D01*
X209213233Y-77981507D01*
X209205340Y-77992552D01*
X209201777Y-77997297D01*
X209177287Y-78028362D01*
X209177286Y-78028364D01*
X209170839Y-78036542D01*
X209167877Y-78044977D01*
X209162680Y-78052249D01*
X209159696Y-78062228D01*
X209148363Y-78100122D01*
X209146529Y-78105767D01*
X209129970Y-78152919D01*
X209129500Y-78158346D01*
X209129500Y-78161060D01*
X209129392Y-78163557D01*
X209129324Y-78163785D01*
X209129201Y-78163780D01*
X209129168Y-78164307D01*
X209127339Y-78170422D01*
X209127748Y-78180826D01*
X209129403Y-78222959D01*
X209129500Y-78227905D01*
X209129500Y-83192280D01*
X209109498Y-83260401D01*
X209086330Y-83287228D01*
X209046809Y-83321705D01*
X208982327Y-83351414D01*
X208912020Y-83341545D01*
X208858209Y-83295232D01*
X208842157Y-83258066D01*
X208841471Y-83252396D01*
X208838785Y-83245287D01*
X208788931Y-83113351D01*
X208788930Y-83113349D01*
X208786246Y-83106246D01*
X208781947Y-83099991D01*
X208781945Y-83099987D01*
X208702055Y-82983747D01*
X208702054Y-82983745D01*
X208697753Y-82977488D01*
X208692047Y-82972404D01*
X208622681Y-82910601D01*
X208585125Y-82850351D01*
X208580500Y-82816525D01*
X208580500Y-76723156D01*
X208600502Y-76655035D01*
X208617405Y-76634061D01*
X209922509Y-75328957D01*
X209984821Y-75294931D01*
X210013583Y-75292068D01*
X210140372Y-75294060D01*
X210140375Y-75294060D01*
X210147969Y-75294179D01*
X210201560Y-75281905D01*
X210292858Y-75260995D01*
X210292862Y-75260994D01*
X210300261Y-75259299D01*
X210439838Y-75189100D01*
X210467060Y-75165850D01*
X210552867Y-75092565D01*
X210552869Y-75092562D01*
X210558641Y-75087633D01*
X210649811Y-74960756D01*
X210708085Y-74815795D01*
X210730098Y-74661118D01*
X210730241Y-74647500D01*
X210711471Y-74492396D01*
X210656246Y-74346246D01*
X210651947Y-74339991D01*
X210651945Y-74339987D01*
X210572055Y-74223747D01*
X210572054Y-74223745D01*
X210567753Y-74217488D01*
X210556444Y-74207412D01*
X210456773Y-74118608D01*
X210456770Y-74118606D01*
X210451101Y-74113555D01*
X210444387Y-74110000D01*
X210319741Y-74044003D01*
X210319738Y-74044002D01*
X210313026Y-74040448D01*
X210161497Y-74002386D01*
X210153899Y-74002346D01*
X210153897Y-74002346D01*
X210088319Y-74002003D01*
X210005263Y-74001568D01*
X209997883Y-74003340D01*
X209997881Y-74003340D01*
X209924165Y-74021038D01*
X209853344Y-74038041D01*
X209714510Y-74109698D01*
X209596777Y-74212404D01*
X209506940Y-74340228D01*
X209450188Y-74485792D01*
X209429795Y-74640691D01*
X209432501Y-74665202D01*
X209436384Y-74700372D01*
X209423978Y-74770277D01*
X209400240Y-74803294D01*
X207985470Y-76218064D01*
X207967891Y-76232262D01*
X207965948Y-76234030D01*
X207957201Y-76239678D01*
X207950755Y-76247855D01*
X207937010Y-76265290D01*
X207933205Y-76269571D01*
X207933288Y-76269641D01*
X207929929Y-76273605D01*
X207926254Y-76277280D01*
X207923234Y-76281505D01*
X207923233Y-76281507D01*
X207915340Y-76292552D01*
X207911777Y-76297297D01*
X207887287Y-76328362D01*
X207887286Y-76328364D01*
X207880839Y-76336542D01*
X207877877Y-76344977D01*
X207872680Y-76352249D01*
X207869696Y-76362228D01*
X207858363Y-76400122D01*
X207856529Y-76405767D01*
X207839970Y-76452919D01*
X207839500Y-76458346D01*
X207839500Y-76461060D01*
X207839392Y-76463557D01*
X207839324Y-76463785D01*
X207839201Y-76463780D01*
X207839168Y-76464307D01*
X207837339Y-76470422D01*
X207837748Y-76480826D01*
X207839403Y-76522959D01*
X207839500Y-76527905D01*
X207839500Y-82816780D01*
X207819498Y-82884901D01*
X207796329Y-82911729D01*
X207732503Y-82967408D01*
X207732499Y-82967412D01*
X207726777Y-82972404D01*
X207722410Y-82978618D01*
X207664682Y-83060756D01*
X207636940Y-83100228D01*
X207580188Y-83245792D01*
X207578699Y-83257100D01*
X207566741Y-83347935D01*
X207559795Y-83400691D01*
X207576939Y-83555983D01*
X207579549Y-83563115D01*
X207602478Y-83625772D01*
X207607104Y-83696618D01*
X207572694Y-83758718D01*
X207510173Y-83792357D01*
X207439390Y-83786854D01*
X207425193Y-83780427D01*
X207299740Y-83714003D01*
X207299741Y-83714003D01*
X207293026Y-83710448D01*
X207141497Y-83672386D01*
X207133899Y-83672346D01*
X207133897Y-83672346D01*
X207068319Y-83672003D01*
X206985263Y-83671568D01*
X206977883Y-83673340D01*
X206977881Y-83673340D01*
X206904165Y-83691038D01*
X206833344Y-83708041D01*
X206694510Y-83779698D01*
X206576777Y-83882404D01*
X206563338Y-83901526D01*
X206517875Y-83966213D01*
X206486940Y-84010228D01*
X206430188Y-84155792D01*
X206429197Y-84163321D01*
X206412764Y-84288142D01*
X206384042Y-84353069D01*
X206324777Y-84392161D01*
X206257147Y-84393900D01*
X206171497Y-84372386D01*
X206163899Y-84372346D01*
X206163897Y-84372346D01*
X206098319Y-84372003D01*
X206015263Y-84371568D01*
X206007883Y-84373340D01*
X206007881Y-84373340D01*
X205978117Y-84380486D01*
X205863344Y-84408041D01*
X205724510Y-84479698D01*
X205606777Y-84582404D01*
X205602410Y-84588618D01*
X205599013Y-84593451D01*
X205543478Y-84637682D01*
X205495926Y-84647000D01*
X203985657Y-84647000D01*
X203917536Y-84626998D01*
X203896562Y-84610095D01*
X202463958Y-83177491D01*
X201030599Y-81744133D01*
X200996573Y-81681821D01*
X200994951Y-81637286D01*
X200999517Y-81605205D01*
X200999518Y-81605195D01*
X201000098Y-81601118D01*
X201000241Y-81587500D01*
X200981471Y-81432396D01*
X200926246Y-81286246D01*
X200921947Y-81279991D01*
X200921945Y-81279987D01*
X200842055Y-81163747D01*
X200842054Y-81163745D01*
X200837753Y-81157488D01*
X200803855Y-81127286D01*
X200726773Y-81058608D01*
X200726770Y-81058606D01*
X200721101Y-81053555D01*
X200714387Y-81050000D01*
X200589741Y-80984003D01*
X200589738Y-80984002D01*
X200583026Y-80980448D01*
X200431497Y-80942386D01*
X200423899Y-80942346D01*
X200423897Y-80942346D01*
X200358319Y-80942003D01*
X200275263Y-80941568D01*
X200267883Y-80943340D01*
X200267881Y-80943340D01*
X200194165Y-80961038D01*
X200123344Y-80978041D01*
X199984510Y-81049698D01*
X199866777Y-81152404D01*
X199776940Y-81280228D01*
X199720188Y-81425792D01*
X199699795Y-81580691D01*
X187515500Y-81580691D01*
X187515500Y-79862500D01*
X196759843Y-79862500D01*
X196778421Y-80039258D01*
X196833343Y-80208290D01*
X196922209Y-80362210D01*
X196926627Y-80367117D01*
X196926628Y-80367118D01*
X197036712Y-80489379D01*
X197041134Y-80494290D01*
X197184921Y-80598758D01*
X197190950Y-80601442D01*
X197190953Y-80601444D01*
X197294372Y-80647488D01*
X197347287Y-80671047D01*
X197521134Y-80708000D01*
X197698866Y-80708000D01*
X197872713Y-80671047D01*
X197925628Y-80647488D01*
X198029047Y-80601444D01*
X198029050Y-80601442D01*
X198035079Y-80598758D01*
X198178866Y-80494290D01*
X198183288Y-80489379D01*
X198293372Y-80367118D01*
X198293373Y-80367117D01*
X198297791Y-80362210D01*
X198386657Y-80208290D01*
X198441579Y-80039258D01*
X198460157Y-79862500D01*
X198441579Y-79685742D01*
X198386657Y-79516710D01*
X198297791Y-79362790D01*
X198274320Y-79336722D01*
X198183288Y-79235621D01*
X198183287Y-79235620D01*
X198178866Y-79230710D01*
X198064125Y-79147345D01*
X198040421Y-79130123D01*
X198040420Y-79130122D01*
X198035079Y-79126242D01*
X198029050Y-79123558D01*
X198029047Y-79123556D01*
X197878748Y-79056640D01*
X197878749Y-79056640D01*
X197872713Y-79053953D01*
X197698866Y-79017000D01*
X197521134Y-79017000D01*
X197347287Y-79053953D01*
X197341251Y-79056640D01*
X197341252Y-79056640D01*
X197190954Y-79123556D01*
X197190951Y-79123558D01*
X197184922Y-79126242D01*
X197179581Y-79130122D01*
X197179580Y-79130123D01*
X197080839Y-79201863D01*
X197041134Y-79230710D01*
X197036713Y-79235620D01*
X197036712Y-79235621D01*
X196945681Y-79336722D01*
X196922209Y-79362790D01*
X196833343Y-79516710D01*
X196778421Y-79685742D01*
X196759843Y-79862500D01*
X187515500Y-79862500D01*
X187515500Y-72560691D01*
X208779795Y-72560691D01*
X208796939Y-72715983D01*
X208850631Y-72862703D01*
X208937771Y-72992381D01*
X208943383Y-72997488D01*
X208943386Y-72997491D01*
X209047707Y-73092416D01*
X209047711Y-73092419D01*
X209053328Y-73097530D01*
X209060005Y-73101155D01*
X209060006Y-73101156D01*
X209183953Y-73168454D01*
X209183955Y-73168455D01*
X209190630Y-73172079D01*
X209197979Y-73174007D01*
X209334402Y-73209797D01*
X209334404Y-73209797D01*
X209341752Y-73211725D01*
X209424424Y-73213024D01*
X209490372Y-73214060D01*
X209490375Y-73214060D01*
X209497969Y-73214179D01*
X209551560Y-73201905D01*
X209642858Y-73180995D01*
X209642862Y-73180994D01*
X209650261Y-73179299D01*
X209789838Y-73109100D01*
X209817060Y-73085850D01*
X209902867Y-73012565D01*
X209902869Y-73012562D01*
X209908641Y-73007633D01*
X209920971Y-72990474D01*
X209976966Y-72946826D01*
X210023294Y-72938000D01*
X214377036Y-72938000D01*
X214399505Y-72940391D01*
X214402127Y-72940515D01*
X214412306Y-72942706D01*
X214444692Y-72938873D01*
X214450409Y-72938536D01*
X214450400Y-72938428D01*
X214455581Y-72938000D01*
X214460778Y-72938000D01*
X214465898Y-72937148D01*
X214465906Y-72937147D01*
X214479287Y-72934919D01*
X214485169Y-72934082D01*
X214489986Y-72933512D01*
X214534795Y-72928209D01*
X214542856Y-72924338D01*
X214551671Y-72922871D01*
X214595656Y-72899138D01*
X214600919Y-72896457D01*
X214638838Y-72878249D01*
X214638844Y-72878245D01*
X214645985Y-72874816D01*
X214650155Y-72871311D01*
X214652080Y-72869386D01*
X214653914Y-72867704D01*
X214654119Y-72867593D01*
X214654203Y-72867685D01*
X214654605Y-72867331D01*
X214660222Y-72864300D01*
X214695911Y-72825692D01*
X214699340Y-72822126D01*
X216222509Y-71298957D01*
X216284821Y-71264931D01*
X216313583Y-71262068D01*
X216440372Y-71264060D01*
X216440375Y-71264060D01*
X216447969Y-71264179D01*
X216501560Y-71251905D01*
X216592858Y-71230995D01*
X216592862Y-71230994D01*
X216600261Y-71229299D01*
X216739838Y-71159100D01*
X216767060Y-71135850D01*
X216852867Y-71062565D01*
X216852869Y-71062562D01*
X216858641Y-71057633D01*
X216949811Y-70930756D01*
X217008085Y-70785795D01*
X217030098Y-70631118D01*
X217030241Y-70617500D01*
X217011471Y-70462396D01*
X216956246Y-70316246D01*
X216951947Y-70309991D01*
X216951945Y-70309987D01*
X216872055Y-70193747D01*
X216872054Y-70193745D01*
X216867753Y-70187488D01*
X216856444Y-70177412D01*
X216756773Y-70088608D01*
X216756770Y-70088606D01*
X216751101Y-70083555D01*
X216744387Y-70080000D01*
X216619741Y-70014003D01*
X216619738Y-70014002D01*
X216613026Y-70010448D01*
X216461497Y-69972386D01*
X216453899Y-69972346D01*
X216453897Y-69972346D01*
X216388319Y-69972003D01*
X216305263Y-69971568D01*
X216297883Y-69973340D01*
X216297881Y-69973340D01*
X216224165Y-69991038D01*
X216153344Y-70008041D01*
X216014510Y-70079698D01*
X215896777Y-70182404D01*
X215806940Y-70310228D01*
X215750188Y-70455792D01*
X215729795Y-70610691D01*
X215732501Y-70635202D01*
X215736384Y-70670372D01*
X215723978Y-70740277D01*
X215700240Y-70773294D01*
X214313439Y-72160095D01*
X214251127Y-72194121D01*
X214224344Y-72197000D01*
X210024946Y-72197000D01*
X209956825Y-72176998D01*
X209927774Y-72148832D01*
X209927078Y-72149446D01*
X209922059Y-72143753D01*
X209917753Y-72137488D01*
X209892924Y-72115366D01*
X209806773Y-72038608D01*
X209806770Y-72038606D01*
X209801101Y-72033555D01*
X209794387Y-72030000D01*
X209669741Y-71964003D01*
X209669738Y-71964002D01*
X209663026Y-71960448D01*
X209511497Y-71922386D01*
X209503899Y-71922346D01*
X209503897Y-71922346D01*
X209438319Y-71922003D01*
X209355263Y-71921568D01*
X209347883Y-71923340D01*
X209347881Y-71923340D01*
X209274165Y-71941038D01*
X209203344Y-71958041D01*
X209064510Y-72029698D01*
X208946777Y-72132404D01*
X208856940Y-72260228D01*
X208800188Y-72405792D01*
X208779795Y-72560691D01*
X187515500Y-72560691D01*
X187515500Y-61856592D01*
X187517889Y-61832335D01*
X187517889Y-61832171D01*
X187520310Y-61820000D01*
X187517889Y-61807828D01*
X187517889Y-61796242D01*
X187517029Y-61784995D01*
X187518038Y-61761883D01*
X190420699Y-61761883D01*
X190420874Y-61766335D01*
X190421682Y-61786907D01*
X190429651Y-61989707D01*
X190430960Y-62023032D01*
X190477914Y-62280130D01*
X190483362Y-62296460D01*
X190557006Y-62517197D01*
X190560625Y-62528046D01*
X190562617Y-62532033D01*
X190562618Y-62532035D01*
X190637904Y-62682705D01*
X190677443Y-62761836D01*
X190826037Y-62976833D01*
X190829059Y-62980102D01*
X190999951Y-63164972D01*
X191003441Y-63168748D01*
X191006895Y-63171560D01*
X191202660Y-63330938D01*
X191202664Y-63330941D01*
X191206117Y-63333752D01*
X191430020Y-63468553D01*
X191434115Y-63470287D01*
X191434117Y-63470288D01*
X191666582Y-63568724D01*
X191666589Y-63568726D01*
X191670683Y-63570460D01*
X191923304Y-63637442D01*
X191927728Y-63637966D01*
X191927730Y-63637966D01*
X192031445Y-63650241D01*
X192182843Y-63668160D01*
X192444121Y-63662003D01*
X192588532Y-63637966D01*
X192697534Y-63619823D01*
X192697538Y-63619822D01*
X192701924Y-63619092D01*
X192706165Y-63617751D01*
X192706168Y-63617750D01*
X192946863Y-63541628D01*
X192946865Y-63541627D01*
X192951109Y-63540285D01*
X192955120Y-63538359D01*
X192955125Y-63538357D01*
X193182686Y-63429084D01*
X193182687Y-63429083D01*
X193186705Y-63427154D01*
X193326491Y-63333752D01*
X193400301Y-63284434D01*
X193400305Y-63284431D01*
X193404009Y-63281956D01*
X193407326Y-63278985D01*
X193407330Y-63278982D01*
X193595371Y-63110558D01*
X193598687Y-63107588D01*
X193766855Y-62907529D01*
X193905156Y-62685770D01*
X194010831Y-62446738D01*
X194081772Y-62195200D01*
X194104897Y-62023032D01*
X194116136Y-61939358D01*
X194116137Y-61939350D01*
X194116563Y-61936176D01*
X194118007Y-61890230D01*
X194118108Y-61887032D01*
X200749500Y-61887032D01*
X200749837Y-61890278D01*
X200749837Y-61890282D01*
X200756827Y-61957642D01*
X200760287Y-61990990D01*
X200815303Y-62155893D01*
X200819152Y-62162113D01*
X200819153Y-62162115D01*
X200902288Y-62296460D01*
X200906779Y-62303718D01*
X201029809Y-62426534D01*
X201036039Y-62430374D01*
X201036040Y-62430375D01*
X201171351Y-62513781D01*
X201177793Y-62517752D01*
X201342793Y-62572480D01*
X201349629Y-62573180D01*
X201349632Y-62573181D01*
X201391896Y-62577511D01*
X201445468Y-62583000D01*
X202544532Y-62583000D01*
X202547778Y-62582663D01*
X202547782Y-62582663D01*
X202641632Y-62572925D01*
X202641636Y-62572924D01*
X202648490Y-62572213D01*
X202654612Y-62570170D01*
X204937160Y-62570170D01*
X204942887Y-62577820D01*
X205114042Y-62682705D01*
X205122837Y-62687187D01*
X205332988Y-62774234D01*
X205342373Y-62777283D01*
X205563554Y-62830385D01*
X205573301Y-62831928D01*
X205800070Y-62849775D01*
X205809930Y-62849775D01*
X206036699Y-62831928D01*
X206046446Y-62830385D01*
X206267627Y-62777283D01*
X206277012Y-62774234D01*
X206487163Y-62687187D01*
X206495958Y-62682705D01*
X206663445Y-62580068D01*
X206672907Y-62569610D01*
X206669124Y-62560834D01*
X205817812Y-61709522D01*
X205803868Y-61701908D01*
X205802035Y-61702039D01*
X205795420Y-61706290D01*
X204943920Y-62557790D01*
X204937160Y-62570170D01*
X202654612Y-62570170D01*
X202655026Y-62570032D01*
X202655028Y-62570032D01*
X202716284Y-62549595D01*
X202813393Y-62517197D01*
X202824967Y-62510035D01*
X202954992Y-62429574D01*
X202954994Y-62429573D01*
X202961218Y-62425721D01*
X202966675Y-62420255D01*
X203078863Y-62307871D01*
X203084034Y-62302691D01*
X203147646Y-62199493D01*
X203171412Y-62160937D01*
X203171413Y-62160936D01*
X203175252Y-62154707D01*
X203229980Y-61989707D01*
X203232755Y-61962629D01*
X203240172Y-61890230D01*
X203240500Y-61887032D01*
X203240500Y-61342430D01*
X204292725Y-61342430D01*
X204310572Y-61569199D01*
X204312115Y-61578946D01*
X204365217Y-61800127D01*
X204368266Y-61809512D01*
X204455313Y-62019663D01*
X204459795Y-62028458D01*
X204562432Y-62195945D01*
X204572890Y-62205407D01*
X204581666Y-62201624D01*
X205432978Y-61350312D01*
X205439356Y-61338632D01*
X206169408Y-61338632D01*
X206169539Y-61340465D01*
X206173790Y-61347080D01*
X207025290Y-62198580D01*
X207037670Y-62205340D01*
X207045320Y-62199613D01*
X207150205Y-62028458D01*
X207154687Y-62019663D01*
X207241734Y-61809512D01*
X207244783Y-61800127D01*
X207297885Y-61578946D01*
X207299428Y-61569199D01*
X207317275Y-61342430D01*
X207317275Y-61337500D01*
X208364742Y-61337500D01*
X208383736Y-61554605D01*
X208440142Y-61765113D01*
X208442465Y-61770094D01*
X208442465Y-61770095D01*
X208529919Y-61957642D01*
X208529922Y-61957647D01*
X208532245Y-61962629D01*
X208657247Y-62141150D01*
X208811350Y-62295253D01*
X208815858Y-62298410D01*
X208815861Y-62298412D01*
X208890155Y-62350433D01*
X208989871Y-62420255D01*
X208994853Y-62422578D01*
X208994858Y-62422581D01*
X209182405Y-62510035D01*
X209187387Y-62512358D01*
X209192695Y-62513780D01*
X209192697Y-62513781D01*
X209216116Y-62520056D01*
X209397895Y-62568764D01*
X209615000Y-62587758D01*
X209816034Y-62570170D01*
X212557160Y-62570170D01*
X212562887Y-62577820D01*
X212734042Y-62682705D01*
X212742837Y-62687187D01*
X212952988Y-62774234D01*
X212962373Y-62777283D01*
X213183554Y-62830385D01*
X213193301Y-62831928D01*
X213420070Y-62849775D01*
X213429930Y-62849775D01*
X213656699Y-62831928D01*
X213666446Y-62830385D01*
X213887627Y-62777283D01*
X213897012Y-62774234D01*
X214107163Y-62687187D01*
X214115958Y-62682705D01*
X214283445Y-62580068D01*
X214292907Y-62569610D01*
X214289124Y-62560834D01*
X213437812Y-61709522D01*
X213423868Y-61701908D01*
X213422035Y-61702039D01*
X213415420Y-61706290D01*
X212563920Y-62557790D01*
X212557160Y-62570170D01*
X209816034Y-62570170D01*
X209832105Y-62568764D01*
X210013884Y-62520056D01*
X210037303Y-62513781D01*
X210037305Y-62513780D01*
X210042613Y-62512358D01*
X210047595Y-62510035D01*
X210235142Y-62422581D01*
X210235147Y-62422578D01*
X210240129Y-62420255D01*
X210339845Y-62350433D01*
X210414139Y-62298412D01*
X210414142Y-62298410D01*
X210418650Y-62295253D01*
X210572753Y-62141150D01*
X210697755Y-61962629D01*
X210700078Y-61957647D01*
X210700081Y-61957642D01*
X210787535Y-61770095D01*
X210787535Y-61770094D01*
X210789858Y-61765113D01*
X210846264Y-61554605D01*
X210864827Y-61342430D01*
X211912725Y-61342430D01*
X211930572Y-61569199D01*
X211932115Y-61578946D01*
X211985217Y-61800127D01*
X211988266Y-61809512D01*
X212075313Y-62019663D01*
X212079795Y-62028458D01*
X212182432Y-62195945D01*
X212192890Y-62205407D01*
X212201666Y-62201624D01*
X213052978Y-61350312D01*
X213059356Y-61338632D01*
X213789408Y-61338632D01*
X213789539Y-61340465D01*
X213793790Y-61347080D01*
X214645290Y-62198580D01*
X214657670Y-62205340D01*
X214665320Y-62199613D01*
X214770205Y-62028458D01*
X214774687Y-62019663D01*
X214861734Y-61809512D01*
X214864783Y-61800127D01*
X214873965Y-61761883D01*
X220420699Y-61761883D01*
X220420874Y-61766335D01*
X220421682Y-61786907D01*
X220429651Y-61989707D01*
X220430960Y-62023032D01*
X220477914Y-62280130D01*
X220483362Y-62296460D01*
X220557006Y-62517197D01*
X220560625Y-62528046D01*
X220562617Y-62532033D01*
X220562618Y-62532035D01*
X220637904Y-62682705D01*
X220677443Y-62761836D01*
X220826037Y-62976833D01*
X220829059Y-62980102D01*
X220999951Y-63164972D01*
X221003441Y-63168748D01*
X221006895Y-63171560D01*
X221202660Y-63330938D01*
X221202664Y-63330941D01*
X221206117Y-63333752D01*
X221430020Y-63468553D01*
X221434115Y-63470287D01*
X221434117Y-63470288D01*
X221666582Y-63568724D01*
X221666589Y-63568726D01*
X221670683Y-63570460D01*
X221923304Y-63637442D01*
X221927728Y-63637966D01*
X221927730Y-63637966D01*
X222031445Y-63650241D01*
X222182843Y-63668160D01*
X222444121Y-63662003D01*
X222588532Y-63637966D01*
X222697534Y-63619823D01*
X222697538Y-63619822D01*
X222701924Y-63619092D01*
X222706165Y-63617751D01*
X222706168Y-63617750D01*
X222946863Y-63541628D01*
X222946865Y-63541627D01*
X222951109Y-63540285D01*
X222955120Y-63538359D01*
X222955125Y-63538357D01*
X223182686Y-63429084D01*
X223182687Y-63429083D01*
X223186705Y-63427154D01*
X223326491Y-63333752D01*
X223400301Y-63284434D01*
X223400305Y-63284431D01*
X223404009Y-63281956D01*
X223407326Y-63278985D01*
X223407330Y-63278982D01*
X223595371Y-63110558D01*
X223598687Y-63107588D01*
X223766855Y-62907529D01*
X223905156Y-62685770D01*
X224010831Y-62446738D01*
X224081772Y-62195200D01*
X224104897Y-62023032D01*
X224116136Y-61939358D01*
X224116137Y-61939350D01*
X224116563Y-61936176D01*
X224118007Y-61890230D01*
X224120113Y-61823222D01*
X224120113Y-61823217D01*
X224120214Y-61820000D01*
X224101756Y-61559303D01*
X224046749Y-61303807D01*
X224001049Y-61179930D01*
X223957832Y-61062787D01*
X223956291Y-61058610D01*
X223832187Y-60828606D01*
X223802172Y-60787968D01*
X223679558Y-60621962D01*
X223676914Y-60618382D01*
X223493568Y-60432134D01*
X223490029Y-60429433D01*
X223490022Y-60429427D01*
X223289355Y-60276283D01*
X223289351Y-60276280D01*
X223285810Y-60273578D01*
X223057783Y-60145876D01*
X223053630Y-60144269D01*
X223053625Y-60144267D01*
X222818193Y-60053185D01*
X222818187Y-60053183D01*
X222814038Y-60051578D01*
X222809706Y-60050574D01*
X222809703Y-60050573D01*
X222705156Y-60026341D01*
X222559437Y-59992565D01*
X222299062Y-59970014D01*
X222294627Y-59970258D01*
X222294623Y-59970258D01*
X222042550Y-59984130D01*
X222042543Y-59984131D01*
X222038107Y-59984375D01*
X221781778Y-60035362D01*
X221535191Y-60121958D01*
X221531240Y-60124011D01*
X221531234Y-60124013D01*
X221406539Y-60188787D01*
X221303266Y-60242433D01*
X221299651Y-60245016D01*
X221299645Y-60245020D01*
X221165647Y-60340777D01*
X221090629Y-60394386D01*
X221087409Y-60397458D01*
X220947206Y-60531205D01*
X220901524Y-60574783D01*
X220739724Y-60780025D01*
X220723994Y-60807107D01*
X220610691Y-61002171D01*
X220610688Y-61002177D01*
X220608457Y-61006018D01*
X220510342Y-61248252D01*
X220447337Y-61501894D01*
X220437411Y-61598775D01*
X220426831Y-61702039D01*
X220420699Y-61761883D01*
X214873965Y-61761883D01*
X214917885Y-61578946D01*
X214919428Y-61569199D01*
X214937275Y-61342430D01*
X214937275Y-61332570D01*
X214919428Y-61105801D01*
X214917885Y-61096054D01*
X214864783Y-60874873D01*
X214861734Y-60865488D01*
X214774687Y-60655337D01*
X214770205Y-60646542D01*
X214667568Y-60479055D01*
X214657110Y-60469593D01*
X214648334Y-60473376D01*
X213797022Y-61324688D01*
X213789408Y-61338632D01*
X213059356Y-61338632D01*
X213060592Y-61336368D01*
X213060461Y-61334535D01*
X213056210Y-61327920D01*
X212204710Y-60476420D01*
X212192330Y-60469660D01*
X212184680Y-60475387D01*
X212079795Y-60646542D01*
X212075313Y-60655337D01*
X211988266Y-60865488D01*
X211985217Y-60874873D01*
X211932115Y-61096054D01*
X211930572Y-61105801D01*
X211912725Y-61332570D01*
X211912725Y-61342430D01*
X210864827Y-61342430D01*
X210865258Y-61337500D01*
X210846264Y-61120395D01*
X210789858Y-60909887D01*
X210773531Y-60874873D01*
X210700081Y-60717358D01*
X210700078Y-60717353D01*
X210697755Y-60712371D01*
X210572753Y-60533850D01*
X210418650Y-60379747D01*
X210414142Y-60376590D01*
X210414139Y-60376588D01*
X210263913Y-60271399D01*
X210240129Y-60254745D01*
X210235147Y-60252422D01*
X210235142Y-60252419D01*
X210047595Y-60164965D01*
X210047594Y-60164965D01*
X210042613Y-60162642D01*
X210037305Y-60161220D01*
X210037303Y-60161219D01*
X209973139Y-60144026D01*
X209832105Y-60106236D01*
X209822435Y-60105390D01*
X212557093Y-60105390D01*
X212560876Y-60114166D01*
X213412188Y-60965478D01*
X213426132Y-60973092D01*
X213427965Y-60972961D01*
X213434580Y-60968710D01*
X214286080Y-60117210D01*
X214292840Y-60104830D01*
X214287113Y-60097180D01*
X214115958Y-59992295D01*
X214107163Y-59987813D01*
X213897012Y-59900766D01*
X213887627Y-59897717D01*
X213666446Y-59844615D01*
X213656699Y-59843072D01*
X213429930Y-59825225D01*
X213420070Y-59825225D01*
X213193301Y-59843072D01*
X213183554Y-59844615D01*
X212962373Y-59897717D01*
X212952988Y-59900766D01*
X212742837Y-59987813D01*
X212734042Y-59992295D01*
X212566555Y-60094932D01*
X212557093Y-60105390D01*
X209822435Y-60105390D01*
X209615000Y-60087242D01*
X209397895Y-60106236D01*
X209256861Y-60144026D01*
X209192697Y-60161219D01*
X209192695Y-60161220D01*
X209187387Y-60162642D01*
X209182406Y-60164965D01*
X209182405Y-60164965D01*
X208994858Y-60252419D01*
X208994853Y-60252422D01*
X208989871Y-60254745D01*
X208966087Y-60271399D01*
X208815861Y-60376588D01*
X208815858Y-60376590D01*
X208811350Y-60379747D01*
X208657247Y-60533850D01*
X208532245Y-60712371D01*
X208529922Y-60717353D01*
X208529919Y-60717358D01*
X208456469Y-60874873D01*
X208440142Y-60909887D01*
X208383736Y-61120395D01*
X208364742Y-61337500D01*
X207317275Y-61337500D01*
X207317275Y-61332570D01*
X207299428Y-61105801D01*
X207297885Y-61096054D01*
X207244783Y-60874873D01*
X207241734Y-60865488D01*
X207154687Y-60655337D01*
X207150205Y-60646542D01*
X207047568Y-60479055D01*
X207037110Y-60469593D01*
X207028334Y-60473376D01*
X206177022Y-61324688D01*
X206169408Y-61338632D01*
X205439356Y-61338632D01*
X205440592Y-61336368D01*
X205440461Y-61334535D01*
X205436210Y-61327920D01*
X204584710Y-60476420D01*
X204572330Y-60469660D01*
X204564680Y-60475387D01*
X204459795Y-60646542D01*
X204455313Y-60655337D01*
X204368266Y-60865488D01*
X204365217Y-60874873D01*
X204312115Y-61096054D01*
X204310572Y-61105801D01*
X204292725Y-61332570D01*
X204292725Y-61342430D01*
X203240500Y-61342430D01*
X203240500Y-60787968D01*
X203239313Y-60776529D01*
X203230425Y-60690868D01*
X203230424Y-60690864D01*
X203229713Y-60684010D01*
X203174697Y-60519107D01*
X203164343Y-60502375D01*
X203087074Y-60377508D01*
X203087073Y-60377506D01*
X203083221Y-60371282D01*
X202960191Y-60248466D01*
X202863373Y-60188787D01*
X202818437Y-60161088D01*
X202818436Y-60161087D01*
X202812207Y-60157248D01*
X202655860Y-60105390D01*
X204937093Y-60105390D01*
X204940876Y-60114166D01*
X205792188Y-60965478D01*
X205806132Y-60973092D01*
X205807965Y-60972961D01*
X205814580Y-60968710D01*
X206666080Y-60117210D01*
X206672840Y-60104830D01*
X206667113Y-60097180D01*
X206495958Y-59992295D01*
X206487163Y-59987813D01*
X206277012Y-59900766D01*
X206267627Y-59897717D01*
X206046446Y-59844615D01*
X206036699Y-59843072D01*
X205809930Y-59825225D01*
X205800070Y-59825225D01*
X205573301Y-59843072D01*
X205563554Y-59844615D01*
X205342373Y-59897717D01*
X205332988Y-59900766D01*
X205122837Y-59987813D01*
X205114042Y-59992295D01*
X204946555Y-60094932D01*
X204937093Y-60105390D01*
X202655860Y-60105390D01*
X202647207Y-60102520D01*
X202640371Y-60101820D01*
X202640368Y-60101819D01*
X202595089Y-60097180D01*
X202544532Y-60092000D01*
X201445468Y-60092000D01*
X201442222Y-60092337D01*
X201442218Y-60092337D01*
X201348368Y-60102075D01*
X201348364Y-60102076D01*
X201341510Y-60102787D01*
X201334974Y-60104968D01*
X201334972Y-60104968D01*
X201277888Y-60124013D01*
X201176607Y-60157803D01*
X201170387Y-60161652D01*
X201170385Y-60161653D01*
X201035665Y-60245020D01*
X201028782Y-60249279D01*
X201023610Y-60254460D01*
X201020174Y-60257902D01*
X200905966Y-60372309D01*
X200902126Y-60378539D01*
X200902125Y-60378540D01*
X200820823Y-60510438D01*
X200814748Y-60520293D01*
X200760020Y-60685293D01*
X200759320Y-60692129D01*
X200759319Y-60692132D01*
X200756735Y-60717358D01*
X200749500Y-60787968D01*
X200749500Y-61887032D01*
X194118108Y-61887032D01*
X194120113Y-61823222D01*
X194120113Y-61823217D01*
X194120214Y-61820000D01*
X194101756Y-61559303D01*
X194046749Y-61303807D01*
X194001049Y-61179930D01*
X193957832Y-61062787D01*
X193956291Y-61058610D01*
X193832187Y-60828606D01*
X193802172Y-60787968D01*
X193679558Y-60621962D01*
X193676914Y-60618382D01*
X193493568Y-60432134D01*
X193490029Y-60429433D01*
X193490022Y-60429427D01*
X193289355Y-60276283D01*
X193289351Y-60276280D01*
X193285810Y-60273578D01*
X193057783Y-60145876D01*
X193053630Y-60144269D01*
X193053625Y-60144267D01*
X192818193Y-60053185D01*
X192818187Y-60053183D01*
X192814038Y-60051578D01*
X192809706Y-60050574D01*
X192809703Y-60050573D01*
X192705156Y-60026341D01*
X192559437Y-59992565D01*
X192299062Y-59970014D01*
X192294627Y-59970258D01*
X192294623Y-59970258D01*
X192042550Y-59984130D01*
X192042543Y-59984131D01*
X192038107Y-59984375D01*
X191781778Y-60035362D01*
X191535191Y-60121958D01*
X191531240Y-60124011D01*
X191531234Y-60124013D01*
X191406539Y-60188787D01*
X191303266Y-60242433D01*
X191299651Y-60245016D01*
X191299645Y-60245020D01*
X191165647Y-60340777D01*
X191090629Y-60394386D01*
X191087409Y-60397458D01*
X190947206Y-60531205D01*
X190901524Y-60574783D01*
X190739724Y-60780025D01*
X190723994Y-60807107D01*
X190610691Y-61002171D01*
X190610688Y-61002177D01*
X190608457Y-61006018D01*
X190510342Y-61248252D01*
X190447337Y-61501894D01*
X190437411Y-61598775D01*
X190426831Y-61702039D01*
X190420699Y-61761883D01*
X187518038Y-61761883D01*
X187533352Y-61411115D01*
X187534310Y-61400164D01*
X187587015Y-60999839D01*
X187588924Y-60989015D01*
X187676315Y-60594817D01*
X187679160Y-60584199D01*
X187704959Y-60502375D01*
X187800578Y-60199108D01*
X187804334Y-60188787D01*
X187958861Y-59815729D01*
X187963503Y-59805775D01*
X188149940Y-59447633D01*
X188155436Y-59438113D01*
X188372383Y-59097576D01*
X188378687Y-59088572D01*
X188624497Y-58768225D01*
X188631563Y-58759805D01*
X188904344Y-58462117D01*
X188912117Y-58454344D01*
X189209805Y-58181563D01*
X189218225Y-58174497D01*
X189538572Y-57928687D01*
X189547576Y-57922383D01*
X189888113Y-57705436D01*
X189897633Y-57699940D01*
X189941654Y-57677024D01*
X190255784Y-57513499D01*
X190265729Y-57508861D01*
X190638795Y-57354331D01*
X190649108Y-57350578D01*
X191034200Y-57229160D01*
X191044817Y-57226315D01*
X191439015Y-57138924D01*
X191449839Y-57137015D01*
X191850164Y-57084310D01*
X191861115Y-57083352D01*
X192234995Y-57067029D01*
X192246242Y-57067889D01*
X192257828Y-57067889D01*
X192270000Y-57070310D01*
X192282171Y-57067889D01*
X192282335Y-57067889D01*
X192306592Y-57065500D01*
X222233408Y-57065500D01*
X222257665Y-57067889D01*
G37*
%TD.AperFunction*%
%TD*%
M02*
