%TF.GenerationSoftware,KiCad,Pcbnew,(6.0.10)*%
%TF.CreationDate,2023-02-16T14:40:38+00:00*%
%TF.ProjectId,Supplytest,53757070-6c79-4746-9573-742e6b696361,rev?*%
%TF.SameCoordinates,Original*%
%TF.FileFunction,Soldermask,Top*%
%TF.FilePolarity,Negative*%
%FSLAX46Y46*%
G04 Gerber Fmt 4.6, Leading zero omitted, Abs format (unit mm)*
G04 Created by KiCad (PCBNEW (6.0.10)) date 2023-02-16 14:40:38*
%MOMM*%
%LPD*%
G01*
G04 APERTURE LIST*
G04 Aperture macros list*
%AMRoundRect*
0 Rectangle with rounded corners*
0 $1 Rounding radius*
0 $2 $3 $4 $5 $6 $7 $8 $9 X,Y pos of 4 corners*
0 Add a 4 corners polygon primitive as box body*
4,1,4,$2,$3,$4,$5,$6,$7,$8,$9,$2,$3,0*
0 Add four circle primitives for the rounded corners*
1,1,$1+$1,$2,$3*
1,1,$1+$1,$4,$5*
1,1,$1+$1,$6,$7*
1,1,$1+$1,$8,$9*
0 Add four rect primitives between the rounded corners*
20,1,$1+$1,$2,$3,$4,$5,0*
20,1,$1+$1,$4,$5,$6,$7,0*
20,1,$1+$1,$6,$7,$8,$9,0*
20,1,$1+$1,$8,$9,$2,$3,0*%
G04 Aperture macros list end*
%ADD10R,1.200000X0.400000*%
%ADD11R,1.700000X1.700000*%
%ADD12O,1.700000X1.700000*%
%ADD13RoundRect,0.250000X0.475000X-0.337500X0.475000X0.337500X-0.475000X0.337500X-0.475000X-0.337500X0*%
%ADD14RoundRect,0.250000X-0.475000X0.337500X-0.475000X-0.337500X0.475000X-0.337500X0.475000X0.337500X0*%
%ADD15R,2.000000X1.500000*%
%ADD16R,2.000000X3.800000*%
%ADD17R,1.020000X1.780000*%
%ADD18RoundRect,0.160000X0.160000X-0.222500X0.160000X0.222500X-0.160000X0.222500X-0.160000X-0.222500X0*%
%ADD19RoundRect,0.150000X0.725000X0.150000X-0.725000X0.150000X-0.725000X-0.150000X0.725000X-0.150000X0*%
%ADD20RoundRect,0.250000X0.337500X0.475000X-0.337500X0.475000X-0.337500X-0.475000X0.337500X-0.475000X0*%
%ADD21RoundRect,0.250000X-0.450000X0.350000X-0.450000X-0.350000X0.450000X-0.350000X0.450000X0.350000X0*%
%ADD22RoundRect,0.150000X0.150000X-0.587500X0.150000X0.587500X-0.150000X0.587500X-0.150000X-0.587500X0*%
%ADD23C,1.750000*%
%ADD24C,3.000000*%
%ADD25RoundRect,0.250000X0.350000X0.450000X-0.350000X0.450000X-0.350000X-0.450000X0.350000X-0.450000X0*%
%ADD26R,1.560000X0.650000*%
%ADD27R,1.500000X2.000000*%
%ADD28R,3.800000X2.000000*%
%ADD29C,1.200000*%
%ADD30C,0.787000*%
%ADD31RoundRect,0.500000X-0.500000X-0.500000X0.500000X-0.500000X0.500000X0.500000X-0.500000X0.500000X0*%
%ADD32C,2.000000*%
%ADD33RoundRect,0.250000X0.450000X-0.350000X0.450000X0.350000X-0.450000X0.350000X-0.450000X-0.350000X0*%
%ADD34R,0.550000X1.600000*%
%ADD35R,1.600000X0.550000*%
%ADD36R,1.200000X0.900000*%
G04 APERTURE END LIST*
D10*
%TO.C,U4*%
X201290000Y-105090000D03*
X201290000Y-105725000D03*
X201290000Y-106360000D03*
X201290000Y-106995000D03*
X201290000Y-107630000D03*
X201290000Y-108265000D03*
X201290000Y-108900000D03*
X201290000Y-109535000D03*
X201290000Y-110170000D03*
X201290000Y-110805000D03*
X206490000Y-110805000D03*
X206490000Y-110170000D03*
X206490000Y-109535000D03*
X206490000Y-108900000D03*
X206490000Y-108265000D03*
X206490000Y-107630000D03*
X206490000Y-106995000D03*
X206490000Y-106360000D03*
X206490000Y-105725000D03*
X206490000Y-105090000D03*
%TD*%
D11*
%TO.C,J2*%
X224734286Y-90762500D03*
D12*
X224734286Y-93302500D03*
X224734286Y-95842500D03*
X224734286Y-98382500D03*
X224734286Y-100922500D03*
X224734286Y-103462500D03*
X224734286Y-106002500D03*
X224734286Y-108542500D03*
%TD*%
D11*
%TO.C,J1*%
X189734286Y-108512500D03*
D12*
X189734286Y-105972500D03*
X189734286Y-103432500D03*
X189734286Y-100892500D03*
X189734286Y-98352500D03*
X189734286Y-95812500D03*
X189734286Y-93272500D03*
X189734286Y-90732500D03*
%TD*%
D13*
%TO.C,C10*%
X209170000Y-109375000D03*
X209170000Y-107300000D03*
%TD*%
D14*
%TO.C,FB1*%
X208880000Y-113690000D03*
X208880000Y-115765000D03*
%TD*%
D15*
%TO.C,Q2*%
X208270000Y-78967500D03*
D16*
X201970000Y-76667500D03*
D15*
X208270000Y-76667500D03*
X208270000Y-74367500D03*
%TD*%
D17*
%TO.C,L1*%
X214080000Y-107037500D03*
X215860000Y-107037500D03*
%TD*%
D18*
%TO.C,D5*%
X217200976Y-100010000D03*
X217200976Y-98865000D03*
%TD*%
D19*
%TO.C,U1*%
X216575000Y-85902500D03*
X216575000Y-84632500D03*
X216575000Y-83362500D03*
X216575000Y-82092500D03*
X211425000Y-82092500D03*
X211425000Y-83362500D03*
X211425000Y-84632500D03*
X211425000Y-85902500D03*
%TD*%
D20*
%TO.C,C1*%
X213497500Y-87977500D03*
X211422500Y-87977500D03*
%TD*%
D21*
%TO.C,R11*%
X218040000Y-93837500D03*
X218040000Y-95837500D03*
%TD*%
D13*
%TO.C,C3*%
X218940000Y-87185000D03*
X218940000Y-85110000D03*
%TD*%
D22*
%TO.C,D4*%
X216660000Y-113580000D03*
X215710000Y-115455000D03*
X217610000Y-115455000D03*
%TD*%
D23*
%TO.C,J3*%
X208520000Y-121067500D03*
X206020000Y-121067500D03*
X206020000Y-123067500D03*
X208520000Y-123067500D03*
D24*
X203270000Y-127557500D03*
X211270000Y-127557500D03*
%TD*%
D14*
%TO.C,C9*%
X198900000Y-108815000D03*
X198900000Y-110890000D03*
%TD*%
D21*
%TO.C,R13*%
X215860000Y-93817500D03*
X215860000Y-95817500D03*
%TD*%
D25*
%TO.C,R1*%
X220880000Y-83017500D03*
X218880000Y-83017500D03*
%TD*%
%TO.C,R4*%
X208690000Y-81777500D03*
X206690000Y-81777500D03*
%TD*%
D21*
%TO.C,R10*%
X220200000Y-93847500D03*
X220200000Y-95847500D03*
%TD*%
D26*
%TO.C,U3*%
X213620000Y-109327500D03*
X213620000Y-110277500D03*
X213620000Y-111227500D03*
X216320000Y-111227500D03*
X216320000Y-109327500D03*
%TD*%
D20*
%TO.C,C7*%
X210027500Y-70817500D03*
X207952500Y-70817500D03*
%TD*%
D18*
%TO.C,D6*%
X213659024Y-100010000D03*
X213659024Y-98865000D03*
%TD*%
D21*
%TO.C,R8*%
X218810000Y-76797500D03*
X218810000Y-78797500D03*
%TD*%
D25*
%TO.C,R5*%
X204478095Y-81787500D03*
X202478095Y-81787500D03*
%TD*%
D27*
%TO.C,Q1*%
X216310000Y-73207500D03*
D28*
X214010000Y-79507500D03*
D27*
X214010000Y-73207500D03*
X211710000Y-73207500D03*
%TD*%
D13*
%TO.C,C4*%
X206660000Y-115755000D03*
X206660000Y-113680000D03*
%TD*%
%TO.C,C8*%
X211290000Y-111755000D03*
X211290000Y-109680000D03*
%TD*%
D29*
%TO.C,J5*%
X196594000Y-84942500D03*
X197610000Y-79862500D03*
X198626000Y-84942500D03*
D30*
X196975000Y-81132500D03*
X198245000Y-81132500D03*
X196975000Y-82402500D03*
X198245000Y-82402500D03*
X196975000Y-83672500D03*
X198245000Y-83672500D03*
%TD*%
D18*
%TO.C,D7*%
X215430000Y-100010000D03*
X215430000Y-98865000D03*
%TD*%
D21*
%TO.C,R12*%
X213700000Y-93827500D03*
X213700000Y-95827500D03*
%TD*%
D31*
%TO.C,J4*%
X201995000Y-61337500D03*
D32*
X205805000Y-61337500D03*
X209615000Y-61337500D03*
X213425000Y-61337500D03*
%TD*%
D25*
%TO.C,R3*%
X215060000Y-70807500D03*
X213060000Y-70807500D03*
%TD*%
D14*
%TO.C,C5*%
X211070000Y-113670000D03*
X211070000Y-115745000D03*
%TD*%
D33*
%TO.C,R6*%
X204560000Y-115717500D03*
X204560000Y-113717500D03*
%TD*%
D18*
%TO.C,D3*%
X218971953Y-100010000D03*
X218971953Y-98865000D03*
%TD*%
D33*
%TO.C,R9*%
X202500000Y-115717500D03*
X202500000Y-113717500D03*
%TD*%
D13*
%TO.C,C12*%
X198910000Y-106850000D03*
X198910000Y-104775000D03*
%TD*%
D21*
%TO.C,R2*%
X211450000Y-93817500D03*
X211450000Y-95817500D03*
%TD*%
D18*
%TO.C,D1*%
X211888048Y-100010000D03*
X211888048Y-98865000D03*
%TD*%
D20*
%TO.C,C2*%
X208637500Y-87227500D03*
X206562500Y-87227500D03*
%TD*%
D13*
%TO.C,C6*%
X200380000Y-115755000D03*
X200380000Y-113680000D03*
%TD*%
D21*
%TO.C,R7*%
X218810000Y-72877500D03*
X218810000Y-74877500D03*
%TD*%
D34*
%TO.C,U2*%
X205490000Y-89717500D03*
X204690000Y-89717500D03*
X203890000Y-89717500D03*
X203090000Y-89717500D03*
X202290000Y-89717500D03*
X201490000Y-89717500D03*
X200690000Y-89717500D03*
X199890000Y-89717500D03*
D35*
X198440000Y-91167500D03*
X198440000Y-91967500D03*
X198440000Y-92767500D03*
X198440000Y-93567500D03*
X198440000Y-94367500D03*
X198440000Y-95167500D03*
X198440000Y-95967500D03*
X198440000Y-96767500D03*
D34*
X199890000Y-98217500D03*
X200690000Y-98217500D03*
X201490000Y-98217500D03*
X202290000Y-98217500D03*
X203090000Y-98217500D03*
X203890000Y-98217500D03*
X204690000Y-98217500D03*
X205490000Y-98217500D03*
D35*
X206940000Y-96767500D03*
X206940000Y-95967500D03*
X206940000Y-95167500D03*
X206940000Y-94367500D03*
X206940000Y-93567500D03*
X206940000Y-92767500D03*
X206940000Y-91967500D03*
X206940000Y-91167500D03*
%TD*%
D13*
%TO.C,C11*%
X218810000Y-111605000D03*
X218810000Y-109530000D03*
%TD*%
D36*
%TO.C,D2*%
X213600000Y-113127500D03*
X213600000Y-116427500D03*
%TD*%
M02*
